{
.appVersion = "1161";
classes = (
{
automatic = 1;

glyphs = (
{
glyphname = A;
layers = (
{
anchors = (
{
name = bottom;
position = "{253, 0}";
},
{
name = ogonek;
position = "{475, 0}";
},
{
name = top;
position = "{253, 700}";
}
);
layerId = "76F17502-367F-435E-B23E-ED9D928E777B";
paths = (
{
closed = 1;
nodes = (
"66 -2 LINE SMOOTH",
"84 -2 OFFCURVE",
"99 2 OFFCURVE",
"102 14 CURVE SMOOTH",
"144 178 LINE",
"359 178 LINE",
"402 14 LINE SMOOTH",
"405 2 OFFCURVE",
"419 -2 OFFCURVE",
"438 -2 CURVE SMOOTH",
"455 -2 LINE SMOOTH",
"480 -2 OFFCURVE",
"492 5 OFFCURVE",
"492 15 CURVE SMOOTH",
"492 19 OFFCURVE",
"491 23 OFFCURVE",
"489 28 CURVE SMOOTH",
"308 683 LINE SMOOTH",
"305 696 OFFCURVE",
"292 702 OFFCURVE",
"268 702 CURVE SMOOTH",
"236 702 LINE SMOOTH",
"213 702 OFFCURVE",
"200 696 OFFCURVE",
"196 683 CURVE SMOOTH",
"15 28 LINE SMOOTH",
"14 23 OFFCURVE",
"13 19 OFFCURVE",
"13 15 CURVE SMOOTH",
"13 5 OFFCURVE",
"24 -2 OFFCURVE",
"50 -2 CURVE SMOOTH"
);
},
{
closed = 1;
nodes = (
"238 528 LINE SMOOTH",
"243 547 OFFCURVE",
"246 570 OFFCURVE",
"250 589 CURVE",
"255 589 LINE",
"258 570 OFFCURVE",
"261 547 OFFCURVE",
"266 528 CURVE SMOOTH",
"337 254 LINE",
"167 254 LINE"
);
}
);
width = 505;
},
{
anchors = (
{
name = bottom;
position = "{253, 0}";
},
{
name = ogonek;
position = "{464, 0}";
},
{
name = top;
position = "{253, 700}";
}
);
layerId = "6662946B-F990-402F-A6FD-22D24AB84B33";
paths = (
{
closed = 1;
nodes = (
"102 -2 LINE SMOOTH",
"127 -2 OFFCURVE",
"146 3 OFFCURVE",
"149 19 CURVE SMOOTH",
"176 141 LINE",
"328 141 LINE",
"354 19 LINE SMOOTH",
"358 3 OFFCURVE",
"379 -2 OFFCURVE",
"407 -2 CURVE SMOOTH",
"460 -2 LINE SMOOTH",
"491 -2 OFFCURVE",
"503 6 OFFCURVE",
"503 20 CURVE SMOOTH",
"503 25 OFFCURVE",
"502 31 OFFCURVE",
"501 38 CURVE SMOOTH",
"347 674 LINE SMOOTH",
"342 693 OFFCURVE",
"322 702 OFFCURVE",
"285 702 CURVE SMOOTH",
"220 702 LINE SMOOTH",
"185 702 OFFCURVE",
"164 693 OFFCURVE",
"159 674 CURVE SMOOTH",
"5 38 LINE SMOOTH",
"3 31 OFFCURVE",
"2 25 OFFCURVE",
"2 20 CURVE SMOOTH",
"2 6 OFFCURVE",
"17 -2 OFFCURVE",
"50 -2 CURVE SMOOTH"
);
},
{
closed = 1;
nodes = (
"237 475 LINE SMOOTH",
"242 500 OFFCURVE",
"246 526 OFFCURVE",
"249 551 CURVE",
"254 551 LINE",
"257 526 OFFCURVE",
"261 500 OFFCURVE",
"266 475 CURVE SMOOTH",
"311 263 LINE",
"193 263 LINE"
);
}
);
width = 505;
}
);
leftKerningGroup = A;
rightKerningGroup = A;
unicode = 0041;
userData = {
RMXScaler = {
source = A;
};
};
},
{
glyphname = Abreveacute;
layers = (
{
background = {
paths = (
{
closed = 1;
nodes = (
"253 846 OFFCURVE",
"263 852 OFFCURVE",
"272 864 CURVE SMOOTH",
"333 952 OFFCURVE",
"340 960 OFFCURVE",
"340 970 CURVE SMOOTH",
"340 980 OFFCURVE",
"331 983 OFFCURVE",
"309 983 CURVE SMOOTH",
"285 983 OFFCURVE",
"264 976 OFFCURVE",
"255 957 CURVE SMOOTH",
"221 884 OFFCURVE",
"213 865 OFFCURVE",
"213 856 CURVE SMOOTH",
"213 849 OFFCURVE",
"220 846 OFFCURVE",
"236 846 CURVE SMOOTH"
);
},
{
closed = 1;
nodes = (
"313 762 OFFCURVE",
"362 800 OFFCURVE",
"362 857 CURVE SMOOTH",
"362 874 OFFCURVE",
"357 879 OFFCURVE",
"346 879 CURVE SMOOTH",
"330 879 OFFCURVE",
"329 869 OFFCURVE",
"323 854 CURVE SMOOTH",
"316 837 OFFCURVE",
"289 813 OFFCURVE",
"246 813 CURVE SMOOTH",
"204 813 OFFCURVE",
"176 836 OFFCURVE",
"168 854 CURVE SMOOTH",
"160 871 OFFCURVE",
"159 879 OFFCURVE",
"145 879 CURVE SMOOTH",
"133 879 OFFCURVE",
"129 874 OFFCURVE",
"129 857 CURVE SMOOTH",
"129 800 OFFCURVE",
"178 762 OFFCURVE",
"246 762 CURVE SMOOTH"
);
}
);
};
components = (
{
name = A;
},
{
name = brevecomb.case;
transform = "{1, 0, 0, 1, 131, 177}";
},
{
name = acutecomb.case;
transform = "{1, 0, 0, 1, 197, 309}";
}
);
layerId = "76F17502-367F-435E-B23E-ED9D928E777B";
width = 505;
},
{
background = {
paths = (
{
closed = 1;
nodes = (
"261 864 OFFCURVE",
"273 871 OFFCURVE",
"281 879 CURVE SMOOTH",
"342 953 OFFCURVE",
"355 969 OFFCURVE",
"355 979 CURVE SMOOTH",
"355 998 OFFCURVE",
"341 1003 OFFCURVE",
"315 1003 CURVE SMOOTH",
"280 1003 OFFCURVE",
"251 997 OFFCURVE",
"240 976 CURVE SMOOTH",
"215 909 OFFCURVE",
"205 888 OFFCURVE",
"205 879 CURVE SMOOTH",
"205 868 OFFCURVE",
"210 864 OFFCURVE",
"226 864 CURVE SMOOTH"
);
},
{
closed = 1;
nodes = (
"331 752 OFFCURVE",
"376 804 OFFCURVE",
"376 846 CURVE SMOOTH",
"376 872 OFFCURVE",
"358 880 OFFCURVE",
"336 880 CURVE SMOOTH",
"322 880 OFFCURVE",
"313 873 OFFCURVE",
"309 864 CURVE SMOOTH",
"302 852 OFFCURVE",
"299 828 OFFCURVE",
"246 828 CURVE SMOOTH",
"196 828 OFFCURVE",
"192 850 OFFCURVE",
"185 862 CURVE SMOOTH",
"180 872 OFFCURVE",
"171 880 OFFCURVE",
"156 880 CURVE SMOOTH",
"134 880 OFFCURVE",
"115 872 OFFCURVE",
"115 845 CURVE SMOOTH",
"115 803 OFFCURVE",
"161 752 OFFCURVE",
"245 752 CURVE SMOOTH"
);
}
);
};
components = (
{
name = A;
},
{
name = brevecomb.case;
transform = "{1, 0, 0, 1, 117, 177}";
},
{
name = acutecomb.case;
transform = "{1, 0, 0, 1, 181, 319}";
}
);
layerId = "6662946B-F990-402F-A6FD-22D24AB84B33";
width = 505;
}
);
leftKerningGroup = A;
rightKerningGroup = A;
unicode = 1EAE;
},
{
glyphname = Acircumflexacute;
layers = (
{
background = {
paths = (
{
closed = 1;
nodes = (
"360 849 OFFCURVE",
"370 855 OFFCURVE",
"379 867 CURVE SMOOTH",
"440 955 OFFCURVE",
"447 963 OFFCURVE",
"447 973 CURVE SMOOTH",
"447 983 OFFCURVE",
"438 986 OFFCURVE",
"416 986 CURVE SMOOTH",
"392 986 OFFCURVE",
"371 979 OFFCURVE",
"362 960 CURVE SMOOTH",
"328 887 OFFCURVE",
"320 868 OFFCURVE",
"320 859 CURVE SMOOTH",
"320 852 OFFCURVE",
"327 849 OFFCURVE",
"343 849 CURVE SMOOTH"
);
},
{
closed = 1;
nodes = (
"180 753 LINE",
"191 753 OFFCURVE",
"200 754 OFFCURVE",
"206 766 CURVE",
"245 840 LINE",
"284 766 LINE SMOOTH",
"290 757 OFFCURVE",
"300 753 OFFCURVE",
"310 753 CURVE",
"329 753 LINE",
"341 753 OFFCURVE",
"349 759 OFFCURVE",
"349 768 CURVE SMOOTH",
"349 773 OFFCURVE",
"345 779 OFFCURVE",
"342 785 CURVE SMOOTH",
"294 873 LINE SMOOTH",
"286 888 OFFCURVE",
"273 895 OFFCURVE",
"253 895 CURVE SMOOTH",
"237 895 LINE SMOOTH",
"219 895 OFFCURVE",
"204 888 OFFCURVE",
"196 873 CURVE SMOOTH",
"148 785 LINE SMOOTH",
"145 779 OFFCURVE",
"143 771 OFFCURVE",
"143 766 CURVE SMOOTH",
"143 759 OFFCURVE",
"149 753 OFFCURVE",
"162 753 CURVE"
);
}
);
};
components = (
{
name = A;
},
{
name = circumflexcomb.case;
transform = "{1, 0, 0, 1, 138, 177}";
},
{
name = acutecomb.case;
transform = "{1, 0, 0, 1, 197, 314}";
}
);
layerId = "76F17502-367F-435E-B23E-ED9D928E777B";
width = 505;
},
{
background = {
paths = (
{
closed = 1;
nodes = (
"385 853 OFFCURVE",
"397 860 OFFCURVE",
"405 868 CURVE SMOOTH",
"466 942 OFFCURVE",
"479 958 OFFCURVE",
"479 968 CURVE SMOOTH",
"479 987 OFFCURVE",
"465 992 OFFCURVE",
"439 992 CURVE SMOOTH",
"404 992 OFFCURVE",
"375 986 OFFCURVE",
"364 965 CURVE SMOOTH",
"339 898 OFFCURVE",
"329 877 OFFCURVE",
"329 868 CURVE SMOOTH",
"329 857 OFFCURVE",
"334 853 OFFCURVE",
"350 853 CURVE SMOOTH"
);
},
{
closed = 1;
nodes = (
"175 749 LINE SMOOTH",
"195 749 OFFCURVE",
"216 751 OFFCURVE",
"225 768 CURVE SMOOTH",
"245 813 LINE",
"265 767 LINE SMOOTH",
"272 755 OFFCURVE",
"290 749 OFFCURVE",
"316 749 CURVE SMOOTH",
"344 749 LINE SMOOTH",
"356 749 OFFCURVE",
"364 752 OFFCURVE",
"364 759 CURVE SMOOTH",
"364 763 OFFCURVE",
"362 768 OFFCURVE",
"359 774 CURVE SMOOTH",
"303 876 LINE SMOOTH",
"293 894 OFFCURVE",
"273 895 OFFCURVE",
"246 895 CURVE SMOOTH",
"244 895 LINE SMOOTH",
"218 895 OFFCURVE",
"197 894 OFFCURVE",
"187 876 CURVE SMOOTH",
"132 774 LINE SMOOTH",
"129 768 OFFCURVE",
"127 764 OFFCURVE",
"127 759 CURVE SMOOTH",
"127 751 OFFCURVE",
"132 749 OFFCURVE",
"148 749 CURVE"
);
}
);
};
components = (
{
name = A;
},
{
name = circumflexcomb.case;
transform = "{1, 0, 0, 1, 119, 177}";
},
{
name = acutecomb.case;
transform = "{1, 0, 0, 1, 181, 319}";
}
);
layerId = "6662946B-F990-402F-A6FD-22D24AB84B33";
width = 505;
}
);
leftKerningGroup = A;
rightKerningGroup = A;
unicode = 1EA4;
},
{
glyphname = Acircumflexgrave;
layers = (
{
components = (
{
name = A;
},
{
name = circumflexcomb.case;
transform = "{1, 0, 0, 1, 138, 177}";
},
{
name = gravecomb.case;
transform = "{1, 0, 0, 1, 167, 314}";
}
);
layerId = "76F17502-367F-435E-B23E-ED9D928E777B";
width = 505;
},
{
background = {
paths = (
{
closed = 1;
nodes = (
"421 853 OFFCURVE",
"427 857 OFFCURVE",
"427 868 CURVE SMOOTH",
"427 877 OFFCURVE",
"418 899 OFFCURVE",
"393 965 CURVE SMOOTH",
"383 986 OFFCURVE",
"351 992 OFFCURVE",
"314 992 CURVE SMOOTH",
"286 992 OFFCURVE",
"271 988 OFFCURVE",
"271 972 CURVE SMOOTH",
"271 962 OFFCURVE",
"280 952 OFFCURVE",
"344 872 CURVE SMOOTH",
"353 862 OFFCURVE",
"366 853 OFFCURVE",
"402 853 CURVE SMOOTH"
);
},
{
closed = 1;
nodes = (
"175 749 LINE SMOOTH",
"195 749 OFFCURVE",
"216 751 OFFCURVE",
"225 768 CURVE SMOOTH",
"245 813 LINE",
"265 767 LINE SMOOTH",
"272 755 OFFCURVE",
"290 749 OFFCURVE",
"316 749 CURVE SMOOTH",
"344 749 LINE SMOOTH",
"356 749 OFFCURVE",
"364 752 OFFCURVE",
"364 759 CURVE SMOOTH",
"364 763 OFFCURVE",
"362 768 OFFCURVE",
"359 774 CURVE SMOOTH",
"303 876 LINE SMOOTH",
"293 894 OFFCURVE",
"273 895 OFFCURVE",
"246 895 CURVE SMOOTH",
"244 895 LINE SMOOTH",
"218 895 OFFCURVE",
"197 894 OFFCURVE",
"187 876 CURVE SMOOTH",
"132 774 LINE SMOOTH",
"129 768 OFFCURVE",
"127 764 OFFCURVE",
"127 759 CURVE SMOOTH",
"127 751 OFFCURVE",
"132 749 OFFCURVE",
"148 749 CURVE"
);
}
);
};
components = (
{
name = A;
},
{
name = circumflexcomb.case;
transform = "{1, 0, 0, 1, 119, 177}";
},
{
name = gravecomb.case;
transform = "{1, 0, 0, 1, 130, 319}";
}
);
layerId = "6662946B-F990-402F-A6FD-22D24AB84B33";
width = 505;
}
);
leftKerningGroup = A;
rightKerningGroup = A;
unicode = 1EA6;
},
{
glyphname = Acircumflexhookabove;
layers = (
{
background = {
paths = (
{
closed = 1;
nodes = (
"360 856 OFFCURVE",
"381 866 OFFCURVE",
"395 878 CURVE SMOOTH",
"412 892 OFFCURVE",
"430 911 OFFCURVE",
"430 942 CURVE SMOOTH",
"430 994 OFFCURVE",
"378 1010 OFFCURVE",
"344 1010 CURVE SMOOTH",
"309 1010 OFFCURVE",
"266 995 OFFCURVE",
"266 982 CURVE SMOOTH",
"266 972 OFFCURVE",
"282 949 OFFCURVE",
"290 949 CURVE SMOOTH",
"295 949 OFFCURVE",
"305 962 OFFCURVE",
"336 962 CURVE SMOOTH",
"356 962 OFFCURVE",
"373 953 OFFCURVE",
"373 935 CURVE SMOOTH",
"373 921 OFFCURVE",
"362 909 OFFCURVE",
"342 898 CURVE SMOOTH",
"326 889 OFFCURVE",
"317 884 OFFCURVE",
"317 876 CURVE SMOOTH",
"317 867 OFFCURVE",
"333 856 OFFCURVE",
"354 856 CURVE SMOOTH"
);
},
{
closed = 1;
nodes = (
"180 753 LINE",
"191 753 OFFCURVE",
"200 754 OFFCURVE",
"206 766 CURVE",
"245 840 LINE",
"284 766 LINE SMOOTH",
"290 757 OFFCURVE",
"300 753 OFFCURVE",
"310 753 CURVE",
"329 753 LINE",
"341 753 OFFCURVE",
"349 759 OFFCURVE",
"349 768 CURVE SMOOTH",
"349 773 OFFCURVE",
"345 779 OFFCURVE",
"342 785 CURVE SMOOTH",
"294 873 LINE SMOOTH",
"286 888 OFFCURVE",
"273 895 OFFCURVE",
"253 895 CURVE SMOOTH",
"237 895 LINE SMOOTH",
"219 895 OFFCURVE",
"204 888 OFFCURVE",
"196 873 CURVE SMOOTH",
"148 785 LINE SMOOTH",
"145 779 OFFCURVE",
"143 771 OFFCURVE",
"143 766 CURVE SMOOTH",
"143 759 OFFCURVE",
"149 753 OFFCURVE",
"162 753 CURVE"
);
}
);
};
components = (
{
name = A;
},
{
name = circumflexcomb.case;
transform = "{1, 0, 0, 1, 138, 177}";
},
{
name = hookabovecomb.case;
transform = "{1, 0, 0, 1, 166, 314}";
}
);
layerId = "76F17502-367F-435E-B23E-ED9D928E777B";
width = 505;
},
{
background = {
paths = (
{
closed = 1;
nodes = (
"391 861 OFFCURVE",
"413 875 OFFCURVE",
"423 883 CURVE SMOOTH",
"443 899 OFFCURVE",
"449 914 OFFCURVE",
"449 930 CURVE SMOOTH",
"449 970 OFFCURVE",
"414 996 OFFCURVE",
"356 996 CURVE SMOOTH",
"321 996 OFFCURVE",
"276 981 OFFCURVE",
"276 968 CURVE SMOOTH",
"276 953 OFFCURVE",
"298 926 OFFCURVE",
"306 926 CURVE SMOOTH",
"315 926 OFFCURVE",
"326 943 OFFCURVE",
"359 943 CURVE SMOOTH",
"369 943 OFFCURVE",
"380 937 OFFCURVE",
"380 926 CURVE SMOOTH",
"380 912 OFFCURVE",
"368 907 OFFCURVE",
"349 898 CURVE SMOOTH",
"339 893 OFFCURVE",
"330 886 OFFCURVE",
"330 882 CURVE SMOOTH",
"330 871 OFFCURVE",
"347 861 OFFCURVE",
"374 861 CURVE SMOOTH"
);
},
{
closed = 1;
nodes = (
"175 749 LINE SMOOTH",
"195 749 OFFCURVE",
"216 751 OFFCURVE",
"225 768 CURVE SMOOTH",
"245 813 LINE",
"265 767 LINE SMOOTH",
"272 755 OFFCURVE",
"290 749 OFFCURVE",
"316 749 CURVE SMOOTH",
"344 749 LINE SMOOTH",
"356 749 OFFCURVE",
"364 752 OFFCURVE",
"364 759 CURVE SMOOTH",
"364 763 OFFCURVE",
"362 768 OFFCURVE",
"359 774 CURVE SMOOTH",
"303 876 LINE SMOOTH",
"293 894 OFFCURVE",
"273 895 OFFCURVE",
"246 895 CURVE SMOOTH",
"244 895 LINE SMOOTH",
"218 895 OFFCURVE",
"197 894 OFFCURVE",
"187 876 CURVE SMOOTH",
"132 774 LINE SMOOTH",
"129 768 OFFCURVE",
"127 764 OFFCURVE",
"127 759 CURVE SMOOTH",
"127 751 OFFCURVE",
"132 749 OFFCURVE",
"148 749 CURVE"
);
}
);
};
components = (
{
name = A;
},
{
name = circumflexcomb.case;
transform = "{1, 0, 0, 1, 119, 177}";
},
{
name = hookabovecomb.case;
transform = "{1, 0, 0, 1, 157, 319}";
}
);
layerId = "6662946B-F990-402F-A6FD-22D24AB84B33";
width = 505;
}
);
leftKerningGroup = A;
rightKerningGroup = A;
unicode = 1EA8;
},
{
glyphname = Acircumflextilde;
layers = (
{
background = {
paths = (
{
closed = 1;
nodes = (
"134 899 OFFCURVE",
"137 898 OFFCURVE",
"140 898 CURVE SMOOTH",
"146 898 OFFCURVE",
"150 902 OFFCURVE",
"156 912 CURVE SMOOTH",
"168 932 OFFCURVE",
"176 939 OFFCURVE",
"189 939 CURVE SMOOTH",
"220 939 OFFCURVE",
"266 899 OFFCURVE",
"307 899 CURVE SMOOTH",
"339 899 OFFCURVE",
"363 917 OFFCURVE",
"382 967 CURVE SMOOTH",
"384 973 OFFCURVE",
"385 977 OFFCURVE",
"385 981 CURVE SMOOTH",
"385 987 OFFCURVE",
"382 989 OFFCURVE",
"374 993 CURVE SMOOTH",
"368 996 LINE SMOOTH",
"364 998 OFFCURVE",
"361 999 OFFCURVE",
"358 999 CURVE SMOOTH",
"352 999 OFFCURVE",
"346 995 OFFCURVE",
"340 984 CURVE SMOOTH",
"329 964 OFFCURVE",
"320 958 OFFCURVE",
"306 958 CURVE SMOOTH",
"274 958 OFFCURVE",
"229 998 OFFCURVE",
"190 998 CURVE SMOOTH",
"157 998 OFFCURVE",
"133 980 OFFCURVE",
"115 929 CURVE SMOOTH",
"113 924 OFFCURVE",
"112 920 OFFCURVE",
"112 916 CURVE SMOOTH",
"112 911 OFFCURVE",
"115 907 OFFCURVE",
"121 904 CURVE SMOOTH",
"130 900 LINE SMOOTH"
);
},
{
closed = 1;
nodes = (
"181 753 LINE SMOOTH",
"194 753 OFFCURVE",
"202 758 OFFCURVE",
"208 766 CURVE SMOOTH",
"245 824 LINE",
"284 766 LINE SMOOTH",
"290 758 OFFCURVE",
"299 753 OFFCURVE",
"311 753 CURVE SMOOTH",
"330 753 LINE SMOOTH",
"342 753 OFFCURVE",
"349 759 OFFCURVE",
"349 767 CURVE SMOOTH",
"349 771 OFFCURVE",
"347 777 OFFCURVE",
"342 785 CURVE SMOOTH",
"296 851 LINE SMOOTH",
"286 865 OFFCURVE",
"273 873 OFFCURVE",
"254 873 CURVE SMOOTH",
"238 873 LINE SMOOTH",
"219 873 OFFCURVE",
"207 865 OFFCURVE",
"196 851 CURVE SMOOTH",
"150 785 LINE SMOOTH",
"146 777 OFFCURVE",
"143 771 OFFCURVE",
"143 767 CURVE SMOOTH",
"143 758 OFFCURVE",
"150 753 OFFCURVE",
"162 753 CURVE SMOOTH"
);
}
);
};
components = (
{
name = A;
},
{
name = circumflexcomb.case;
transform = "{1, 0, 0, 1, 138, 177}";
},
{
name = tildecomb.case;
transform = "{1, 0, 0, 1, 103, 314}";
}
);
layerId = "76F17502-367F-435E-B23E-ED9D928E777B";
width = 505;
},
{
background = {
paths = (
{
closed = 1;
nodes = (
"140 889 OFFCURVE",
"144 888 OFFCURVE",
"148 888 CURVE SMOOTH",
"159 888 OFFCURVE",
"165 894 OFFCURVE",
"173 905 CURVE SMOOTH",
"183 920 OFFCURVE",
"191 921 OFFCURVE",
"196 921 CURVE SMOOTH",
"221 920 OFFCURVE",
"272 892 OFFCURVE",
"302 892 CURVE SMOOTH",
"342 892 OFFCURVE",
"372 925 OFFCURVE",
"384 962 CURVE SMOOTH",
"385 966 OFFCURVE",
"387 970 OFFCURVE",
"387 977 CURVE SMOOTH",
"387 988 OFFCURVE",
"381 998 OFFCURVE",
"366 1003 CURVE SMOOTH",
"357 1006 LINE SMOOTH",
"353 1007 OFFCURVE",
"349 1008 OFFCURVE",
"344 1008 CURVE SMOOTH",
"333 1008 OFFCURVE",
"326 1001 OFFCURVE",
"319 991 CURVE SMOOTH",
"309 976 OFFCURVE",
"302 975 OFFCURVE",
"296 975 CURVE SMOOTH",
"271 976 OFFCURVE",
"222 1004 OFFCURVE",
"191 1004 CURVE SMOOTH",
"150 1004 OFFCURVE",
"121 973 OFFCURVE",
"109 935 CURVE SMOOTH",
"106 928 OFFCURVE",
"105 923 OFFCURVE",
"105 919 CURVE SMOOTH",
"105 910 OFFCURVE",
"110 898 OFFCURVE",
"126 893 CURVE SMOOTH",
"136 890 LINE SMOOTH"
);
},
{
closed = 1;
nodes = (
"175 749 LINE SMOOTH",
"203 749 OFFCURVE",
"211 754 OFFCURVE",
"224 768 CURVE SMOOTH",
"246 807 LINE",
"267 767 LINE SMOOTH",
"278 754 OFFCURVE",
"287 749 OFFCURVE",
"316 749 CURVE SMOOTH",
"344 749 LINE SMOOTH",
"357 749 OFFCURVE",
"364 753 OFFCURVE",
"364 759 CURVE SMOOTH",
"364 762 OFFCURVE",
"360 773 OFFCURVE",
"355 780 CURVE SMOOTH",
"304 854 LINE SMOOTH",
"293 869 OFFCURVE",
"279 873 OFFCURVE",
"247 873 CURVE SMOOTH",
"245 873 LINE SMOOTH",
"213 873 OFFCURVE",
"198 869 OFFCURVE",
"187 854 CURVE SMOOTH",
"136 780 LINE SMOOTH",
"132 773 OFFCURVE",
"127 762 OFFCURVE",
"127 759 CURVE SMOOTH",
"127 751 OFFCURVE",
"133 749 OFFCURVE",
"148 749 CURVE SMOOTH"
);
}
);
};
components = (
{
name = A;
},
{
name = circumflexcomb.case;
transform = "{1, 0, 0, 1, 119, 177}";
},
{
name = tildecomb.case;
transform = "{1, 0, 0, 1, 98, 319}";
}
);
layerId = "6662946B-F990-402F-A6FD-22D24AB84B33";
width = 505;
}
);
leftKerningGroup = A;
rightKerningGroup = A;
unicode = 1EAA;
},
{
glyphname = Aringacute;
layers = (
{
background = {
paths = (
{
closed = 1;
nodes = (
"267 871 OFFCURVE",
"277 877 OFFCURVE",
"286 889 CURVE SMOOTH",
"346 977 OFFCURVE",
"354 985 OFFCURVE",
"354 995 CURVE SMOOTH",
"354 1005 OFFCURVE",
"345 1008 OFFCURVE",
"323 1008 CURVE SMOOTH",
"299 1008 OFFCURVE",
"278 1001 OFFCURVE",
"269 982 CURVE SMOOTH",
"235 909 OFFCURVE",
"227 890 OFFCURVE",
"227 881 CURVE SMOOTH",
"227 874 OFFCURVE",
"234 871 OFFCURVE",
"250 871 CURVE SMOOTH"
);
}
);
};
components = (
{
alignment = -1;
name = ringcomb.case;
transform = "{1, 0, 0, 1, 168, 70}";
},
{
name = acutecomb.case;
transform = "{1, 0, 0, 1, 197, 247}";
}
);
layerId = "76F17502-367F-435E-B23E-ED9D928E777B";
paths = (
{
closed = 1;
nodes = (
"66 -2 LINE SMOOTH",
"84 -2 OFFCURVE",
"99 2 OFFCURVE",
"102 14 CURVE SMOOTH",
"144 178 LINE",
"359 178 LINE",
"402 14 LINE SMOOTH",
"405 2 OFFCURVE",
"419 -2 OFFCURVE",
"438 -2 CURVE SMOOTH",
"455 -2 LINE SMOOTH",
"480 -2 OFFCURVE",
"492 5 OFFCURVE",
"492 15 CURVE SMOOTH",
"492 19 OFFCURVE",
"491 23 OFFCURVE",
"489 28 CURVE SMOOTH",
"308 683 LINE SMOOTH",
"302 705 OFFCURVE",
"294 672 OFFCURVE",
"268 672 CURVE SMOOTH",
"236 672 LINE SMOOTH",
"213 672 OFFCURVE",
"201 700 OFFCURVE",
"196 683 CURVE SMOOTH",
"15 28 LINE SMOOTH",
"14 23 OFFCURVE",
"13 19 OFFCURVE",
"13 15 CURVE SMOOTH",
"13 5 OFFCURVE",
"24 -2 OFFCURVE",
"50 -2 CURVE SMOOTH"
);
},
{
closed = 1;
nodes = (
"238 528 LINE SMOOTH",
"243 547 OFFCURVE",
"246 570 OFFCURVE",
"250 589 CURVE",
"255 589 LINE",
"258 570 OFFCURVE",
"261 547 OFFCURVE",
"266 528 CURVE SMOOTH",
"337 254 LINE",
"167 254 LINE"
);
}
);
width = 505;
},
{
background = {
paths = (
{
closed = 1;
nodes = (
"268 872 OFFCURVE",
"280 879 OFFCURVE",
"288 887 CURVE SMOOTH",
"349 961 OFFCURVE",
"362 977 OFFCURVE",
"362 987 CURVE SMOOTH",
"362 1006 OFFCURVE",
"348 1011 OFFCURVE",
"322 1011 CURVE SMOOTH",
"287 1011 OFFCURVE",
"258 1005 OFFCURVE",
"247 984 CURVE SMOOTH",
"222 917 OFFCURVE",
"212 896 OFFCURVE",
"212 887 CURVE SMOOTH",
"212 876 OFFCURVE",
"217 872 OFFCURVE",
"233 872 CURVE SMOOTH"
);
}
);
};
components = (
{
alignment = -1;
name = ringcomb.case;
transform = "{1, 0, 0, 1, 152, 55}";
},
{
name = acutecomb.case;
transform = "{1, 0, 0, 1, 181, 247}";
}
);
layerId = "6662946B-F990-402F-A6FD-22D24AB84B33";
paths = (
{
closed = 1;
nodes = (
"102 -2 LINE SMOOTH",
"127 -2 OFFCURVE",
"146 3 OFFCURVE",
"149 19 CURVE SMOOTH",
"176 141 LINE",
"328 141 LINE",
"354 19 LINE SMOOTH",
"358 3 OFFCURVE",
"379 -2 OFFCURVE",
"407 -2 CURVE SMOOTH",
"460 -2 LINE SMOOTH",
"491 -2 OFFCURVE",
"503 6 OFFCURVE",
"503 20 CURVE SMOOTH",
"503 25 OFFCURVE",
"502 31 OFFCURVE",
"501 38 CURVE SMOOTH",
"347 674 LINE SMOOTH",
"341 701 OFFCURVE",
"322 652 OFFCURVE",
"285 652 CURVE SMOOTH",
"220 652 LINE SMOOTH",
"185 652 OFFCURVE",
"168 709 OFFCURVE",
"159 674 CURVE SMOOTH",
"5 38 LINE SMOOTH",
"3 31 OFFCURVE",
"2 25 OFFCURVE",
"2 20 CURVE SMOOTH",
"2 6 OFFCURVE",
"17 -2 OFFCURVE",
"50 -2 CURVE SMOOTH"
);
},
{
closed = 1;
nodes = (
"237 475 LINE SMOOTH",
"242 500 OFFCURVE",
"246 526 OFFCURVE",
"249 551 CURVE",
"254 551 LINE",
"257 526 OFFCURVE",
"261 500 OFFCURVE",
"266 475 CURVE SMOOTH",
"311 263 LINE",
"193 263 LINE"
);
}
);
width = 505;
}
);
leftKerningGroup = A;
rightKerningGroup = A;
unicode = 01FA;
userData = {
RMXScaler = {
source = Aringacute;
};
};
},
{
glyphname = AE;
layers = (
{
anchors = (
{
name = top;
position = "{457, 700}";
}
);
layerId = "76F17502-367F-435E-B23E-ED9D928E777B";
paths = (
{
closed = 1;
nodes = (
"53 -2 LINE SMOOTH",
"70 -2 OFFCURVE",
"82 3 OFFCURVE",
"86 14 CURVE SMOOTH",
"149 178 LINE",
"365 178 LINE",
"387 29 LINE SMOOTH",
"390 9 OFFCURVE",
"399 0 OFFCURVE",
"416 0 CURVE SMOOTH",
"659 0 LINE SMOOTH",
"672 0 OFFCURVE",
"678 9 OFFCURVE",
"678 30 CURVE SMOOTH",
"678 46 LINE SMOOTH",
"678 67 OFFCURVE",
"672 76 OFFCURVE",
"659 76 CURVE SMOOTH",
"467 76 LINE",
"429 320 LINE",
"635 320 LINE SMOOTH",
"648 320 OFFCURVE",
"654 329 OFFCURVE",
"654 350 CURVE SMOOTH",
"654 366 LINE SMOOTH",
"654 387 OFFCURVE",
"648 396 OFFCURVE",
"635 396 CURVE SMOOTH",
"417 396 LINE",
"382 624 LINE",
"658 624 LINE SMOOTH",
"671 624 OFFCURVE",
"677 633 OFFCURVE",
"677 654 CURVE SMOOTH",
"677 670 LINE SMOOTH",
"677 691 OFFCURVE",
"671 700 OFFCURVE",
"658 700 CURVE SMOOTH",
"296 700 LINE SMOOTH",
"279 700 OFFCURVE",
"269 692 OFFCURVE",
"261 673 CURVE SMOOTH",
"5 31 LINE SMOOTH",
"2 25 OFFCURVE",
"1 19 OFFCURVE",
"1 15 CURVE SMOOTH",
"1 4 OFFCURVE",
"12 -2 OFFCURVE",
"39 -2 CURVE SMOOTH"
);
},
{
closed = 1;
nodes = (
"288 526 LINE",
"307 584 LINE",
"309 584 LINE",
"311 526 LINE",
"352 253 LINE",
"181 253 LINE"
);
}
);
width = 746;
},
{
anchors = (
{
name = top;
position = "{451, 700}";
}
);
layerId = "6662946B-F990-402F-A6FD-22D24AB84B33";
paths = (
{
closed = 1;
nodes = (
"108 -2 LINE SMOOTH",
"130 -2 OFFCURVE",
"142 5 OFFCURVE",
"147 19 CURVE SMOOTH",
"194 141 LINE",
"354 141 LINE",
"366 30 LINE SMOOTH",
"368 9 OFFCURVE",
"375 0 OFFCURVE",
"393 0 CURVE SMOOTH",
"680 0 LINE SMOOTH",
"700 0 OFFCURVE",
"709 15 OFFCURVE",
"709 50 CURVE SMOOTH",
"709 81 LINE SMOOTH",
"709 116 OFFCURVE",
"700 131 OFFCURVE",
"680 131 CURVE SMOOTH",
"500 131 LINE",
"483 293 LINE",
"659 293 LINE SMOOTH",
"679 293 OFFCURVE",
"688 308 OFFCURVE",
"688 343 CURVE SMOOTH",
"688 374 LINE SMOOTH",
"688 409 OFFCURVE",
"679 424 OFFCURVE",
"659 424 CURVE SMOOTH",
"466 424 LINE",
"451 569 LINE",
"679 569 LINE SMOOTH",
"699 569 OFFCURVE",
"708 584 OFFCURVE",
"708 619 CURVE SMOOTH",
"708 650 LINE SMOOTH",
"708 685 OFFCURVE",
"699 700 OFFCURVE",
"679 700 CURVE SMOOTH",
"287 700 LINE SMOOTH",
"270 700 OFFCURVE",
"259 692 OFFCURVE",
"252 673 CURVE SMOOTH",
"6 38 LINE SMOOTH",
"4 32 OFFCURVE",
"3 25 OFFCURVE",
"3 20 CURVE SMOOTH",
"3 6 OFFCURVE",
"23 -2 OFFCURVE",
"62 -2 CURVE SMOOTH"
);
},
{
closed = 1;
nodes = (
"299 455 LINE",
"322 526 LINE",
"326 526 LINE",
"326 454 LINE",
"342 273 LINE",
"235 273 LINE"
);
}
);
width = 746;
}
);
leftKerningGroup = AE;
rightKerningGroup = E;
unicode = 00C6;
userData = {
RMXScaler = {
source = AE;
};
};
},
{
glyphname = B;
layers = (
{
anchors = (
{
name = bottom;
position = "{251, 0}";
},
{
name = top;
position = "{251, 700}";
}
);
layerId = "76F17502-367F-435E-B23E-ED9D928E777B";
paths = (
{
closed = 1;
nodes = (
"279 0 LINE SMOOTH",
"418 0 OFFCURVE",
"492 62 OFFCURVE",
"492 201 CURVE SMOOTH",
"492 326 OFFCURVE",
"401 359 OFFCURVE",
"378 367 CURVE",
"378 371 LINE",
"425 387 OFFCURVE",
"468 456 OFFCURVE",
"468 523 CURVE SMOOTH",
"468 628 OFFCURVE",
"408 700 OFFCURVE",
"279 700 CURVE SMOOTH",
"106 700 LINE SMOOTH",
"86 700 OFFCURVE",
"78 691 OFFCURVE",
"78 670 CURVE SMOOTH",
"78 30 LINE SMOOTH",
"78 9 OFFCURVE",
"86 0 OFFCURVE",
"106 0 CURVE SMOOTH"
);
},
{
closed = 1;
nodes = (
"168 322 LINE",
"283 322 LINE SMOOTH",
"359 322 OFFCURVE",
"400 278 OFFCURVE",
"400 205 CURVE SMOOTH",
"400 126 OFFCURVE",
"362 76 OFFCURVE",
"297 76 CURVE SMOOTH",
"168 76 LINE"
);
},
{
closed = 1;
nodes = (
"168 624 LINE",
"270 624 LINE SMOOTH",
"342 624 OFFCURVE",
"375 589 OFFCURVE",
"375 515 CURVE SMOOTH",
"375 450 OFFCURVE",
"334 398 OFFCURVE",
"272 398 CURVE SMOOTH",
"168 398 LINE"
);
}
);
width = 539;
},
{
anchors = (
{
name = bottom;
position = "{257, 0}";
},
{
name = top;
position = "{257, 700}";
}
);
layerId = "6662946B-F990-402F-A6FD-22D24AB84B33";
paths = (
{
closed = 1;
nodes = (
"276 0 LINE SMOOTH",
"431 0 OFFCURVE",
"503 84 OFFCURVE",
"503 197 CURVE SMOOTH",
"503 283 OFFCURVE",
"462 342 OFFCURVE",
"394 362 CURVE",
"393 366 LINE",
"446 397 OFFCURVE",
"483 448 OFFCURVE",
"483 531 CURVE SMOOTH",
"483 639 OFFCURVE",
"419 700 OFFCURVE",
"273 700 CURVE SMOOTH",
"94 700 LINE SMOOTH",
"68 700 OFFCURVE",
"57 688 OFFCURVE",
"57 661 CURVE SMOOTH",
"57 40 LINE SMOOTH",
"57 12 OFFCURVE",
"68 0 OFFCURVE",
"94 0 CURVE SMOOTH"
);
},
{
closed = 1;
nodes = (
"205 296 LINE",
"281 296 LINE SMOOTH",
"330 296 OFFCURVE",
"353 274 OFFCURVE",
"353 211 CURVE SMOOTH",
"353 146 OFFCURVE",
"329 121 OFFCURVE",
"281 121 CURVE SMOOTH",
"205 121 LINE"
);
},
{
closed = 1;
nodes = (
"205 580 LINE",
"276 580 LINE SMOOTH",
"318 580 OFFCURVE",
"337 558 OFFCURVE",
"337 500 CURVE SMOOTH",
"337 441 OFFCURVE",
"317 415 OFFCURVE",
"274 415 CURVE SMOOTH",
"205 415 LINE"
);
}
);
width = 539;
}
);
leftKerningGroup = H;
rightKerningGroup = B;
unicode = 0042;
userData = {
RMXScaler = {
source = B;
};
};
},
{
glyphname = C;
layers = (
{
anchors = (
{
name = bottom;
position = "{293, 0}";
},
{
name = top;
position = "{297, 700}";
}
);
background = {
paths = (
{
closed = 1;
nodes = (
"407 150 LINE",
"388 140 OFFCURVE",
"356 128 OFFCURVE",
"308 128 CURVE SMOOTH",
"230 128 OFFCURVE",
"190 204 OFFCURVE",
"190 351 CURVE SMOOTH",
"190 499 OFFCURVE",
"228 573 OFFCURVE",
"309 573 CURVE SMOOTH",
"360 573 OFFCURVE",
"388 557 OFFCURVE",
"404 550 CURVE",
"424 685 LINE",
"393 698 OFFCURVE",
"350 708 OFFCURVE",
"302 708 CURVE SMOOTH",
"115 708 OFFCURVE",
"30 590 OFFCURVE",
"30 352 CURVE SMOOTH",
"30 105 OFFCURVE",
"109 -8 OFFCURVE",
"297 -8 CURVE SMOOTH",
"352 -8 OFFCURVE",
"403 5 OFFCURVE",
"437 23 CURVE"
);
}
);
};
layerId = "76F17502-367F-435E-B23E-ED9D928E777B";
paths = (
{
closed = 1;
nodes = (
"355 -6 OFFCURVE",
"396 5 OFFCURVE",
"416 15 CURVE SMOOTH",
"436 25 OFFCURVE",
"440 36 OFFCURVE",
"440 48 CURVE SMOOTH",
"440 66 OFFCURVE",
"429 109 OFFCURVE",
"403 97 CURVE SMOOTH",
"381 84 OFFCURVE",
"350 72 OFFCURVE",
"309 72 CURVE SMOOTH",
"195 72 OFFCURVE",
"142 160 OFFCURVE",
"142 351 CURVE SMOOTH",
"142 543 OFFCURVE",
"196 628 OFFCURVE",
"310 628 CURVE SMOOTH",
"349 628 OFFCURVE",
"377 617 OFFCURVE",
"397 607 CURVE SMOOTH",
"420 594 OFFCURVE",
"428 648 OFFCURVE",
"428 660 CURVE SMOOTH",
"428 675 OFFCURVE",
"424 682 OFFCURVE",
"411 687 CURVE SMOOTH",
"386 698 OFFCURVE",
"348 706 OFFCURVE",
"310 706 CURVE SMOOTH",
"135 706 OFFCURVE",
"49 592 OFFCURVE",
"49 350 CURVE SMOOTH",
"49 106 OFFCURVE",
"132 -6 OFFCURVE",
"309 -6 CURVE SMOOTH"
);
}
);
width = 459;
},
{
anchors = (
{
name = bottom;
position = "{302, 0}";
},
{
name = top;
position = "{282, 700}";
}
);
background = {
anchors = (
{
name = bottom;
position = "{302, 0}";
},
{
name = top;
position = "{282, 700}";
}
);
paths = (
{
closed = 1;
nodes = (
"347 -8 OFFCURVE",
"387 0 OFFCURVE",
"407 7 CURVE SMOOTH",
"432 16 OFFCURVE",
"436 32 OFFCURVE",
"436 49 CURVE SMOOTH",
"436 107 OFFCURVE",
"420 149 OFFCURVE",
"387 139 CURVE SMOOTH",
"366 133 OFFCURVE",
"350 128 OFFCURVE",
"321 128 CURVE SMOOTH",
"233 128 OFFCURVE",
"197 204 OFFCURVE",
"197 351 CURVE SMOOTH",
"197 499 OFFCURVE",
"235 573 OFFCURVE",
"316 573 CURVE SMOOTH",
"343 573 OFFCURVE",
"364 568 OFFCURVE",
"380 563 CURVE SMOOTH",
"407 553 OFFCURVE",
"426 604 OFFCURVE",
"427 650 CURVE SMOOTH",
"428 671 OFFCURVE",
"422 690 OFFCURVE",
"396 697 CURVE SMOOTH",
"378 702 OFFCURVE",
"345 708 OFFCURVE",
"309 708 CURVE SMOOTH",
"122 708 OFFCURVE",
"37 590 OFFCURVE",
"37 352 CURVE SMOOTH",
"37 105 OFFCURVE",
"116 -8 OFFCURVE",
"304 -8 CURVE SMOOTH"
);
}
);
};
layerId = "6662946B-F990-402F-A6FD-22D24AB84B33";
paths = (
{
closed = 1;
nodes = (
"347 -8 OFFCURVE",
"387 0 OFFCURVE",
"407 7 CURVE SMOOTH",
"432 16 OFFCURVE",
"436 32 OFFCURVE",
"436 49 CURVE SMOOTH",
"436 107 OFFCURVE",
"420 149 OFFCURVE",
"387 139 CURVE SMOOTH",
"366 133 OFFCURVE",
"350 128 OFFCURVE",
"321 128 CURVE SMOOTH",
"233 128 OFFCURVE",
"197 204 OFFCURVE",
"197 351 CURVE SMOOTH",
"197 499 OFFCURVE",
"235 573 OFFCURVE",
"316 573 CURVE SMOOTH",
"343 573 OFFCURVE",
"364 568 OFFCURVE",
"380 563 CURVE SMOOTH",
"407 553 OFFCURVE",
"426 604 OFFCURVE",
"427 650 CURVE SMOOTH",
"428 671 OFFCURVE",
"422 690 OFFCURVE",
"396 697 CURVE SMOOTH",
"378 702 OFFCURVE",
"345 708 OFFCURVE",
"309 708 CURVE SMOOTH",
"122 708 OFFCURVE",
"37 590 OFFCURVE",
"37 352 CURVE SMOOTH",
"37 105 OFFCURVE",
"116 -8 OFFCURVE",
"304 -8 CURVE SMOOTH"
);
}
);
width = 459;
}
);
leftKerningGroup = O;
rightKerningGroup = C;
unicode = 0043;
userData = {
RMXScaler = {
source = C;
};
};
},
{
glyphname = D;
layers = (
{
anchors = (
{
name = bottom;
position = "{273, 0}";
},
{
name = center;
position = "{123, 350}";
},
{
name = top;
position = "{272, 700}";
}
);
layerId = "76F17502-367F-435E-B23E-ED9D928E777B";
paths = (
{
closed = 1;
nodes = (
"273 0 LINE SMOOTH",
"421 0 OFFCURVE",
"524 90 OFFCURVE",
"524 350 CURVE SMOOTH",
"524 609 OFFCURVE",
"421 700 OFFCURVE",
"273 700 CURVE SMOOTH",
"105 700 LINE SMOOTH",
"86 700 OFFCURVE",
"78 691 OFFCURVE",
"78 670 CURVE SMOOTH",
"78 30 LINE SMOOTH",
"78 9 OFFCURVE",
"86 0 OFFCURVE",
"105 0 CURVE SMOOTH"
);
},
{
closed = 1;
nodes = (
"169 624 LINE",
"271 624 LINE SMOOTH",
"365 624 OFFCURVE",
"432 549 OFFCURVE",
"432 350 CURVE SMOOTH",
"432 150 OFFCURVE",
"365 76 OFFCURVE",
"271 76 CURVE SMOOTH",
"169 76 LINE"
);
}
);
width = 573;
},
{
anchors = (
{
name = bottom;
position = "{275, 0}";
},
{
name = center;
position = "{136, 350}";
},
{
name = top;
position = "{282, 700}";
}
);
layerId = "6662946B-F990-402F-A6FD-22D24AB84B33";
paths = (
{
closed = 1;
nodes = (
"284 0 LINE SMOOTH",
"460 0 OFFCURVE",
"537 118 OFFCURVE",
"537 350 CURVE SMOOTH",
"537 582 OFFCURVE",
"460 700 OFFCURVE",
"284 700 CURVE SMOOTH",
"94 700 LINE SMOOTH",
"68 700 OFFCURVE",
"57 688 OFFCURVE",
"57 660 CURVE SMOOTH",
"57 40 LINE SMOOTH",
"57 12 OFFCURVE",
"68 0 OFFCURVE",
"94 0 CURVE SMOOTH"
);
},
{
closed = 1;
nodes = (
"215 569 LINE",
"279 569 LINE SMOOTH",
"349 569 OFFCURVE",
"378 511 OFFCURVE",
"378 350 CURVE SMOOTH",
"378 189 OFFCURVE",
"349 131 OFFCURVE",
"279 131 CURVE SMOOTH",
"215 131 LINE"
);
}
);
width = 575;
}
);
leftKerningGroup = H;
rightKerningGroup = O;
rightMetricsKey = O;
unicode = 0044;
userData = {
RMXScaler = {
source = D;
};
};
},
{
glyphname = Eth;
layers = (
{
components = (
{
name = D;
}
);
layerId = "76F17502-367F-435E-B23E-ED9D928E777B";
paths = (
{
closed = 1;
nodes = (
"280 320 LINE SMOOTH",
"293 320 OFFCURVE",
"299 329 OFFCURVE",
"299 350 CURVE SMOOTH",
"299 366 LINE SMOOTH",
"299 387 OFFCURVE",
"293 396 OFFCURVE",
"280 396 CURVE SMOOTH",
"29 396 LINE SMOOTH",
"16 396 OFFCURVE",
"10 387 OFFCURVE",
"10 366 CURVE SMOOTH",
"10 350 LINE SMOOTH",
"10 329 OFFCURVE",
"16 320 OFFCURVE",
"29 320 CURVE SMOOTH"
);
}
);
width = 573;
},
{
components = (
{
name = D;
}
);
layerId = "6662946B-F990-402F-A6FD-22D24AB84B33";
paths = (
{
closed = 1;
nodes = (
"264 291 LINE SMOOTH",
"284 291 OFFCURVE",
"293 306 OFFCURVE",
"293 341 CURVE SMOOTH",
"293 371 LINE SMOOTH",
"293 406 OFFCURVE",
"284 421 OFFCURVE",
"264 421 CURVE SMOOTH",
"36 421 LINE SMOOTH",
"16 421 OFFCURVE",
"7 406 OFFCURVE",
"7 371 CURVE SMOOTH",
"7 341 LINE SMOOTH",
"7 306 OFFCURVE",
"16 291 OFFCURVE",
"36 291 CURVE SMOOTH"
);
}
);
width = 577;
}
);
leftKerningGroup = H;
rightKerningGroup = O;
unicode = 00D0;
userData = {
RMXScaler = {
source = Eth;
};
};
},
{
glyphname = E;
layers = (
{
anchors = (
{
name = bottom;
position = "{249, 0}";
},
{
name = ogonek;
position = "{381, 0}";
},
{
name = top;
position = "{246, 700}";
}
);
layerId = "76F17502-367F-435E-B23E-ED9D928E777B";
paths = (
{
closed = 1;
nodes = (
"394 0 LINE SMOOTH",
"408 0 OFFCURVE",
"413 9 OFFCURVE",
"413 30 CURVE SMOOTH",
"413 46 LINE SMOOTH",
"413 67 OFFCURVE",
"408 76 OFFCURVE",
"394 76 CURVE SMOOTH",
"169 76 LINE",
"169 320 LINE",
"371 320 LINE SMOOTH",
"384 320 OFFCURVE",
"390 329 OFFCURVE",
"390 350 CURVE SMOOTH",
"390 366 LINE SMOOTH",
"390 387 OFFCURVE",
"384 396 OFFCURVE",
"371 396 CURVE SMOOTH",
"169 396 LINE",
"169 624 LINE",
"394 624 LINE SMOOTH",
"407 624 OFFCURVE",
"413 633 OFFCURVE",
"413 654 CURVE SMOOTH",
"413 670 LINE SMOOTH",
"413 691 OFFCURVE",
"407 700 OFFCURVE",
"394 700 CURVE SMOOTH",
"106 700 LINE SMOOTH",
"87 700 OFFCURVE",
"79 691 OFFCURVE",
"79 670 CURVE SMOOTH",
"79 30 LINE SMOOTH",
"79 9 OFFCURVE",
"87 0 OFFCURVE",
"106 0 CURVE SMOOTH"
);
}
);
width = 457;
},
{
anchors = (
{
name = bottom;
position = "{232, 0}";
},
{
name = ogonek;
position = "{379, 0}";
},
{
name = top;
position = "{235, 700}";
}
);
layerId = "6662946B-F990-402F-A6FD-22D24AB84B33";
paths = (
{
closed = 1;
nodes = (
"391 0 LINE SMOOTH",
"411 0 OFFCURVE",
"419 15 OFFCURVE",
"419 50 CURVE SMOOTH",
"419 81 LINE SMOOTH",
"419 116 OFFCURVE",
"411 131 OFFCURVE",
"391 131 CURVE SMOOTH",
"214 131 LINE",
"214 293 LINE",
"370 293 LINE SMOOTH",
"390 293 OFFCURVE",
"399 308 OFFCURVE",
"399 343 CURVE SMOOTH",
"399 374 LINE SMOOTH",
"399 409 OFFCURVE",
"390 424 OFFCURVE",
"370 424 CURVE SMOOTH",
"214 424 LINE",
"214 569 LINE",
"390 569 LINE SMOOTH",
"410 569 OFFCURVE",
"419 584 OFFCURVE",
"419 619 CURVE SMOOTH",
"419 650 LINE SMOOTH",
"419 685 OFFCURVE",
"410 700 OFFCURVE",
"390 700 CURVE SMOOTH",
"95 700 LINE SMOOTH",
"69 700 OFFCURVE",
"58 688 OFFCURVE",
"58 660 CURVE SMOOTH",
"58 40 LINE SMOOTH",
"58 12 OFFCURVE",
"69 0 OFFCURVE",
"95 0 CURVE SMOOTH"
);
}
);
width = 457;
}
);
leftKerningGroup = H;
rightKerningGroup = E;
unicode = 0045;
userData = {
RMXScaler = {
source = E;
};
};
},
{
glyphname = Ecircumflexacute;
layers = (
{
background = {
paths = (
{
closed = 1;
nodes = (
"352 849 OFFCURVE",
"362 855 OFFCURVE",
"371 867 CURVE SMOOTH",
"432 955 OFFCURVE",
"440 963 OFFCURVE",
"440 973 CURVE SMOOTH",
"440 983 OFFCURVE",
"431 986 OFFCURVE",
"409 986 CURVE SMOOTH",
"385 986 OFFCURVE",
"364 979 OFFCURVE",
"355 960 CURVE SMOOTH",
"321 887 OFFCURVE",
"312 868 OFFCURVE",
"312 859 CURVE SMOOTH",
"312 852 OFFCURVE",
"319 849 OFFCURVE",
"335 849 CURVE SMOOTH"
);
},
{
closed = 1;
nodes = (
"173 753 LINE",
"183 753 OFFCURVE",
"192 754 OFFCURVE",
"199 766 CURVE",
"237 840 LINE",
"277 766 LINE SMOOTH",
"282 757 OFFCURVE",
"293 753 OFFCURVE",
"302 753 CURVE",
"322 753 LINE",
"334 753 OFFCURVE",
"341 759 OFFCURVE",
"341 768 CURVE SMOOTH",
"341 773 OFFCURVE",
"338 779 OFFCURVE",
"334 785 CURVE SMOOTH",
"287 873 LINE SMOOTH",
"278 888 OFFCURVE",
"265 895 OFFCURVE",
"246 895 CURVE SMOOTH",
"230 895 LINE SMOOTH",
"212 895 OFFCURVE",
"197 888 OFFCURVE",
"188 873 CURVE SMOOTH",
"140 785 LINE SMOOTH",
"138 779 OFFCURVE",
"135 771 OFFCURVE",
"135 766 CURVE SMOOTH",
"135 759 OFFCURVE",
"142 753 OFFCURVE",
"154 753 CURVE"
);
}
);
};
components = (
{
name = E;
},
{
name = circumflexcomb.case;
transform = "{1, 0, 0, 1, 131, 177}";
},
{
name = acutecomb.case;
transform = "{1, 0, 0, 1, 190, 314}";
}
);
layerId = "76F17502-367F-435E-B23E-ED9D928E777B";
width = 457;
},
{
background = {
paths = (
{
closed = 1;
nodes = (
"380 853 OFFCURVE",
"392 860 OFFCURVE",
"400 868 CURVE SMOOTH",
"461 942 OFFCURVE",
"474 958 OFFCURVE",
"474 968 CURVE SMOOTH",
"474 987 OFFCURVE",
"460 992 OFFCURVE",
"434 992 CURVE SMOOTH",
"399 992 OFFCURVE",
"370 986 OFFCURVE",
"359 965 CURVE SMOOTH",
"334 898 OFFCURVE",
"324 877 OFFCURVE",
"324 868 CURVE SMOOTH",
"324 857 OFFCURVE",
"329 853 OFFCURVE",
"345 853 CURVE SMOOTH"
);
},
{
closed = 1;
nodes = (
"170 749 LINE SMOOTH",
"190 749 OFFCURVE",
"211 751 OFFCURVE",
"220 768 CURVE SMOOTH",
"240 813 LINE",
"260 767 LINE SMOOTH",
"267 755 OFFCURVE",
"285 749 OFFCURVE",
"311 749 CURVE SMOOTH",
"339 749 LINE SMOOTH",
"351 749 OFFCURVE",
"359 752 OFFCURVE",
"359 759 CURVE SMOOTH",
"359 763 OFFCURVE",
"357 768 OFFCURVE",
"354 774 CURVE SMOOTH",
"298 876 LINE SMOOTH",
"288 894 OFFCURVE",
"268 895 OFFCURVE",
"241 895 CURVE SMOOTH",
"239 895 LINE SMOOTH",
"213 895 OFFCURVE",
"192 894 OFFCURVE",
"182 876 CURVE SMOOTH",
"127 774 LINE SMOOTH",
"124 768 OFFCURVE",
"122 764 OFFCURVE",
"122 759 CURVE SMOOTH",
"122 751 OFFCURVE",
"127 749 OFFCURVE",
"143 749 CURVE"
);
}
);
};
components = (
{
name = E;
},
{
name = circumflexcomb.case;
transform = "{1, 0, 0, 1, 101, 177}";
},
{
name = acutecomb.case;
transform = "{1, 0, 0, 1, 163, 319}";
}
);
layerId = "6662946B-F990-402F-A6FD-22D24AB84B33";
width = 457;
}
);
leftKerningGroup = H;
rightKerningGroup = E;
unicode = 1EBE;
},
{
glyphname = Ecircumflexgrave;
layers = (
{
background = {
paths = (
{
closed = 1;
nodes = (
"384 849 OFFCURVE",
"391 852 OFFCURVE",
"391 859 CURVE SMOOTH",
"391 868 OFFCURVE",
"384 887 OFFCURVE",
"353 960 CURVE SMOOTH",
"345 979 OFFCURVE",
"323 986 OFFCURVE",
"301 986 CURVE SMOOTH",
"276 986 OFFCURVE",
"268 983 OFFCURVE",
"268 973 CURVE SMOOTH",
"268 963 OFFCURVE",
"276 955 OFFCURVE",
"332 867 CURVE SMOOTH",
"341 855 OFFCURVE",
"353 849 OFFCURVE",
"368 849 CURVE SMOOTH"
);
},
{
closed = 1;
nodes = (
"173 753 LINE",
"183 753 OFFCURVE",
"192 754 OFFCURVE",
"199 766 CURVE",
"237 840 LINE",
"277 766 LINE SMOOTH",
"282 757 OFFCURVE",
"293 753 OFFCURVE",
"302 753 CURVE",
"322 753 LINE",
"334 753 OFFCURVE",
"341 759 OFFCURVE",
"341 768 CURVE SMOOTH",
"341 773 OFFCURVE",
"338 779 OFFCURVE",
"334 785 CURVE SMOOTH",
"287 873 LINE SMOOTH",
"278 888 OFFCURVE",
"265 895 OFFCURVE",
"246 895 CURVE SMOOTH",
"230 895 LINE SMOOTH",
"212 895 OFFCURVE",
"197 888 OFFCURVE",
"188 873 CURVE SMOOTH",
"140 785 LINE SMOOTH",
"138 779 OFFCURVE",
"135 771 OFFCURVE",
"135 766 CURVE SMOOTH",
"135 759 OFFCURVE",
"142 753 OFFCURVE",
"154 753 CURVE"
);
}
);
};
components = (
{
name = E;
},
{
name = circumflexcomb.case;
transform = "{1, 0, 0, 1, 131, 177}";
},
{
name = gravecomb.case;
transform = "{1, 0, 0, 1, 160, 314}";
}
);
layerId = "76F17502-367F-435E-B23E-ED9D928E777B";
width = 457;
},
{
background = {
paths = (
{
closed = 1;
nodes = (
"416 853 OFFCURVE",
"422 857 OFFCURVE",
"422 868 CURVE SMOOTH",
"422 877 OFFCURVE",
"413 899 OFFCURVE",
"388 965 CURVE SMOOTH",
"378 986 OFFCURVE",
"346 992 OFFCURVE",
"309 992 CURVE SMOOTH",
"281 992 OFFCURVE",
"266 988 OFFCURVE",
"266 972 CURVE SMOOTH",
"266 962 OFFCURVE",
"275 952 OFFCURVE",
"339 872 CURVE SMOOTH",
"348 862 OFFCURVE",
"361 853 OFFCURVE",
"397 853 CURVE SMOOTH"
);
},
{
closed = 1;
nodes = (
"170 749 LINE SMOOTH",
"190 749 OFFCURVE",
"211 751 OFFCURVE",
"220 768 CURVE SMOOTH",
"240 813 LINE",
"260 767 LINE SMOOTH",
"267 755 OFFCURVE",
"285 749 OFFCURVE",
"311 749 CURVE SMOOTH",
"339 749 LINE SMOOTH",
"351 749 OFFCURVE",
"359 752 OFFCURVE",
"359 759 CURVE SMOOTH",
"359 763 OFFCURVE",
"357 768 OFFCURVE",
"354 774 CURVE SMOOTH",
"298 876 LINE SMOOTH",
"288 894 OFFCURVE",
"268 895 OFFCURVE",
"241 895 CURVE SMOOTH",
"239 895 LINE SMOOTH",
"213 895 OFFCURVE",
"192 894 OFFCURVE",
"182 876 CURVE SMOOTH",
"127 774 LINE SMOOTH",
"124 768 OFFCURVE",
"122 764 OFFCURVE",
"122 759 CURVE SMOOTH",
"122 751 OFFCURVE",
"127 749 OFFCURVE",
"143 749 CURVE"
);
}
);
};
components = (
{
name = E;
},
{
name = circumflexcomb.case;
transform = "{1, 0, 0, 1, 101, 177}";
},
{
name = gravecomb.case;
transform = "{1, 0, 0, 1, 112, 319}";
}
);
layerId = "6662946B-F990-402F-A6FD-22D24AB84B33";
width = 457;
}
);
leftKerningGroup = H;
rightKerningGroup = E;
unicode = 1EC0;
},
{
glyphname = Ecircumflexhookabove;
layers = (
{
background = {
paths = (
{
closed = 1;
nodes = (
"352 856 OFFCURVE",
"373 866 OFFCURVE",
"387 878 CURVE SMOOTH",
"404 892 OFFCURVE",
"422 911 OFFCURVE",
"422 942 CURVE SMOOTH",
"422 994 OFFCURVE",
"370 1010 OFFCURVE",
"336 1010 CURVE SMOOTH",
"301 1010 OFFCURVE",
"258 995 OFFCURVE",
"258 982 CURVE SMOOTH",
"258 972 OFFCURVE",
"274 949 OFFCURVE",
"282 949 CURVE SMOOTH",
"287 949 OFFCURVE",
"297 962 OFFCURVE",
"328 962 CURVE SMOOTH",
"348 962 OFFCURVE",
"365 953 OFFCURVE",
"365 935 CURVE SMOOTH",
"365 921 OFFCURVE",
"354 909 OFFCURVE",
"334 898 CURVE SMOOTH",
"318 889 OFFCURVE",
"309 884 OFFCURVE",
"309 876 CURVE SMOOTH",
"309 867 OFFCURVE",
"325 856 OFFCURVE",
"346 856 CURVE SMOOTH"
);
},
{
closed = 1;
nodes = (
"173 753 LINE",
"183 753 OFFCURVE",
"192 754 OFFCURVE",
"199 766 CURVE",
"237 840 LINE",
"277 766 LINE SMOOTH",
"282 757 OFFCURVE",
"293 753 OFFCURVE",
"302 753 CURVE",
"322 753 LINE",
"334 753 OFFCURVE",
"341 759 OFFCURVE",
"341 768 CURVE SMOOTH",
"341 773 OFFCURVE",
"338 779 OFFCURVE",
"334 785 CURVE SMOOTH",
"287 873 LINE SMOOTH",
"278 888 OFFCURVE",
"265 895 OFFCURVE",
"246 895 CURVE SMOOTH",
"230 895 LINE SMOOTH",
"212 895 OFFCURVE",
"197 888 OFFCURVE",
"188 873 CURVE SMOOTH",
"140 785 LINE SMOOTH",
"138 779 OFFCURVE",
"135 771 OFFCURVE",
"135 766 CURVE SMOOTH",
"135 759 OFFCURVE",
"142 753 OFFCURVE",
"154 753 CURVE"
);
}
);
};
components = (
{
name = E;
},
{
name = circumflexcomb.case;
transform = "{1, 0, 0, 1, 131, 177}";
},
{
name = hookabovecomb.case;
transform = "{1, 0, 0, 1, 159, 314}";
}
);
layerId = "76F17502-367F-435E-B23E-ED9D928E777B";
width = 457;
},
{
background = {
anchors = (
{
name = _top;
position = "{365, 834}";
},
{
name = tilde;
position = "{242, 953}";
},
{
name = top;
position = "{365, 834}";
}
);
components = (
{
name = E;
}
);
paths = (
{
closed = 1;
nodes = (
"386 861 OFFCURVE",
"408 875 OFFCURVE",
"418 883 CURVE SMOOTH",
"438 899 OFFCURVE",
"444 914 OFFCURVE",
"444 930 CURVE SMOOTH",
"444 970 OFFCURVE",
"409 996 OFFCURVE",
"351 996 CURVE SMOOTH",
"316 996 OFFCURVE",
"271 981 OFFCURVE",
"271 968 CURVE SMOOTH",
"271 953 OFFCURVE",
"293 926 OFFCURVE",
"301 926 CURVE SMOOTH",
"310 926 OFFCURVE",
"321 943 OFFCURVE",
"354 943 CURVE SMOOTH",
"364 943 OFFCURVE",
"375 937 OFFCURVE",
"375 926 CURVE SMOOTH",
"375 912 OFFCURVE",
"363 907 OFFCURVE",
"344 898 CURVE SMOOTH",
"334 893 OFFCURVE",
"325 886 OFFCURVE",
"325 882 CURVE SMOOTH",
"325 871 OFFCURVE",
"342 861 OFFCURVE",
"369 861 CURVE SMOOTH"
);
},
{
closed = 1;
nodes = (
"170 749 LINE SMOOTH",
"190 749 OFFCURVE",
"211 751 OFFCURVE",
"220 768 CURVE SMOOTH",
"240 813 LINE",
"260 767 LINE SMOOTH",
"267 755 OFFCURVE",
"285 749 OFFCURVE",
"311 749 CURVE SMOOTH",
"339 749 LINE SMOOTH",
"351 749 OFFCURVE",
"359 752 OFFCURVE",
"359 759 CURVE SMOOTH",
"359 763 OFFCURVE",
"357 768 OFFCURVE",
"354 774 CURVE SMOOTH",
"298 876 LINE SMOOTH",
"288 894 OFFCURVE",
"268 895 OFFCURVE",
"241 895 CURVE SMOOTH",
"239 895 LINE SMOOTH",
"213 895 OFFCURVE",
"192 894 OFFCURVE",
"182 876 CURVE SMOOTH",
"127 774 LINE SMOOTH",
"124 768 OFFCURVE",
"122 764 OFFCURVE",
"122 759 CURVE SMOOTH",
"122 751 OFFCURVE",
"127 749 OFFCURVE",
"143 749 CURVE"
);
}
);
};
components = (
{
name = E;
},
{
name = circumflexcomb.case;
transform = "{1, 0, 0, 1, 101, 177}";
},
{
name = hookabovecomb.case;
transform = "{1, 0, 0, 1, 139, 319}";
}
);
layerId = "6662946B-F990-402F-A6FD-22D24AB84B33";
width = 457;
}
);
leftKerningGroup = H;
rightKerningGroup = E;
unicode = 1EC2;
},
{
glyphname = Ecircumflextilde;
layers = (
{
background = {
anchors = (
{
name = _top;
position = "{240, 834}";
},
{
name = tilde;
position = "{239, 887}";
}
);
components = (
{
name = E;
}
);
paths = (
{
closed = 1;
nodes = (
"126 902 OFFCURVE",
"129 901 OFFCURVE",
"132 901 CURVE SMOOTH",
"138 901 OFFCURVE",
"142 905 OFFCURVE",
"148 915 CURVE SMOOTH",
"160 935 OFFCURVE",
"168 942 OFFCURVE",
"181 942 CURVE SMOOTH",
"212 942 OFFCURVE",
"258 902 OFFCURVE",
"299 902 CURVE SMOOTH",
"331 902 OFFCURVE",
"355 920 OFFCURVE",
"374 970 CURVE SMOOTH",
"376 976 OFFCURVE",
"377 980 OFFCURVE",
"377 984 CURVE SMOOTH",
"377 990 OFFCURVE",
"374 992 OFFCURVE",
"366 996 CURVE SMOOTH",
"360 999 LINE SMOOTH",
"356 1001 OFFCURVE",
"353 1002 OFFCURVE",
"350 1002 CURVE SMOOTH",
"344 1002 OFFCURVE",
"338 998 OFFCURVE",
"332 987 CURVE SMOOTH",
"321 968 OFFCURVE",
"312 961 OFFCURVE",
"298 961 CURVE SMOOTH",
"266 961 OFFCURVE",
"221 1001 OFFCURVE",
"182 1001 CURVE SMOOTH",
"149 1001 OFFCURVE",
"125 983 OFFCURVE",
"107 932 CURVE SMOOTH",
"105 927 OFFCURVE",
"104 923 OFFCURVE",
"104 919 CURVE SMOOTH",
"104 914 OFFCURVE",
"107 910 OFFCURVE",
"113 907 CURVE SMOOTH",
"122 903 LINE SMOOTH"
);
},
{
closed = 1;
nodes = (
"173 753 LINE SMOOTH",
"186 753 OFFCURVE",
"195 758 OFFCURVE",
"200 766 CURVE SMOOTH",
"238 824 LINE",
"277 766 LINE SMOOTH",
"283 758 OFFCURVE",
"291 753 OFFCURVE",
"303 753 CURVE SMOOTH",
"322 753 LINE SMOOTH",
"334 753 OFFCURVE",
"342 759 OFFCURVE",
"342 767 CURVE SMOOTH",
"342 771 OFFCURVE",
"339 777 OFFCURVE",
"334 785 CURVE SMOOTH",
"289 851 LINE SMOOTH",
"279 865 OFFCURVE",
"265 873 OFFCURVE",
"246 873 CURVE SMOOTH",
"230 873 LINE SMOOTH",
"211 873 OFFCURVE",
"199 865 OFFCURVE",
"188 851 CURVE SMOOTH",
"143 785 LINE SMOOTH",
"138 777 OFFCURVE",
"136 771 OFFCURVE",
"136 767 CURVE SMOOTH",
"136 758 OFFCURVE",
"142 753 OFFCURVE",
"155 753 CURVE SMOOTH"
);
}
);
};
components = (
{
name = E;
},
{
name = circumflexcomb.case;
transform = "{1, 0, 0, 1, 131, 177}";
},
{
name = tildecomb.case;
transform = "{1, 0, 0, 1, 96, 314}";
}
);
layerId = "76F17502-367F-435E-B23E-ED9D928E777B";
width = 457;
},
{
background = {
paths = (
{
closed = 1;
nodes = (
"132 890 OFFCURVE",
"136 889 OFFCURVE",
"140 889 CURVE SMOOTH",
"151 889 OFFCURVE",
"158 895 OFFCURVE",
"165 906 CURVE SMOOTH",
"175 921 OFFCURVE",
"183 922 OFFCURVE",
"188 922 CURVE SMOOTH",
"213 922 OFFCURVE",
"264 893 OFFCURVE",
"294 893 CURVE SMOOTH",
"334 893 OFFCURVE",
"364 926 OFFCURVE",
"377 963 CURVE SMOOTH",
"378 967 OFFCURVE",
"379 972 OFFCURVE",
"379 978 CURVE SMOOTH",
"379 989 OFFCURVE",
"374 999 OFFCURVE",
"359 1004 CURVE SMOOTH",
"349 1007 LINE SMOOTH",
"345 1008 OFFCURVE",
"341 1009 OFFCURVE",
"337 1009 CURVE SMOOTH",
"325 1009 OFFCURVE",
"318 1003 OFFCURVE",
"312 992 CURVE SMOOTH",
"301 978 OFFCURVE",
"294 976 OFFCURVE",
"288 976 CURVE SMOOTH",
"264 977 OFFCURVE",
"214 1005 OFFCURVE",
"183 1005 CURVE SMOOTH",
"142 1005 OFFCURVE",
"113 974 OFFCURVE",
"101 937 CURVE SMOOTH",
"98 930 OFFCURVE",
"97 924 OFFCURVE",
"97 920 CURVE SMOOTH",
"97 911 OFFCURVE",
"102 899 OFFCURVE",
"118 894 CURVE SMOOTH",
"128 891 LINE SMOOTH"
);
},
{
closed = 1;
nodes = (
"170 749 LINE SMOOTH",
"198 749 OFFCURVE",
"206 754 OFFCURVE",
"219 768 CURVE SMOOTH",
"241 807 LINE",
"262 767 LINE SMOOTH",
"273 754 OFFCURVE",
"282 749 OFFCURVE",
"311 749 CURVE SMOOTH",
"339 749 LINE SMOOTH",
"352 749 OFFCURVE",
"359 753 OFFCURVE",
"359 759 CURVE SMOOTH",
"359 762 OFFCURVE",
"355 773 OFFCURVE",
"350 780 CURVE SMOOTH",
"299 854 LINE SMOOTH",
"288 869 OFFCURVE",
"274 873 OFFCURVE",
"242 873 CURVE SMOOTH",
"240 873 LINE SMOOTH",
"208 873 OFFCURVE",
"193 869 OFFCURVE",
"182 854 CURVE SMOOTH",
"131 780 LINE SMOOTH",
"127 773 OFFCURVE",
"122 762 OFFCURVE",
"122 759 CURVE SMOOTH",
"122 751 OFFCURVE",
"128 749 OFFCURVE",
"143 749 CURVE SMOOTH"
);
}
);
};
components = (
{
name = E;
},
{
name = circumflexcomb.case;
transform = "{1, 0, 0, 1, 101, 177}";
},
{
name = tildecomb.case;
transform = "{1, 0, 0, 1, 80, 319}";
}
);
layerId = "6662946B-F990-402F-A6FD-22D24AB84B33";
width = 457;
}
);
leftKerningGroup = H;
rightKerningGroup = E;
unicode = 1EC4;
},
{
glyphname = F;
layers = (
{
anchors = (
{
name = bottom;
position = "{123, 0}";
},
{
name = top;
position = "{234, 700}";
}
);
layerId = "76F17502-367F-435E-B23E-ED9D928E777B";
paths = (
{
closed = 1;
nodes = (
"130 -2 LINE SMOOTH",
"157 -2 OFFCURVE",
"168 6 OFFCURVE",
"168 20 CURVE SMOOTH",
"168 300 LINE",
"348 300 LINE SMOOTH",
"361 300 OFFCURVE",
"367 309 OFFCURVE",
"367 330 CURVE SMOOTH",
"367 346 LINE SMOOTH",
"367 367 OFFCURVE",
"361 376 OFFCURVE",
"348 376 CURVE SMOOTH",
"168 376 LINE",
"168 624 LINE",
"365 624 LINE SMOOTH",
"378 624 OFFCURVE",
"384 633 OFFCURVE",
"384 654 CURVE SMOOTH",
"384 670 LINE SMOOTH",
"384 691 OFFCURVE",
"378 700 OFFCURVE",
"365 700 CURVE SMOOTH",
"105 700 LINE SMOOTH",
"86 700 OFFCURVE",
"78 691 OFFCURVE",
"78 670 CURVE SMOOTH",
"78 20 LINE SMOOTH",
"78 6 OFFCURVE",
"89 -2 OFFCURVE",
"116 -2 CURVE SMOOTH"
);
}
);
width = 423;
},
{
anchors = (
{
name = bottom;
position = "{135, 0}";
},
{
name = top;
position = "{233, 700}";
}
);
layerId = "6662946B-F990-402F-A6FD-22D24AB84B33";
paths = (
{
closed = 1;
nodes = (
"155 -2 LINE SMOOTH",
"196 -2 OFFCURVE",
"213 9 OFFCURVE",
"213 30 CURVE SMOOTH",
"213 272 LINE",
"360 272 LINE SMOOTH",
"380 272 OFFCURVE",
"389 287 OFFCURVE",
"389 322 CURVE SMOOTH",
"389 353 LINE SMOOTH",
"389 388 OFFCURVE",
"380 403 OFFCURVE",
"360 403 CURVE SMOOTH",
"213 403 LINE",
"213 569 LINE",
"369 569 LINE SMOOTH",
"389 569 OFFCURVE",
"398 584 OFFCURVE",
"398 619 CURVE SMOOTH",
"398 650 LINE SMOOTH",
"398 685 OFFCURVE",
"389 700 OFFCURVE",
"369 700 CURVE SMOOTH",
"94 700 LINE SMOOTH",
"68 700 OFFCURVE",
"57 688 OFFCURVE",
"57 660 CURVE SMOOTH",
"57 30 LINE SMOOTH",
"57 9 OFFCURVE",
"74 -2 OFFCURVE",
"115 -2 CURVE SMOOTH"
);
}
);
width = 423;
}
);
leftKerningGroup = H;
rightKerningGroup = F;
unicode = 0046;
userData = {
RMXScaler = {
source = F;
};
};
},
{
glyphname = G;
layers = (
{
anchors = (
{
name = bottom;
position = "{316, 0}";
},
{
name = top;
position = "{292, 700}";
}
);
layerId = "76F17502-367F-435E-B23E-ED9D928E777B";
paths = (
{
closed = 1;
nodes = (
"381 -6 OFFCURVE",
"484 10 OFFCURVE",
"484 66 CURVE SMOOTH",
"484 352 LINE SMOOTH",
"484 373 OFFCURVE",
"475 382 OFFCURVE",
"457 382 CURVE SMOOTH",
"309 382 LINE SMOOTH",
"295 382 OFFCURVE",
"289 373 OFFCURVE",
"289 352 CURVE SMOOTH",
"289 336 LINE SMOOTH",
"289 315 OFFCURVE",
"295 306 OFFCURVE",
"309 306 CURVE SMOOTH",
"394 306 LINE",
"394 49 LINE",
"410 90 LINE",
"389 78 OFFCURVE",
"352 70 OFFCURVE",
"305 70 CURVE SMOOTH",
"181 70 OFFCURVE",
"142 200 OFFCURVE",
"142 353 CURVE SMOOTH",
"142 525 OFFCURVE",
"187 627 OFFCURVE",
"312 627 CURVE SMOOTH",
"388 627 OFFCURVE",
"425 586 OFFCURVE",
"435 586 CURVE SMOOTH",
"449 586 OFFCURVE",
"471 627 OFFCURVE",
"471 644 CURVE SMOOTH",
"471 671 OFFCURVE",
"387 706 OFFCURVE",
"311 706 CURVE SMOOTH",
"140 706 OFFCURVE",
"49 593 OFFCURVE",
"49 344 CURVE SMOOTH",
"49 106 OFFCURVE",
"136 -6 OFFCURVE",
"302 -6 CURVE SMOOTH"
);
}
);
width = 552;
},
{
anchors = (
{
name = bottom;
position = "{312, 0}";
},
{
name = top;
position = "{298, 700}";
}
);
layerId = "6662946B-F990-402F-A6FD-22D24AB84B33";
paths = (
{
closed = 1;
nodes = (
"389 -8 OFFCURVE",
"502 23 OFFCURVE",
"502 72 CURVE SMOOTH",
"502 370 LINE SMOOTH",
"502 398 OFFCURVE",
"490 410 OFFCURVE",
"465 410 CURVE SMOOTH",
"300 410 LINE SMOOTH",
"280 410 OFFCURVE",
"271 395 OFFCURVE",
"271 360 CURVE SMOOTH",
"271 328 LINE SMOOTH",
"271 293 OFFCURVE",
"280 278 OFFCURVE",
"300 278 CURVE SMOOTH",
"351 278 LINE",
"351 79 LINE",
"392 145 LINE",
"358 132 OFFCURVE",
"339 128 OFFCURVE",
"310 128 CURVE SMOOTH",
"240 128 OFFCURVE",
"197 180 OFFCURVE",
"197 351 CURVE SMOOTH",
"197 503 OFFCURVE",
"235 573 OFFCURVE",
"321 573 CURVE SMOOTH",
"388 573 OFFCURVE",
"417 547 OFFCURVE",
"430 547 CURVE SMOOTH",
"455 547 OFFCURVE",
"493 610 OFFCURVE",
"493 637 CURVE SMOOTH",
"493 671 OFFCURVE",
"405 708 OFFCURVE",
"312 708 CURVE SMOOTH",
"123 708 OFFCURVE",
"37 590 OFFCURVE",
"37 352 CURVE SMOOTH",
"37 105 OFFCURVE",
"124 -8 OFFCURVE",
"310 -8 CURVE SMOOTH"
);
}
);
width = 552;
}
);
leftKerningGroup = O;
rightKerningGroup = G;
unicode = 0047;
userData = {
RMXScaler = {
source = G;
};
};
},
{
glyphname = H;
layers = (
{
anchors = (
{
name = bottom;
position = "{300, 0}";
},
{
name = center;
position = "{300, 533}";
},
{
name = top;
position = "{300, 700}";
}
);
layerId = "76F17502-367F-435E-B23E-ED9D928E777B";
paths = (
{
closed = 1;
nodes = (
"132 -2 LINE SMOOTH",
"158 -2 OFFCURVE",
"169 6 OFFCURVE",
"169 20 CURVE SMOOTH",
"169 321 LINE",
"432 321 LINE",
"432 20 LINE SMOOTH",
"432 6 OFFCURVE",
"443 -2 OFFCURVE",
"470 -2 CURVE SMOOTH",
"484 -2 LINE SMOOTH",
"511 -2 OFFCURVE",
"522 6 OFFCURVE",
"522 20 CURVE SMOOTH",
"522 680 LINE SMOOTH",
"522 694 OFFCURVE",
"511 702 OFFCURVE",
"484 702 CURVE SMOOTH",
"470 702 LINE SMOOTH",
"443 702 OFFCURVE",
"432 694 OFFCURVE",
"432 680 CURVE SMOOTH",
"432 397 LINE",
"169 397 LINE",
"169 680 LINE SMOOTH",
"169 694 OFFCURVE",
"158 702 OFFCURVE",
"132 702 CURVE SMOOTH",
"117 702 LINE SMOOTH",
"90 702 OFFCURVE",
"79 694 OFFCURVE",
"79 680 CURVE SMOOTH",
"79 20 LINE SMOOTH",
"79 6 OFFCURVE",
"90 -2 OFFCURVE",
"117 -2 CURVE SMOOTH"
);
}
);
width = 601;
},
{
anchors = (
{
name = bottom;
position = "{300, 0}";
},
{
name = center;
position = "{300, 543}";
},
{
name = top;
position = "{300, 700}";
}
);
layerId = "6662946B-F990-402F-A6FD-22D24AB84B33";
paths = (
{
closed = 1;
nodes = (
"158 -2 LINE SMOOTH",
"198 -2 OFFCURVE",
"215 9 OFFCURVE",
"215 30 CURVE SMOOTH",
"215 291 LINE",
"386 291 LINE",
"386 30 LINE SMOOTH",
"386 9 OFFCURVE",
"403 -2 OFFCURVE",
"444 -2 CURVE SMOOTH",
"485 -2 LINE SMOOTH",
"526 -2 OFFCURVE",
"543 9 OFFCURVE",
"543 30 CURVE SMOOTH",
"543 670 LINE SMOOTH",
"543 691 OFFCURVE",
"526 702 OFFCURVE",
"485 702 CURVE SMOOTH",
"444 702 LINE SMOOTH",
"403 702 OFFCURVE",
"386 691 OFFCURVE",
"386 670 CURVE SMOOTH",
"386 423 LINE",
"215 423 LINE",
"215 670 LINE SMOOTH",
"215 691 OFFCURVE",
"198 702 OFFCURVE",
"158 702 CURVE SMOOTH",
"116 702 LINE SMOOTH",
"75 702 OFFCURVE",
"58 691 OFFCURVE",
"58 670 CURVE SMOOTH",
"58 30 LINE SMOOTH",
"58 9 OFFCURVE",
"75 -2 OFFCURVE",
"116 -2 CURVE SMOOTH"
);
}
);
width = 601;
}
);
leftKerningGroup = H;
rightKerningGroup = H;
unicode = 0048;
userData = {
RMXScaler = {
source = H;
};
};
},
{
glyphname = I;
layers = (
{
anchors = (
{
name = bottom;
position = "{130, 0}";
},
{
name = ogonek;
position = "{158, 0}";
},
{
name = top;
position = "{131, 700}";
}
);
layerId = "76F17502-367F-435E-B23E-ED9D928E777B";
paths = (
{
closed = 1;
nodes = (
"139 -2 LINE SMOOTH",
"165 -2 OFFCURVE",
"176 6 OFFCURVE",
"176 20 CURVE SMOOTH",
"176 680 LINE SMOOTH",
"176 694 OFFCURVE",
"165 702 OFFCURVE",
"139 702 CURVE SMOOTH",
"124 702 LINE SMOOTH",
"97 702 OFFCURVE",
"86 694 OFFCURVE",
"86 680 CURVE SMOOTH",
"86 20 LINE SMOOTH",
"86 6 OFFCURVE",
"97 -2 OFFCURVE",
"124 -2 CURVE SMOOTH"
);
}
);
width = 262;
},
{
anchors = (
{
name = bottom;
position = "{131, 0}";
},
{
name = ogonek;
position = "{173, 0}";
},
{
name = top;
position = "{131, 700}";
}
);
layerId = "6662946B-F990-402F-A6FD-22D24AB84B33";
paths = (
{
closed = 1;
nodes = (
"152 -3 LINE SMOOTH",
"192 -3 OFFCURVE",
"209 9 OFFCURVE",
"209 30 CURVE SMOOTH",
"209 670 LINE SMOOTH",
"209 691 OFFCURVE",
"192 703 OFFCURVE",
"152 703 CURVE SMOOTH",
"110 703 LINE SMOOTH",
"69 703 OFFCURVE",
"52 691 OFFCURVE",
"52 670 CURVE SMOOTH",
"52 30 LINE SMOOTH",
"52 9 OFFCURVE",
"69 -3 OFFCURVE",
"110 -3 CURVE SMOOTH"
);
}
);
width = 262;
}
);
leftKerningGroup = H;
rightKerningGroup = H;
unicode = 0049;
userData = {
RMXScaler = {
source = I;
};
};
},
{
glyphname = J;
layers = (
{
anchors = (
{
name = top;
position = "{228, 700}";
}
);
layerId = "76F17502-367F-435E-B23E-ED9D928E777B";
paths = (
{
closed = 1;
nodes = (
"225 -6 OFFCURVE",
"275 79 OFFCURVE",
"275 205 CURVE SMOOTH",
"275 680 LINE SMOOTH",
"275 694 OFFCURVE",
"263 702 OFFCURVE",
"236 702 CURVE SMOOTH",
"222 702 LINE SMOOTH",
"196 702 OFFCURVE",
"184 694 OFFCURVE",
"184 680 CURVE SMOOTH",
"184 195 LINE SMOOTH",
"184 109 OFFCURVE",
"156 72 OFFCURVE",
"89 72 CURVE SMOOTH",
"63 72 OFFCURVE",
"40 81 OFFCURVE",
"32 81 CURVE SMOOTH",
"19 81 OFFCURVE",
"9 39 OFFCURVE",
"9 26 CURVE SMOOTH",
"9 4 OFFCURVE",
"63 -6 OFFCURVE",
"99 -6 CURVE SMOOTH"
);
}
);
width = 355;
},
{
anchors = (
{
name = top;
position = "{223, 700}";
}
);
layerId = "6662946B-F990-402F-A6FD-22D24AB84B33";
paths = (
{
closed = 1;
nodes = (
"248 -8 OFFCURVE",
"303 67 OFFCURVE",
"303 202 CURVE SMOOTH",
"303 670 LINE SMOOTH",
"303 691 OFFCURVE",
"285 703 OFFCURVE",
"245 703 CURVE SMOOTH",
"203 703 LINE SMOOTH",
"163 703 OFFCURVE",
"146 691 OFFCURVE",
"146 670 CURVE SMOOTH",
"146 227 LINE SMOOTH",
"146 156 OFFCURVE",
"134 125 OFFCURVE",
"97 125 CURVE SMOOTH",
"71 125 OFFCURVE",
"61 131 OFFCURVE",
"50 131 CURVE",
"27 130 OFFCURVE",
"8 73 OFFCURVE",
"8 38 CURVE SMOOTH",
"8 10 OFFCURVE",
"67 -8 OFFCURVE",
"122 -8 CURVE SMOOTH"
);
}
);
width = 355;
}
);
leftKerningGroup = J;
rightKerningGroup = J;
unicode = 004A;
userData = {
RMXScaler = {
source = J;
};
};
},
{
glyphname = K;
layers = (
{
anchors = (
{
name = bottom;
position = "{259, 0}";
},
{
name = top;
position = "{259, 700}";
}
);
layerId = "76F17502-367F-435E-B23E-ED9D928E777B";
paths = (
{
closed = 1;
nodes = (
"133 -2 LINE SMOOTH",
"160 -2 OFFCURVE",
"172 6 OFFCURVE",
"172 20 CURVE SMOOTH",
"172 337 LINE",
"175 337 LINE",
"394 11 LINE SMOOTH",
"403 -2 OFFCURVE",
"422 -2 OFFCURVE",
"442 -2 CURVE SMOOTH",
"463 -2 LINE SMOOTH",
"491 -2 OFFCURVE",
"503 1 OFFCURVE",
"503 12 CURVE SMOOTH",
"503 16 OFFCURVE",
"502 20 OFFCURVE",
"496 28 CURVE SMOOTH",
"262 357 LINE",
"477 669 LINE",
"483 677 OFFCURVE",
"486 684 OFFCURVE",
"486 689 CURVE SMOOTH",
"486 696 OFFCURVE",
"475 702 OFFCURVE",
"451 702 CURVE SMOOTH",
"434 702 LINE SMOOTH",
"414 702 OFFCURVE",
"395 700 OFFCURVE",
"387 688 CURVE SMOOTH",
"175 368 LINE",
"172 368 LINE",
"172 680 LINE SMOOTH",
"172 694 OFFCURVE",
"160 702 OFFCURVE",
"133 702 CURVE SMOOTH",
"120 702 LINE SMOOTH",
"93 702 OFFCURVE",
"82 694 OFFCURVE",
"82 680 CURVE SMOOTH",
"82 20 LINE SMOOTH",
"82 6 OFFCURVE",
"93 -2 OFFCURVE",
"120 -2 CURVE SMOOTH"
);
}
);
width = 510;
},
{
anchors = (
{
name = bottom;
position = "{262, 0}";
},
{
name = top;
position = "{272, 700}";
}
);
background = {
paths = (
{
closed = 1;
nodes = (
"388 702 LINE SMOOTH",
"361 702 OFFCURVE",
"343 699 OFFCURVE",
"337 683 CURVE SMOOTH",
"208 380 LINE",
"201 380 LINE",
"205 670 LINE SMOOTH",
"206 691 OFFCURVE",
"187 702 OFFCURVE",
"146 702 CURVE SMOOTH",
"106 702 LINE SMOOTH",
"65 702 OFFCURVE",
"48 691 OFFCURVE",
"48 670 CURVE SMOOTH",
"48 30 LINE SMOOTH",
"48 9 OFFCURVE",
"65 -2 OFFCURVE",
"106 -2 CURVE SMOOTH",
"146 -2 LINE SMOOTH",
"187 -2 OFFCURVE",
"205 9 OFFCURVE",
"205 30 CURVE SMOOTH",
"201 333 LINE",
"207 333 LINE",
"337 17 LINE SMOOTH",
"344 2 OFFCURVE",
"363 -2 OFFCURVE",
"391 -2 CURVE SMOOTH",
"449 -2 LINE SMOOTH",
"485 -2 OFFCURVE",
"501 4 OFFCURVE",
"501 13 CURVE",
"501 18 OFFCURVE",
"500 25 OFFCURVE",
"495 34 CURVE",
"339 363 LINE",
"492 666 LINE SMOOTH",
"496 675 OFFCURVE",
"498 682 OFFCURVE",
"498 687 CURVE",
"498 696 OFFCURVE",
"482 702 OFFCURVE",
"443 702 CURVE SMOOTH"
);
}
);
};
layerId = "6662946B-F990-402F-A6FD-22D24AB84B33";
paths = (
{
closed = 1;
nodes = (
"152 -2 LINE SMOOTH",
"193 -2 OFFCURVE",
"211 9 OFFCURVE",
"211 30 CURVE SMOOTH",
"211 330 LINE",
"214 331 LINE",
"350 17 LINE SMOOTH",
"357 2 OFFCURVE",
"376 -2 OFFCURVE",
"404 -2 CURVE SMOOTH",
"470 -2 LINE SMOOTH",
"506 -2 OFFCURVE",
"522 4 OFFCURVE",
"522 13 CURVE SMOOTH",
"522 18 OFFCURVE",
"521 25 OFFCURVE",
"516 34 CURVE SMOOTH",
"350 357 LINE",
"505 666 LINE",
"509 675 OFFCURVE",
"511 682 OFFCURVE",
"511 687 CURVE SMOOTH",
"511 696 OFFCURVE",
"495 702 OFFCURVE",
"456 702 CURVE SMOOTH",
"401 702 LINE SMOOTH",
"374 702 OFFCURVE",
"357 699 OFFCURVE",
"350 683 CURVE SMOOTH",
"215 371 LINE",
"211 372 LINE",
"211 670 LINE SMOOTH",
"211 691 OFFCURVE",
"193 702 OFFCURVE",
"152 702 CURVE SMOOTH",
"112 702 LINE SMOOTH",
"71 702 OFFCURVE",
"54 691 OFFCURVE",
"54 670 CURVE SMOOTH",
"54 30 LINE SMOOTH",
"54 9 OFFCURVE",
"71 -2 OFFCURVE",
"112 -2 CURVE SMOOTH"
);
}
);
width = 510;
}
);
leftKerningGroup = H;
rightKerningGroup = K;
unicode = 004B;
userData = {
RMXScaler = {
source = K;
};
};
},
{
glyphname = L;
layers = (
{
anchors = (
{
name = bottom;
position = "{248, 0}";
},
{
name = center;
position = "{321, 335}";
},
{
name = top;
position = "{125, 702}";
},
{
name = topright;
position = "{280, 700}";
}
);
layerId = "76F17502-367F-435E-B23E-ED9D928E777B";
paths = (
{
closed = 1;
nodes = (
"376 0 LINE SMOOTH",
"390 0 OFFCURVE",
"396 9 OFFCURVE",
"396 30 CURVE SMOOTH",
"396 46 LINE SMOOTH",
"396 67 OFFCURVE",
"390 76 OFFCURVE",
"376 76 CURVE SMOOTH",
"168 76 LINE",
"168 680 LINE SMOOTH",
"168 694 OFFCURVE",
"157 702 OFFCURVE",
"130 702 CURVE SMOOTH",
"116 702 LINE SMOOTH",
"89 702 OFFCURVE",
"78 694 OFFCURVE",
"78 680 CURVE SMOOTH",
"78 30 LINE SMOOTH",
"78 9 OFFCURVE",
"86 0 OFFCURVE",
"105 0 CURVE SMOOTH"
);
}
);
width = 408;
},
{
anchors = (
{
name = bottom;
position = "{225, 0}";
},
{
name = center;
position = "{339, 335}";
},
{
name = top;
position = "{137, 700}";
},
{
name = topright;
position = "{285, 700}";
}
);
layerId = "6662946B-F990-402F-A6FD-22D24AB84B33";
paths = (
{
closed = 1;
nodes = (
"362 0 LINE SMOOTH",
"383 0 OFFCURVE",
"392 15 OFFCURVE",
"392 50 CURVE SMOOTH",
"392 81 LINE SMOOTH",
"392 116 OFFCURVE",
"383 131 OFFCURVE",
"362 131 CURVE SMOOTH",
"213 131 LINE",
"213 670 LINE SMOOTH",
"213 691 OFFCURVE",
"196 702 OFFCURVE",
"155 702 CURVE SMOOTH",
"115 702 LINE SMOOTH",
"74 702 OFFCURVE",
"57 691 OFFCURVE",
"57 670 CURVE SMOOTH",
"57 40 LINE SMOOTH",
"57 12 OFFCURVE",
"68 0 OFFCURVE",
"94 0 CURVE SMOOTH"
);
}
);
width = 408;
}
);
leftKerningGroup = H;
rightKerningGroup = L;
unicode = 004C;
userData = {
RMXScaler = {
source = L;
};
};
},
{
glyphname = LJ;
layers = (
{
layerId = "76F17502-367F-435E-B23E-ED9D928E777B";
paths = (
{
closed = 1;
nodes = (
"527 -157 OFFCURVE",
"577 -72 OFFCURVE",
"577 54 CURVE SMOOTH",
"577 680 LINE SMOOTH",
"577 694 OFFCURVE",
"565 702 OFFCURVE",
"538 702 CURVE SMOOTH",
"524 702 LINE SMOOTH",
"498 702 OFFCURVE",
"486 694 OFFCURVE",
"486 680 CURVE SMOOTH",
"486 44 LINE SMOOTH",
"486 -42 OFFCURVE",
"458 -79 OFFCURVE",
"391 -79 CURVE SMOOTH",
"365 -79 OFFCURVE",
"342 -70 OFFCURVE",
"334 -70 CURVE SMOOTH",
"321 -70 OFFCURVE",
"311 -111 OFFCURVE",
"311 -125 CURVE SMOOTH",
"311 -146 OFFCURVE",
"365 -157 OFFCURVE",
"401 -157 CURVE SMOOTH"
);
},
{
closed = 1;
nodes = (
"344 0 LINE SMOOTH",
"358 0 OFFCURVE",
"364 9 OFFCURVE",
"364 30 CURVE SMOOTH",
"364 46 LINE SMOOTH",
"364 67 OFFCURVE",
"358 76 OFFCURVE",
"344 76 CURVE SMOOTH",
"168 76 LINE",
"168 680 LINE SMOOTH",
"168 694 OFFCURVE",
"157 702 OFFCURVE",
"130 702 CURVE SMOOTH",
"116 702 LINE SMOOTH",
"89 702 OFFCURVE",
"78 694 OFFCURVE",
"78 680 CURVE SMOOTH",
"78 30 LINE SMOOTH",
"78 9 OFFCURVE",
"86 0 OFFCURVE",
"105 0 CURVE SMOOTH"
);
}
);
width = 645;
},
{
layerId = "6662946B-F990-402F-A6FD-22D24AB84B33";
paths = (
{
closed = 1;
nodes = (
"548 -181 OFFCURVE",
"603 -100 OFFCURVE",
"603 35 CURVE SMOOTH",
"603 670 LINE SMOOTH",
"603 691 OFFCURVE",
"585 703 OFFCURVE",
"545 703 CURVE SMOOTH",
"503 703 LINE SMOOTH",
"463 703 OFFCURVE",
"446 691 OFFCURVE",
"446 670 CURVE SMOOTH",
"446 54 LINE SMOOTH",
"446 -17 OFFCURVE",
"434 -48 OFFCURVE",
"397 -48 CURVE SMOOTH",
"371 -48 OFFCURVE",
"361 -42 OFFCURVE",
"350 -42 CURVE",
"327 -43 OFFCURVE",
"308 -100 OFFCURVE",
"308 -135 CURVE SMOOTH",
"308 -163 OFFCURVE",
"367 -181 OFFCURVE",
"422 -181 CURVE SMOOTH"
);
},
{
closed = 1;
nodes = (
"331 0 LINE SMOOTH",
"352 0 OFFCURVE",
"361 15 OFFCURVE",
"361 50 CURVE SMOOTH",
"361 81 LINE SMOOTH",
"361 116 OFFCURVE",
"352 131 OFFCURVE",
"331 131 CURVE SMOOTH",
"213 131 LINE",
"213 670 LINE SMOOTH",
"213 691 OFFCURVE",
"196 702 OFFCURVE",
"155 702 CURVE SMOOTH",
"115 702 LINE SMOOTH",
"74 702 OFFCURVE",
"57 691 OFFCURVE",
"57 670 CURVE SMOOTH",
"57 40 LINE SMOOTH",
"57 12 OFFCURVE",
"68 0 OFFCURVE",
"94 0 CURVE SMOOTH"
);
}
);
width = 645;
}
);
leftKerningGroup = H;
leftMetricsKey = L;
rightKerningGroup = J;
unicode = 01C7;
userData = {
RMXScaler = {
source = LJ;
};
};
},
{
glyphname = Lslash;
layers = (
{
components = (
{
name = L;
}
);
layerId = "76F17502-367F-435E-B23E-ED9D928E777B";
paths = (
{
closed = 1;
nodes = (
"25 254 OFFCURVE",
"29 256 OFFCURVE",
"33 258 CURVE",
"260 393 LINE",
"272 400 OFFCURVE",
"279 409 OFFCURVE",
"279 423 CURVE SMOOTH",
"279 429 LINE SMOOTH",
"279 438 OFFCURVE",
"275 443 OFFCURVE",
"270 443 CURVE SMOOTH",
"267 443 OFFCURVE",
"264 441 OFFCURVE",
"260 439 CURVE",
"33 304 LINE",
"21 297 OFFCURVE",
"14 288 OFFCURVE",
"14 274 CURVE SMOOTH",
"14 268 LINE SMOOTH",
"14 259 OFFCURVE",
"18 254 OFFCURVE",
"23 254 CURVE SMOOTH"
);
}
);
width = 408;
},
{
background = {
paths = (
{
closed = 1;
nodes = (
"271 435 LINE",
"289 446 OFFCURVE",
"297 460 OFFCURVE",
"297 481 CURVE SMOOTH",
"297 501 LINE SMOOTH",
"297 514 OFFCURVE",
"293 521 OFFCURVE",
"286 521 CURVE SMOOTH",
"282 521 OFFCURVE",
"277 519 OFFCURVE",
"271 515 CURVE",
"32 369 LINE",
"14 358 OFFCURVE",
"6 346 OFFCURVE",
"6 324 CURVE SMOOTH",
"6 304 LINE SMOOTH",
"6 290 OFFCURVE",
"9 284 OFFCURVE",
"17 284 CURVE SMOOTH",
"21 284 OFFCURVE",
"26 285 OFFCURVE",
"32 289 CURVE"
);
}
);
};
components = (
{
name = L;
}
);
layerId = "6662946B-F990-402F-A6FD-22D24AB84B33";
paths = (
{
closed = 1;
nodes = (
"21 224 OFFCURVE",
"26 225 OFFCURVE",
"32 229 CURVE",
"303 395 LINE",
"321 406 OFFCURVE",
"329 420 OFFCURVE",
"329 441 CURVE SMOOTH",
"329 461 LINE SMOOTH",
"329 474 OFFCURVE",
"325 481 OFFCURVE",
"318 481 CURVE SMOOTH",
"314 481 OFFCURVE",
"309 479 OFFCURVE",
"303 475 CURVE",
"32 309 LINE",
"14 298 OFFCURVE",
"6 286 OFFCURVE",
"6 264 CURVE SMOOTH",
"6 244 LINE SMOOTH",
"6 230 OFFCURVE",
"9 224 OFFCURVE",
"17 224 CURVE SMOOTH"
);
}
);
width = 408;
}
);
leftKerningGroup = H;
rightKerningGroup = L;
unicode = 0141;
userData = {
RMXScaler = {
source = Lslash;
};
};
},
{
glyphname = M;
layers = (
{
layerId = "76F17502-367F-435E-B23E-ED9D928E777B";
paths = (
{
closed = 1;
nodes = (
"363 239 LINE SMOOTH",
"374 239 OFFCURVE",
"381 243 OFFCURVE",
"385 252 CURVE SMOOTH",
"502 482 LINE SMOOTH",
"513 504 OFFCURVE",
"523 528 OFFCURVE",
"532 551 CURVE",
"536 549 LINE",
"533 525 OFFCURVE",
"531 502 OFFCURVE",
"531 478 CURVE SMOOTH",
"531 20 LINE SMOOTH",
"531 6 OFFCURVE",
"542 -2 OFFCURVE",
"569 -2 CURVE SMOOTH",
"581 -2 LINE SMOOTH",
"608 -2 OFFCURVE",
"619 6 OFFCURVE",
"619 20 CURVE SMOOTH",
"619 680 LINE SMOOTH",
"619 694 OFFCURVE",
"608 702 OFFCURVE",
"581 702 CURVE SMOOTH",
"560 702 LINE SMOOTH",
"540 702 OFFCURVE",
"528 696 OFFCURVE",
"522 684 CURVE SMOOTH",
"362 371 LINE SMOOTH",
"354 355 OFFCURVE",
"349 339 OFFCURVE",
"346 323 CURVE",
"343 339 OFFCURVE",
"338 355 OFFCURVE",
"330 371 CURVE SMOOTH",
"170 684 LINE SMOOTH",
"164 696 OFFCURVE",
"152 702 OFFCURVE",
"132 702 CURVE SMOOTH",
"111 702 LINE SMOOTH",
"84 702 OFFCURVE",
"73 694 OFFCURVE",
"73 680 CURVE SMOOTH",
"73 20 LINE SMOOTH",
"73 6 OFFCURVE",
"84 -2 OFFCURVE",
"111 -2 CURVE SMOOTH",
"123 -2 LINE SMOOTH",
"150 -2 OFFCURVE",
"161 6 OFFCURVE",
"161 20 CURVE SMOOTH",
"161 478 LINE SMOOTH",
"161 502 OFFCURVE",
"159 525 OFFCURVE",
"156 549 CURVE",
"160 551 LINE",
"169 528 OFFCURVE",
"179 504 OFFCURVE",
"190 482 CURVE SMOOTH",
"307 252 LINE SMOOTH",
"311 243 OFFCURVE",
"318 239 OFFCURVE",
"329 239 CURVE SMOOTH"
);
}
);
width = 689;
},
{
layerId = "6662946B-F990-402F-A6FD-22D24AB84B33";
paths = (
{
closed = 1;
nodes = (
"352 223 LINE SMOOTH",
"373 223 OFFCURVE",
"383 230 OFFCURVE",
"392 247 CURVE SMOOTH",
"466 385 LINE SMOOTH",
"474 400 OFFCURVE",
"482 416 OFFCURVE",
"488 432 CURVE",
"492 431 LINE",
"488 413 OFFCURVE",
"485 394 OFFCURVE",
"485 376 CURVE SMOOTH",
"485 30 LINE SMOOTH",
"485 8 OFFCURVE",
"502 -2 OFFCURVE",
"543 -2 CURVE SMOOTH",
"577 -2 LINE SMOOTH",
"618 -2 OFFCURVE",
"635 8 OFFCURVE",
"635 30 CURVE SMOOTH",
"635 670 LINE SMOOTH",
"635 692 OFFCURVE",
"618 702 OFFCURVE",
"577 702 CURVE SMOOTH",
"546 702 LINE SMOOTH",
"514 702 OFFCURVE",
"497 694 OFFCURVE",
"486 674 CURVE SMOOTH",
"362 439 LINE SMOOTH",
"354 424 OFFCURVE",
"348 407 OFFCURVE",
"344 391 CURVE",
"339 407 OFFCURVE",
"333 424 OFFCURVE",
"325 439 CURVE SMOOTH",
"201 674 LINE SMOOTH",
"190 694 OFFCURVE",
"173 702 OFFCURVE",
"141 702 CURVE SMOOTH",
"110 702 LINE SMOOTH",
"69 702 OFFCURVE",
"52 692 OFFCURVE",
"52 670 CURVE SMOOTH",
"52 30 LINE SMOOTH",
"52 8 OFFCURVE",
"69 -2 OFFCURVE",
"110 -2 CURVE SMOOTH",
"144 -2 LINE SMOOTH",
"185 -2 OFFCURVE",
"202 8 OFFCURVE",
"202 30 CURVE SMOOTH",
"202 376 LINE SMOOTH",
"202 394 OFFCURVE",
"199 413 OFFCURVE",
"196 431 CURVE",
"200 432 LINE",
"207 416 OFFCURVE",
"213 400 OFFCURVE",
"221 385 CURVE SMOOTH",
"295 247 LINE SMOOTH",
"304 230 OFFCURVE",
"314 223 OFFCURVE",
"335 223 CURVE SMOOTH"
);
}
);
width = 689;
}
);
leftKerningGroup = H;
rightKerningGroup = H;
unicode = 004D;
userData = {
RMXScaler = {
source = M;
};
};
},
{
glyphname = N;
layers = (
{
anchors = (
{
name = bottom;
position = "{295, 0}";
},
{
name = top;
position = "{295, 700}";
}
);
layerId = "76F17502-367F-435E-B23E-ED9D928E777B";
paths = (
{
closed = 1;
nodes = (
"123 -2 LINE SMOOTH",
"150 -2 OFFCURVE",
"161 6 OFFCURVE",
"161 20 CURVE SMOOTH",
"161 470 LINE SMOOTH",
"161 492 OFFCURVE",
"158 514 OFFCURVE",
"153 536 CURVE",
"158 538 LINE",
"165 517 OFFCURVE",
"173 496 OFFCURVE",
"184 475 CURVE SMOOTH",
"422 13 LINE SMOOTH",
"427 3 OFFCURVE",
"439 -2 OFFCURVE",
"458 -2 CURVE SMOOTH",
"479 -2 LINE SMOOTH",
"505 -2 OFFCURVE",
"517 6 OFFCURVE",
"517 20 CURVE SMOOTH",
"517 680 LINE SMOOTH",
"517 694 OFFCURVE",
"505 702 OFFCURVE",
"479 702 CURVE SMOOTH",
"467 702 LINE SMOOTH",
"440 702 OFFCURVE",
"429 694 OFFCURVE",
"429 680 CURVE SMOOTH",
"429 240 LINE SMOOTH",
"429 218 OFFCURVE",
"432 196 OFFCURVE",
"437 174 CURVE",
"432 172 LINE",
"425 193 OFFCURVE",
"417 214 OFFCURVE",
"406 235 CURVE SMOOTH",
"174 682 LINE SMOOTH",
"166 697 OFFCURVE",
"154 702 OFFCURVE",
"135 702 CURVE SMOOTH",
"111 702 LINE SMOOTH",
"84 702 OFFCURVE",
"73 694 OFFCURVE",
"73 680 CURVE SMOOTH",
"73 20 LINE SMOOTH",
"73 6 OFFCURVE",
"84 -2 OFFCURVE",
"111 -2 CURVE SMOOTH"
);
}
);
width = 590;
},
{
anchors = (
{
name = bottom;
position = "{295, 0}";
},
{
name = top;
position = "{295, 700}";
}
);
layerId = "6662946B-F990-402F-A6FD-22D24AB84B33";
paths = (
{
closed = 1;
nodes = (
"134 -2 LINE SMOOTH",
"175 -2 OFFCURVE",
"192 9 OFFCURVE",
"192 30 CURVE SMOOTH",
"192 359 LINE SMOOTH",
"192 382 OFFCURVE",
"188 404 OFFCURVE",
"184 427 CURVE",
"189 430 LINE",
"197 409 OFFCURVE",
"205 386 OFFCURVE",
"216 366 CURVE SMOOTH",
"407 26 LINE SMOOTH",
"418 2 OFFCURVE",
"437 -2 OFFCURVE",
"461 -2 CURVE SMOOTH",
"480 -2 LINE SMOOTH",
"520 -2 OFFCURVE",
"538 9 OFFCURVE",
"538 30 CURVE SMOOTH",
"538 670 LINE SMOOTH",
"538 691 OFFCURVE",
"520 702 OFFCURVE",
"480 702 CURVE SMOOTH",
"456 702 LINE SMOOTH",
"415 702 OFFCURVE",
"398 691 OFFCURVE",
"398 670 CURVE SMOOTH",
"398 351 LINE SMOOTH",
"398 325 OFFCURVE",
"402 298 OFFCURVE",
"406 272 CURVE",
"402 270 LINE",
"392 296 OFFCURVE",
"382 322 OFFCURVE",
"368 348 CURVE SMOOTH",
"188 674 LINE SMOOTH",
"177 699 OFFCURVE",
"158 702 OFFCURVE",
"136 702 CURVE SMOOTH",
"110 702 LINE SMOOTH",
"69 702 OFFCURVE",
"52 691 OFFCURVE",
"52 670 CURVE SMOOTH",
"52 30 LINE SMOOTH",
"52 9 OFFCURVE",
"69 -2 OFFCURVE",
"110 -2 CURVE SMOOTH"
);
}
);
width = 590;
}
);
leftKerningGroup = H;
rightKerningGroup = H;
unicode = 004E;
userData = {
RMXScaler = {
source = N;
};
};
},
{
glyphname = Eng;
layers = (
{
background = {
anchors = (
{
name = bottom;
position = "{288, 0}";
},
{
name = top;
position = "{288, 700}";
}
);
paths = (
{
closed = 1;
nodes = (
"116 -2 LINE SMOOTH",
"143 -2 OFFCURVE",
"154 6 OFFCURVE",
"154 20 CURVE SMOOTH",
"154 470 LINE SMOOTH",
"154 492 OFFCURVE",
"151 514 OFFCURVE",
"146 536 CURVE",
"151 538 LINE",
"158 517 OFFCURVE",
"166 496 OFFCURVE",
"177 475 CURVE SMOOTH",
"432 -21 LINE",
"510 20 LINE",
"510 680 LINE SMOOTH",
"510 694 OFFCURVE",
"498 702 OFFCURVE",
"472 702 CURVE SMOOTH",
"460 702 LINE SMOOTH",
"433 702 OFFCURVE",
"422 694 OFFCURVE",
"422 680 CURVE SMOOTH",
"422 240 LINE SMOOTH",
"422 218 OFFCURVE",
"425 196 OFFCURVE",
"430 174 CURVE",
"425 172 LINE",
"418 193 OFFCURVE",
"410 214 OFFCURVE",
"399 235 CURVE SMOOTH",
"167 682 LINE SMOOTH",
"159 697 OFFCURVE",
"147 702 OFFCURVE",
"128 702 CURVE SMOOTH",
"104 702 LINE SMOOTH",
"77 702 OFFCURVE",
"66 694 OFFCURVE",
"66 680 CURVE SMOOTH",
"66 20 LINE SMOOTH",
"66 6 OFFCURVE",
"77 -2 OFFCURVE",
"104 -2 CURVE SMOOTH"
);
}
);
};
layerId = "76F17502-367F-435E-B23E-ED9D928E777B";
paths = (
{
closed = 1;
nodes = (
"450 -212 OFFCURVE",
"517 -191 OFFCURVE",
"517 -80 CURVE SMOOTH",
"517 680 LINE SMOOTH",
"517 694 OFFCURVE",
"505 702 OFFCURVE",
"479 702 CURVE SMOOTH",
"467 702 LINE SMOOTH",
"440 702 OFFCURVE",
"429 694 OFFCURVE",
"429 680 CURVE SMOOTH",
"429 240 LINE SMOOTH",
"429 218 OFFCURVE",
"432 196 OFFCURVE",
"437 174 CURVE",
"432 172 LINE",
"425 193 OFFCURVE",
"417 214 OFFCURVE",
"406 235 CURVE SMOOTH",
"174 682 LINE SMOOTH",
"166 697 OFFCURVE",
"154 702 OFFCURVE",
"135 702 CURVE SMOOTH",
"111 702 LINE SMOOTH",
"84 702 OFFCURVE",
"73 694 OFFCURVE",
"73 680 CURVE SMOOTH",
"73 20 LINE SMOOTH",
"73 6 OFFCURVE",
"84 -2 OFFCURVE",
"111 -2 CURVE SMOOTH",
"123 -2 LINE SMOOTH",
"150 -2 OFFCURVE",
"161 6 OFFCURVE",
"161 20 CURVE SMOOTH",
"161 470 LINE SMOOTH",
"161 492 OFFCURVE",
"158 514 OFFCURVE",
"153 536 CURVE",
"158 538 LINE",
"165 517 OFFCURVE",
"173 496 OFFCURVE",
"184 475 CURVE SMOOTH",
"433 -9 LINE",
"433 -72 LINE SMOOTH",
"433 -127 OFFCURVE",
"415 -140 OFFCURVE",
"395 -140 CURVE SMOOTH",
"371 -140 OFFCURVE",
"366 -135 OFFCURVE",
"359 -135 CURVE SMOOTH",
"345 -135 OFFCURVE",
"338 -174 OFFCURVE",
"338 -182 CURVE SMOOTH",
"338 -209 OFFCURVE",
"382 -212 OFFCURVE",
"408 -212 CURVE SMOOTH"
);
}
);
width = 590;
},
{
background = {
anchors = (
{
name = bottom;
position = "{288, 0}";
},
{
name = top;
position = "{288, 700}";
}
);
paths = (
{
closed = 1;
nodes = (
"395 270 LINE",
"385 296 OFFCURVE",
"375 322 OFFCURVE",
"361 348 CURVE SMOOTH",
"181 674 LINE SMOOTH",
"170 699 OFFCURVE",
"151 702 OFFCURVE",
"129 702 CURVE SMOOTH",
"103 702 LINE SMOOTH",
"62 702 OFFCURVE",
"45 691 OFFCURVE",
"45 670 CURVE SMOOTH",
"45 30 LINE SMOOTH",
"45 9 OFFCURVE",
"62 -2 OFFCURVE",
"103 -2 CURVE SMOOTH",
"127 -2 LINE SMOOTH",
"168 -2 OFFCURVE",
"185 9 OFFCURVE",
"185 30 CURVE SMOOTH",
"185 359 LINE SMOOTH",
"185 382 OFFCURVE",
"181 404 OFFCURVE",
"177 427 CURVE",
"182 430 LINE",
"190 409 OFFCURVE",
"198 386 OFFCURVE",
"209 366 CURVE SMOOTH",
"400 26 LINE",
"531 30 LINE",
"531 670 LINE SMOOTH",
"531 691 OFFCURVE",
"513 702 OFFCURVE",
"473 702 CURVE SMOOTH",
"449 702 LINE SMOOTH",
"408 702 OFFCURVE",
"391 691 OFFCURVE",
"391 670 CURVE SMOOTH",
"391 351 LINE SMOOTH",
"391 325 OFFCURVE",
"395 298 OFFCURVE",
"399 272 CURVE"
);
}
);
};
layerId = "6662946B-F990-402F-A6FD-22D24AB84B33";
paths = (
{
closed = 1;
nodes = (
"480 -212 OFFCURVE",
"538 -159 OFFCURVE",
"538 -50 CURVE SMOOTH",
"538 670 LINE SMOOTH",
"538 691 OFFCURVE",
"520 702 OFFCURVE",
"480 702 CURVE SMOOTH",
"456 702 LINE SMOOTH",
"415 702 OFFCURVE",
"398 691 OFFCURVE",
"398 670 CURVE SMOOTH",
"398 351 LINE SMOOTH",
"398 325 OFFCURVE",
"402 298 OFFCURVE",
"406 272 CURVE",
"402 270 LINE",
"392 296 OFFCURVE",
"382 322 OFFCURVE",
"368 348 CURVE SMOOTH",
"188 674 LINE",
"177 699 OFFCURVE",
"158 702 OFFCURVE",
"136 702 CURVE SMOOTH",
"110 702 LINE SMOOTH",
"69 702 OFFCURVE",
"52 691 OFFCURVE",
"52 670 CURVE SMOOTH",
"52 30 LINE SMOOTH",
"52 9 OFFCURVE",
"69 -2 OFFCURVE",
"110 -2 CURVE SMOOTH",
"134 -2 LINE SMOOTH",
"175 -2 OFFCURVE",
"192 9 OFFCURVE",
"192 30 CURVE SMOOTH",
"192 359 LINE SMOOTH",
"192 382 OFFCURVE",
"188 404 OFFCURVE",
"184 427 CURVE",
"189 430 LINE",
"197 409 OFFCURVE",
"205 386 OFFCURVE",
"216 366 CURVE SMOOTH",
"398 42 LINE",
"398 -52 LINE SMOOTH",
"398 -82 OFFCURVE",
"390 -95 OFFCURVE",
"366 -95 CURVE SMOOTH",
"355 -95 OFFCURVE",
"342 -91 OFFCURVE",
"336 -91 CURVE SMOOTH",
"315 -91 OFFCURVE",
"305 -138 OFFCURVE",
"305 -161 CURVE SMOOTH",
"305 -200 OFFCURVE",
"341 -212 OFFCURVE",
"404 -212 CURVE SMOOTH"
);
}
);
width = 590;
}
);
leftKerningGroup = H;
leftMetricsKey = N;
rightKerningGroup = H;
rightMetricsKey = N;
unicode = 014A;
userData = {
RMXScaler = {
source = Eng;
};
};
},
{
glyphname = Nhookleft;
layers = (
{
layerId = "76F17502-367F-435E-B23E-ED9D928E777B";
paths = (
{
closed = 1;
nodes = (
"118 -212 OFFCURVE",
"161 -127 OFFCURVE",
"161 -1 CURVE SMOOTH",
"161 470 LINE SMOOTH",
"161 492 OFFCURVE",
"158 514 OFFCURVE",
"153 536 CURVE",
"158 538 LINE",
"165 517 OFFCURVE",
"173 496 OFFCURVE",
"184 475 CURVE SMOOTH",
"422 13 LINE SMOOTH",
"427 3 OFFCURVE",
"439 -2 OFFCURVE",
"458 -2 CURVE SMOOTH",
"479 -2 LINE SMOOTH",
"505 -2 OFFCURVE",
"517 6 OFFCURVE",
"517 20 CURVE SMOOTH",
"517 680 LINE SMOOTH",
"517 694 OFFCURVE",
"505 702 OFFCURVE",
"479 702 CURVE SMOOTH",
"467 702 LINE SMOOTH",
"440 702 OFFCURVE",
"429 694 OFFCURVE",
"429 680 CURVE SMOOTH",
"429 240 LINE SMOOTH",
"429 218 OFFCURVE",
"432 196 OFFCURVE",
"437 174 CURVE",
"432 172 LINE",
"425 193 OFFCURVE",
"417 214 OFFCURVE",
"406 235 CURVE SMOOTH",
"174 682 LINE SMOOTH",
"166 697 OFFCURVE",
"154 702 OFFCURVE",
"135 702 CURVE SMOOTH",
"111 702 LINE SMOOTH",
"84 702 OFFCURVE",
"73 694 OFFCURVE",
"73 680 CURVE SMOOTH",
"73 -11 LINE SMOOTH",
"73 -97 OFFCURVE",
"51 -134 OFFCURVE",
"-2 -134 CURVE SMOOTH",
"-26 -134 OFFCURVE",
"-46 -125 OFFCURVE",
"-54 -125 CURVE SMOOTH",
"-67 -125 OFFCURVE",
"-77 -167 OFFCURVE",
"-77 -180 CURVE SMOOTH",
"-77 -202 OFFCURVE",
"-26 -212 OFFCURVE",
"8 -212 CURVE SMOOTH"
);
}
);
width = 590;
},
{
layerId = "6662946B-F990-402F-A6FD-22D24AB84B33";
paths = (
{
closed = 1;
nodes = (
"142 -212 OFFCURVE",
"192 -137 OFFCURVE",
"192 -2 CURVE SMOOTH",
"192 359 LINE SMOOTH",
"192 382 OFFCURVE",
"188 404 OFFCURVE",
"184 427 CURVE",
"189 430 LINE",
"197 409 OFFCURVE",
"205 386 OFFCURVE",
"216 366 CURVE SMOOTH",
"407 26 LINE",
"418 2 OFFCURVE",
"437 -2 OFFCURVE",
"461 -2 CURVE SMOOTH",
"480 -2 LINE SMOOTH",
"520 -2 OFFCURVE",
"538 9 OFFCURVE",
"538 30 CURVE SMOOTH",
"538 670 LINE SMOOTH",
"538 691 OFFCURVE",
"520 702 OFFCURVE",
"480 702 CURVE SMOOTH",
"456 702 LINE SMOOTH",
"415 702 OFFCURVE",
"398 691 OFFCURVE",
"398 670 CURVE SMOOTH",
"398 351 LINE SMOOTH",
"398 325 OFFCURVE",
"402 298 OFFCURVE",
"406 272 CURVE",
"402 270 LINE",
"392 296 OFFCURVE",
"382 322 OFFCURVE",
"368 348 CURVE SMOOTH",
"188 674 LINE",
"177 699 OFFCURVE",
"158 702 OFFCURVE",
"136 702 CURVE SMOOTH",
"110 702 LINE SMOOTH",
"69 702 OFFCURVE",
"52 691 OFFCURVE",
"52 670 CURVE SMOOTH",
"52 23 LINE SMOOTH",
"52 -48 OFFCURVE",
"41 -79 OFFCURVE",
"8 -79 CURVE SMOOTH",
"-18 -79 OFFCURVE",
"-28 -73 OFFCURVE",
"-39 -73 CURVE",
"-62 -74 OFFCURVE",
"-81 -131 OFFCURVE",
"-81 -166 CURVE SMOOTH",
"-81 -194 OFFCURVE",
"-22 -212 OFFCURVE",
"28 -212 CURVE SMOOTH"
);
}
);
width = 590;
}
);
leftKerningGroup = H;
rightKerningGroup = H;
unicode = 019D;
},
{
glyphname = O;
layers = (
{
anchors = (
{
name = bottom;
position = "{300, 0}";
},
{
name = horn;
position = "{440, 657}";
},
{
name = ogonek;
position = "{356, 0}";
},
{
name = top;
position = "{300, 700}";
}
);
layerId = "76F17502-367F-435E-B23E-ED9D928E777B";
paths = (
{
closed = 1;
nodes = (
"461 -6 OFFCURVE",
"550 109 OFFCURVE",
"550 352 CURVE SMOOTH",
"550 595 OFFCURVE",
"461 706 OFFCURVE",
"299 706 CURVE SMOOTH",
"138 706 OFFCURVE",
"49 595 OFFCURVE",
"49 352 CURVE SMOOTH",
"49 109 OFFCURVE",
"138 -6 OFFCURVE",
"299 -6 CURVE SMOOTH"
);
},
{
closed = 1;
nodes = (
"197 70 OFFCURVE",
"142 159 OFFCURVE",
"142 352 CURVE SMOOTH",
"142 545 OFFCURVE",
"197 630 OFFCURVE",
"300 630 CURVE SMOOTH",
"402 630 OFFCURVE",
"458 545 OFFCURVE",
"458 352 CURVE SMOOTH",
"458 159 OFFCURVE",
"402 70 OFFCURVE",
"300 70 CURVE SMOOTH"
);
}
);
width = 599;
},
{
anchors = (
{
name = bottom;
position = "{300, 0}";
},
{
name = horn;
position = "{447, 651}";
},
{
name = ogonek;
position = "{346, 0}";
},
{
name = top;
position = "{300, 700}";
}
);
layerId = "6662946B-F990-402F-A6FD-22D24AB84B33";
paths = (
{
closed = 1;
nodes = (
"467 -8 OFFCURVE",
"561 100 OFFCURVE",
"561 350 CURVE SMOOTH",
"561 600 OFFCURVE",
"467 708 OFFCURVE",
"300 708 CURVE SMOOTH",
"134 708 OFFCURVE",
"38 601 OFFCURVE",
"38 350 CURVE SMOOTH",
"38 99 OFFCURVE",
"134 -8 OFFCURVE",
"300 -8 CURVE SMOOTH"
);
},
{
closed = 1;
nodes = (
"232 123 OFFCURVE",
"197 172 OFFCURVE",
"197 350 CURVE SMOOTH",
"197 528 OFFCURVE",
"232 576 OFFCURVE",
"301 576 CURVE SMOOTH",
"369 576 OFFCURVE",
"403 528 OFFCURVE",
"403 350 CURVE SMOOTH",
"403 172 OFFCURVE",
"369 123 OFFCURVE",
"301 123 CURVE SMOOTH"
);
}
);
width = 599;
}
);
leftKerningGroup = O;
rightKerningGroup = O;
unicode = 004F;
userData = {
RMXScaler = {
source = O;
};
};
},
{
glyphname = Ocircumflexacute;
layers = (
{
background = {
paths = (
{
closed = 1;
nodes = (
"407 849 OFFCURVE",
"417 855 OFFCURVE",
"426 867 CURVE SMOOTH",
"487 955 OFFCURVE",
"494 963 OFFCURVE",
"494 973 CURVE SMOOTH",
"494 983 OFFCURVE",
"485 986 OFFCURVE",
"463 986 CURVE SMOOTH",
"439 986 OFFCURVE",
"418 979 OFFCURVE",
"409 960 CURVE SMOOTH",
"375 887 OFFCURVE",
"367 868 OFFCURVE",
"367 859 CURVE SMOOTH",
"367 852 OFFCURVE",
"374 849 OFFCURVE",
"390 849 CURVE SMOOTH"
);
},
{
closed = 1;
nodes = (
"227 753 LINE",
"238 753 OFFCURVE",
"247 754 OFFCURVE",
"253 766 CURVE",
"292 840 LINE",
"331 766 LINE SMOOTH",
"337 757 OFFCURVE",
"347 753 OFFCURVE",
"357 753 CURVE",
"376 753 LINE",
"388 753 OFFCURVE",
"396 759 OFFCURVE",
"396 768 CURVE SMOOTH",
"396 773 OFFCURVE",
"392 779 OFFCURVE",
"389 785 CURVE SMOOTH",
"341 873 LINE SMOOTH",
"333 888 OFFCURVE",
"320 895 OFFCURVE",
"300 895 CURVE SMOOTH",
"284 895 LINE SMOOTH",
"266 895 OFFCURVE",
"251 888 OFFCURVE",
"243 873 CURVE SMOOTH",
"195 785 LINE SMOOTH",
"192 779 OFFCURVE",
"190 771 OFFCURVE",
"190 766 CURVE SMOOTH",
"190 759 OFFCURVE",
"196 753 OFFCURVE",
"209 753 CURVE"
);
}
);
};
components = (
{
name = O;
},
{
name = circumflexcomb.case;
transform = "{1, 0, 0, 1, 185, 177}";
},
{
name = acutecomb.case;
transform = "{1, 0, 0, 1, 244, 314}";
}
);
layerId = "76F17502-367F-435E-B23E-ED9D928E777B";
width = 599;
},
{
background = {
anchors = (
{
name = _top;
position = "{417, 834}";
},
{
name = tilde;
position = "{294, 953}";
},
{
name = top;
position = "{417, 834}";
}
);
components = (
{
name = O;
}
);
paths = (
{
closed = 1;
nodes = (
"432 853 OFFCURVE",
"444 860 OFFCURVE",
"452 868 CURVE SMOOTH",
"513 942 OFFCURVE",
"526 958 OFFCURVE",
"526 968 CURVE SMOOTH",
"526 987 OFFCURVE",
"512 992 OFFCURVE",
"486 992 CURVE SMOOTH",
"451 992 OFFCURVE",
"422 986 OFFCURVE",
"411 965 CURVE SMOOTH",
"386 898 OFFCURVE",
"376 877 OFFCURVE",
"376 868 CURVE SMOOTH",
"376 857 OFFCURVE",
"381 853 OFFCURVE",
"397 853 CURVE SMOOTH"
);
},
{
closed = 1;
nodes = (
"222 749 LINE SMOOTH",
"242 749 OFFCURVE",
"263 751 OFFCURVE",
"272 768 CURVE SMOOTH",
"292 813 LINE",
"312 767 LINE SMOOTH",
"319 755 OFFCURVE",
"337 749 OFFCURVE",
"363 749 CURVE SMOOTH",
"391 749 LINE SMOOTH",
"403 749 OFFCURVE",
"411 752 OFFCURVE",
"411 759 CURVE SMOOTH",
"411 763 OFFCURVE",
"409 768 OFFCURVE",
"406 774 CURVE SMOOTH",
"350 876 LINE SMOOTH",
"340 894 OFFCURVE",
"320 895 OFFCURVE",
"293 895 CURVE SMOOTH",
"291 895 LINE SMOOTH",
"265 895 OFFCURVE",
"244 894 OFFCURVE",
"234 876 CURVE SMOOTH",
"179 774 LINE SMOOTH",
"176 768 OFFCURVE",
"174 764 OFFCURVE",
"174 759 CURVE SMOOTH",
"174 751 OFFCURVE",
"179 749 OFFCURVE",
"195 749 CURVE"
);
}
);
};
components = (
{
name = O;
},
{
name = circumflexcomb.case;
transform = "{1, 0, 0, 1, 166, 177}";
},
{
name = acutecomb.case;
transform = "{1, 0, 0, 1, 228, 319}";
}
);
layerId = "6662946B-F990-402F-A6FD-22D24AB84B33";
width = 599;
}
);
leftKerningGroup = O;
rightKerningGroup = O;
unicode = 1ED0;
},
{
glyphname = Ocircumflexgrave;
layers = (
{
components = (
{
name = O;
},
{
name = circumflexcomb.case;
transform = "{1, 0, 0, 1, 185, 177}";
},
{
name = gravecomb.case;
transform = "{1, 0, 0, 1, 214, 314}";
}
);
layerId = "76F17502-367F-435E-B23E-ED9D928E777B";
width = 599;
},
{
background = {
paths = (
{
closed = 1;
nodes = (
"468 853 OFFCURVE",
"474 857 OFFCURVE",
"474 868 CURVE SMOOTH",
"474 877 OFFCURVE",
"465 899 OFFCURVE",
"440 965 CURVE SMOOTH",
"430 986 OFFCURVE",
"398 992 OFFCURVE",
"361 992 CURVE SMOOTH",
"333 992 OFFCURVE",
"318 988 OFFCURVE",
"318 972 CURVE SMOOTH",
"318 962 OFFCURVE",
"327 952 OFFCURVE",
"391 872 CURVE SMOOTH",
"400 862 OFFCURVE",
"413 853 OFFCURVE",
"449 853 CURVE SMOOTH"
);
},
{
closed = 1;
nodes = (
"222 749 LINE SMOOTH",
"242 749 OFFCURVE",
"263 751 OFFCURVE",
"272 768 CURVE SMOOTH",
"292 813 LINE",
"312 767 LINE SMOOTH",
"319 755 OFFCURVE",
"337 749 OFFCURVE",
"363 749 CURVE SMOOTH",
"391 749 LINE SMOOTH",
"403 749 OFFCURVE",
"411 752 OFFCURVE",
"411 759 CURVE SMOOTH",
"411 763 OFFCURVE",
"409 768 OFFCURVE",
"406 774 CURVE SMOOTH",
"350 876 LINE SMOOTH",
"340 894 OFFCURVE",
"320 895 OFFCURVE",
"293 895 CURVE SMOOTH",
"291 895 LINE SMOOTH",
"265 895 OFFCURVE",
"244 894 OFFCURVE",
"234 876 CURVE SMOOTH",
"179 774 LINE SMOOTH",
"176 768 OFFCURVE",
"174 764 OFFCURVE",
"174 759 CURVE SMOOTH",
"174 751 OFFCURVE",
"179 749 OFFCURVE",
"195 749 CURVE"
);
}
);
};
components = (
{
name = O;
},
{
name = circumflexcomb.case;
transform = "{1, 0, 0, 1, 166, 177}";
},
{
name = gravecomb.case;
transform = "{1, 0, 0, 1, 177, 319}";
}
);
layerId = "6662946B-F990-402F-A6FD-22D24AB84B33";
width = 599;
}
);
leftKerningGroup = O;
rightKerningGroup = O;
unicode = 1ED2;
},
{
glyphname = Ocircumflexhookabove;
layers = (
{
background = {
paths = (
{
closed = 1;
nodes = (
"407 856 OFFCURVE",
"428 866 OFFCURVE",
"442 878 CURVE SMOOTH",
"459 892 OFFCURVE",
"477 911 OFFCURVE",
"477 942 CURVE SMOOTH",
"477 994 OFFCURVE",
"425 1010 OFFCURVE",
"391 1010 CURVE SMOOTH",
"356 1010 OFFCURVE",
"313 995 OFFCURVE",
"313 982 CURVE SMOOTH",
"313 972 OFFCURVE",
"329 949 OFFCURVE",
"337 949 CURVE SMOOTH",
"342 949 OFFCURVE",
"352 962 OFFCURVE",
"383 962 CURVE SMOOTH",
"403 962 OFFCURVE",
"420 953 OFFCURVE",
"420 935 CURVE SMOOTH",
"420 921 OFFCURVE",
"409 909 OFFCURVE",
"389 898 CURVE SMOOTH",
"373 889 OFFCURVE",
"364 884 OFFCURVE",
"364 876 CURVE SMOOTH",
"364 867 OFFCURVE",
"380 856 OFFCURVE",
"401 856 CURVE SMOOTH"
);
},
{
closed = 1;
nodes = (
"227 753 LINE",
"238 753 OFFCURVE",
"247 754 OFFCURVE",
"253 766 CURVE",
"292 840 LINE",
"331 766 LINE SMOOTH",
"337 757 OFFCURVE",
"347 753 OFFCURVE",
"357 753 CURVE",
"376 753 LINE",
"388 753 OFFCURVE",
"396 759 OFFCURVE",
"396 768 CURVE SMOOTH",
"396 773 OFFCURVE",
"392 779 OFFCURVE",
"389 785 CURVE SMOOTH",
"341 873 LINE SMOOTH",
"333 888 OFFCURVE",
"320 895 OFFCURVE",
"300 895 CURVE SMOOTH",
"284 895 LINE SMOOTH",
"266 895 OFFCURVE",
"251 888 OFFCURVE",
"243 873 CURVE SMOOTH",
"195 785 LINE SMOOTH",
"192 779 OFFCURVE",
"190 771 OFFCURVE",
"190 766 CURVE SMOOTH",
"190 759 OFFCURVE",
"196 753 OFFCURVE",
"209 753 CURVE"
);
}
);
};
components = (
{
name = O;
},
{
name = circumflexcomb.case;
transform = "{1, 0, 0, 1, 185, 177}";
},
{
name = hookabovecomb.case;
transform = "{1, 0, 0, 1, 213, 314}";
}
);
layerId = "76F17502-367F-435E-B23E-ED9D928E777B";
width = 599;
},
{
background = {
paths = (
{
closed = 1;
nodes = (
"438 861 OFFCURVE",
"460 875 OFFCURVE",
"470 883 CURVE SMOOTH",
"490 899 OFFCURVE",
"496 914 OFFCURVE",
"496 930 CURVE SMOOTH",
"496 970 OFFCURVE",
"461 996 OFFCURVE",
"403 996 CURVE SMOOTH",
"368 996 OFFCURVE",
"323 981 OFFCURVE",
"323 968 CURVE SMOOTH",
"323 953 OFFCURVE",
"345 926 OFFCURVE",
"353 926 CURVE SMOOTH",
"362 926 OFFCURVE",
"373 943 OFFCURVE",
"406 943 CURVE SMOOTH",
"416 943 OFFCURVE",
"427 937 OFFCURVE",
"427 926 CURVE SMOOTH",
"427 912 OFFCURVE",
"415 907 OFFCURVE",
"396 898 CURVE SMOOTH",
"386 893 OFFCURVE",
"377 886 OFFCURVE",
"377 882 CURVE SMOOTH",
"377 871 OFFCURVE",
"394 861 OFFCURVE",
"421 861 CURVE SMOOTH"
);
},
{
closed = 1;
nodes = (
"222 749 LINE SMOOTH",
"242 749 OFFCURVE",
"263 751 OFFCURVE",
"272 768 CURVE SMOOTH",
"292 813 LINE",
"312 767 LINE SMOOTH",
"319 755 OFFCURVE",
"337 749 OFFCURVE",
"363 749 CURVE SMOOTH",
"391 749 LINE SMOOTH",
"403 749 OFFCURVE",
"411 752 OFFCURVE",
"411 759 CURVE SMOOTH",
"411 763 OFFCURVE",
"409 768 OFFCURVE",
"406 774 CURVE SMOOTH",
"350 876 LINE SMOOTH",
"340 894 OFFCURVE",
"320 895 OFFCURVE",
"293 895 CURVE SMOOTH",
"291 895 LINE SMOOTH",
"265 895 OFFCURVE",
"244 894 OFFCURVE",
"234 876 CURVE SMOOTH",
"179 774 LINE SMOOTH",
"176 768 OFFCURVE",
"174 764 OFFCURVE",
"174 759 CURVE SMOOTH",
"174 751 OFFCURVE",
"179 749 OFFCURVE",
"195 749 CURVE"
);
}
);
};
components = (
{
name = O;
},
{
name = circumflexcomb.case;
transform = "{1, 0, 0, 1, 166, 177}";
},
{
name = hookabovecomb.case;
transform = "{1, 0, 0, 1, 204, 319}";
}
);
layerId = "6662946B-F990-402F-A6FD-22D24AB84B33";
width = 599;
}
);
leftKerningGroup = O;
rightKerningGroup = O;
unicode = 1ED4;
},
{
glyphname = Ocircumflextilde;
layers = (
{
background = {
paths = (
{
closed = 1;
nodes = (
"172 904 OFFCURVE",
"175 903 OFFCURVE",
"178 903 CURVE SMOOTH",
"184 903 OFFCURVE",
"188 907 OFFCURVE",
"194 917 CURVE SMOOTH",
"205 937 OFFCURVE",
"214 945 OFFCURVE",
"226 945 CURVE SMOOTH",
"258 945 OFFCURVE",
"304 904 OFFCURVE",
"345 904 CURVE SMOOTH",
"377 904 OFFCURVE",
"401 922 OFFCURVE",
"420 972 CURVE SMOOTH",
"422 978 OFFCURVE",
"423 982 OFFCURVE",
"423 986 CURVE SMOOTH",
"423 992 OFFCURVE",
"420 994 OFFCURVE",
"412 998 CURVE SMOOTH",
"406 1001 LINE SMOOTH",
"402 1003 OFFCURVE",
"399 1004 OFFCURVE",
"396 1004 CURVE SMOOTH",
"390 1004 OFFCURVE",
"384 1000 OFFCURVE",
"378 989 CURVE SMOOTH",
"367 970 OFFCURVE",
"357 963 OFFCURVE",
"344 963 CURVE SMOOTH",
"312 963 OFFCURVE",
"267 1003 OFFCURVE",
"228 1003 CURVE SMOOTH",
"195 1003 OFFCURVE",
"171 985 OFFCURVE",
"153 934 CURVE SMOOTH",
"151 929 OFFCURVE",
"150 925 OFFCURVE",
"150 921 CURVE SMOOTH",
"150 916 OFFCURVE",
"153 912 OFFCURVE",
"159 909 CURVE SMOOTH",
"168 905 LINE SMOOTH"
);
},
{
closed = 1;
nodes = (
"228 753 LINE SMOOTH",
"241 753 OFFCURVE",
"249 758 OFFCURVE",
"255 766 CURVE SMOOTH",
"292 824 LINE",
"331 766 LINE SMOOTH",
"337 758 OFFCURVE",
"346 753 OFFCURVE",
"358 753 CURVE SMOOTH",
"377 753 LINE SMOOTH",
"389 753 OFFCURVE",
"396 759 OFFCURVE",
"396 767 CURVE SMOOTH",
"396 771 OFFCURVE",
"394 777 OFFCURVE",
"389 785 CURVE SMOOTH",
"343 851 LINE SMOOTH",
"333 865 OFFCURVE",
"320 873 OFFCURVE",
"301 873 CURVE SMOOTH",
"285 873 LINE SMOOTH",
"266 873 OFFCURVE",
"254 865 OFFCURVE",
"243 851 CURVE SMOOTH",
"197 785 LINE SMOOTH",
"193 777 OFFCURVE",
"190 771 OFFCURVE",
"190 767 CURVE SMOOTH",
"190 758 OFFCURVE",
"197 753 OFFCURVE",
"209 753 CURVE SMOOTH"
);
}
);
};
components = (
{
name = O;
},
{
name = circumflexcomb.case;
transform = "{1, 0, 0, 1, 185, 177}";
},
{
name = tildecomb.case;
transform = "{1, 0, 0, 1, 150, 314}";
}
);
layerId = "76F17502-367F-435E-B23E-ED9D928E777B";
width = 599;
},
{
background = {
paths = (
{
closed = 1;
nodes = (
"189 888 OFFCURVE",
"193 887 OFFCURVE",
"197 887 CURVE SMOOTH",
"208 887 OFFCURVE",
"214 892 OFFCURVE",
"222 904 CURVE SMOOTH",
"232 918 OFFCURVE",
"240 920 OFFCURVE",
"245 920 CURVE SMOOTH",
"270 919 OFFCURVE",
"321 891 OFFCURVE",
"351 891 CURVE SMOOTH",
"391 891 OFFCURVE",
"421 924 OFFCURVE",
"433 961 CURVE SMOOTH",
"434 965 OFFCURVE",
"436 969 OFFCURVE",
"436 975 CURVE SMOOTH",
"436 986 OFFCURVE",
"430 997 OFFCURVE",
"415 1002 CURVE SMOOTH",
"406 1005 LINE SMOOTH",
"402 1006 OFFCURVE",
"398 1007 OFFCURVE",
"393 1007 CURVE SMOOTH",
"382 1007 OFFCURVE",
"375 1000 OFFCURVE",
"368 990 CURVE SMOOTH",
"358 975 OFFCURVE",
"351 974 OFFCURVE",
"345 974 CURVE SMOOTH",
"320 975 OFFCURVE",
"271 1003 OFFCURVE",
"240 1003 CURVE SMOOTH",
"199 1003 OFFCURVE",
"170 972 OFFCURVE",
"158 934 CURVE SMOOTH",
"155 927 OFFCURVE",
"154 921 OFFCURVE",
"154 918 CURVE SMOOTH",
"154 908 OFFCURVE",
"159 897 OFFCURVE",
"175 892 CURVE SMOOTH",
"185 889 LINE SMOOTH"
);
},
{
closed = 1;
nodes = (
"222 749 LINE SMOOTH",
"250 749 OFFCURVE",
"258 754 OFFCURVE",
"271 768 CURVE SMOOTH",
"293 807 LINE",
"314 767 LINE SMOOTH",
"325 754 OFFCURVE",
"334 749 OFFCURVE",
"363 749 CURVE SMOOTH",
"391 749 LINE SMOOTH",
"404 749 OFFCURVE",
"411 753 OFFCURVE",
"411 759 CURVE SMOOTH",
"411 762 OFFCURVE",
"407 773 OFFCURVE",
"402 780 CURVE SMOOTH",
"351 854 LINE SMOOTH",
"340 869 OFFCURVE",
"326 873 OFFCURVE",
"294 873 CURVE SMOOTH",
"292 873 LINE SMOOTH",
"260 873 OFFCURVE",
"245 869 OFFCURVE",
"234 854 CURVE SMOOTH",
"183 780 LINE SMOOTH",
"179 773 OFFCURVE",
"174 762 OFFCURVE",
"174 759 CURVE SMOOTH",
"174 751 OFFCURVE",
"180 749 OFFCURVE",
"195 749 CURVE SMOOTH"
);
}
);
};
components = (
{
name = O;
},
{
name = circumflexcomb.case;
transform = "{1, 0, 0, 1, 166, 177}";
},
{
name = tildecomb.case;
transform = "{1, 0, 0, 1, 145, 319}";
}
);
layerId = "6662946B-F990-402F-A6FD-22D24AB84B33";
width = 599;
}
);
leftKerningGroup = O;
rightKerningGroup = O;
unicode = 1ED6;
},
{
glyphname = Ohorn;
layers = (
{
anchors = (
{
name = bottom;
position = "{300, 0}";
},
{
name = top;
position = "{300, 700}";
}
);
layerId = "76F17502-367F-435E-B23E-ED9D928E777B";
paths = (
{
closed = 1;
nodes = (
"461 -6 OFFCURVE",
"550 109 OFFCURVE",
"550 352 CURVE SMOOTH",
"550 488 OFFCURVE",
"522 583 OFFCURVE",
"467 640 CURVE",
"444 625 LINE",
"529 618 OFFCURVE",
"568 656 OFFCURVE",
"568 714 CURVE SMOOTH",
"568 743 OFFCURVE",
"548 788 OFFCURVE",
"525 788 CURVE SMOOTH",
"521 788 OFFCURVE",
"517 787 OFFCURVE",
"513 784 CURVE",
"489 768 LINE SMOOTH",
"483 764 OFFCURVE",
"480 758 OFFCURVE",
"480 752 CURVE SMOOTH",
"482 740 OFFCURVE",
"507 720 OFFCURVE",
"507 690 CURVE SMOOTH",
"507 675 OFFCURVE",
"498 657 OFFCURVE",
"467 657 CURVE SMOOTH",
"455 657 OFFCURVE",
"448 660 OFFCURVE",
"435 668 CURVE SMOOTH",
"398 692 OFFCURVE",
"353 706 OFFCURVE",
"299 706 CURVE SMOOTH",
"138 706 OFFCURVE",
"49 595 OFFCURVE",
"49 352 CURVE SMOOTH",
"49 109 OFFCURVE",
"138 -6 OFFCURVE",
"299 -6 CURVE SMOOTH"
);
},
{
closed = 1;
nodes = (
"197 70 OFFCURVE",
"142 159 OFFCURVE",
"142 352 CURVE SMOOTH",
"142 545 OFFCURVE",
"197 630 OFFCURVE",
"300 630 CURVE SMOOTH",
"402 630 OFFCURVE",
"458 545 OFFCURVE",
"458 352 CURVE SMOOTH",
"458 159 OFFCURVE",
"402 70 OFFCURVE",
"300 70 CURVE SMOOTH"
);
}
);
width = 599;
},
{
anchors = (
{
name = bottom;
position = "{300, 0}";
},
{
name = top;
position = "{300, 700}";
}
);
layerId = "6662946B-F990-402F-A6FD-22D24AB84B33";
paths = (
{
closed = 1;
nodes = (
"467 -8 OFFCURVE",
"561 100 OFFCURVE",
"561 350 CURVE SMOOTH",
"561 483 OFFCURVE",
"532 578 OFFCURVE",
"482 635 CURVE",
"432 612 LINE",
"552 594 OFFCURVE",
"603 634 OFFCURVE",
"603 702 CURVE SMOOTH",
"603 732 OFFCURVE",
"582 785 OFFCURVE",
"556 785 CURVE SMOOTH",
"550 785 OFFCURVE",
"545 784 OFFCURVE",
"540 780 CURVE",
"508 758 LINE",
"500 753 OFFCURVE",
"497 746 OFFCURVE",
"497 739 CURVE SMOOTH",
"497 725 OFFCURVE",
"524 710 OFFCURVE",
"524 682 CURVE SMOOTH",
"524 662 OFFCURVE",
"514 651 OFFCURVE",
"489 651 CURVE SMOOTH",
"476 651 OFFCURVE",
"464 653 OFFCURVE",
"451 662 CURVE SMOOTH",
"414 690 OFFCURVE",
"366 708 OFFCURVE",
"300 708 CURVE SMOOTH",
"134 708 OFFCURVE",
"38 601 OFFCURVE",
"38 350 CURVE SMOOTH",
"38 99 OFFCURVE",
"134 -8 OFFCURVE",
"300 -8 CURVE SMOOTH"
);
},
{
closed = 1;
nodes = (
"232 123 OFFCURVE",
"197 172 OFFCURVE",
"197 350 CURVE SMOOTH",
"197 528 OFFCURVE",
"232 576 OFFCURVE",
"301 576 CURVE SMOOTH",
"369 576 OFFCURVE",
"403 528 OFFCURVE",
"403 350 CURVE SMOOTH",
"403 172 OFFCURVE",
"369 123 OFFCURVE",
"301 123 CURVE SMOOTH"
);
}
);
width = 599;
}
);
leftKerningGroup = O;
rightKerningGroup = Ohorn;
unicode = 01A0;
userData = {
RMXScaler = {
source = Ohorn;
};
};
},
{
glyphname = Oslash;
layers = (
{
components = (
{
name = O;
}
);
layerId = "76F17502-367F-435E-B23E-ED9D928E777B";
paths = (
{
closed = 1;
nodes = (
"525 685 LINE SMOOTH",
"528 690 OFFCURVE",
"529 694 OFFCURVE",
"529 697 CURVE SMOOTH",
"529 708 OFFCURVE",
"515 716 OFFCURVE",
"506 716 CURVE SMOOTH",
"502 716 OFFCURVE",
"496 714 OFFCURVE",
"491 705 CURVE SMOOTH",
"66 15 LINE SMOOTH",
"62 10 OFFCURVE",
"61 5 OFFCURVE",
"61 1 CURVE SMOOTH",
"61 -8 OFFCURVE",
"75 -18 OFFCURVE",
"84 -18 CURVE SMOOTH",
"90 -18 OFFCURVE",
"95 -13 OFFCURVE",
"99 -6 CURVE SMOOTH"
);
}
);
width = 599;
},
{
components = (
{
name = O;
}
);
layerId = "6662946B-F990-402F-A6FD-22D24AB84B33";
paths = (
{
closed = 1;
nodes = (
"548 670 LINE SMOOTH",
"554 678 OFFCURVE",
"555 683 OFFCURVE",
"555 689 CURVE SMOOTH",
"555 707 OFFCURVE",
"521 730 OFFCURVE",
"504 730 CURVE SMOOTH",
"494 730 OFFCURVE",
"488 724 OFFCURVE",
"481 714 CURVE SMOOTH",
"36 36 LINE SMOOTH",
"32 30 OFFCURVE",
"29 23 OFFCURVE",
"29 18 CURVE SMOOTH",
"29 0 OFFCURVE",
"62 -23 OFFCURVE",
"80 -23 CURVE SMOOTH",
"88 -23 OFFCURVE",
"97 -18 OFFCURVE",
"104 -7 CURVE SMOOTH"
);
}
);
width = 599;
}
);
leftKerningGroup = O;
rightKerningGroup = O;
unicode = 00D8;
userData = {
RMXScaler = {
source = Oslash;
};
};
},
{
glyphname = OE;
layers = (
{
anchors = (
{
name = bottom;
position = "{416, 0}";
},
{
name = top;
position = "{416, 700}";
}
);
layerId = "76F17502-367F-435E-B23E-ED9D928E777B";
paths = (
{
closed = 1;
nodes = (
"369 -6 OFFCURVE",
"427 26 OFFCURVE",
"471 96 CURVE",
"453 116 LINE",
"453 30 LINE SMOOTH",
"453 9 OFFCURVE",
"461 0 OFFCURVE",
"480 0 CURVE SMOOTH",
"767 0 LINE SMOOTH",
"780 0 OFFCURVE",
"786 9 OFFCURVE",
"786 30 CURVE SMOOTH",
"786 46 LINE SMOOTH",
"786 67 OFFCURVE",
"780 76 OFFCURVE",
"767 76 CURVE SMOOTH",
"543 76 LINE",
"543 320 LINE",
"743 320 LINE SMOOTH",
"756 320 OFFCURVE",
"762 329 OFFCURVE",
"762 350 CURVE SMOOTH",
"762 366 LINE SMOOTH",
"762 387 OFFCURVE",
"756 396 OFFCURVE",
"743 396 CURVE SMOOTH",
"543 396 LINE",
"543 624 LINE",
"766 624 LINE SMOOTH",
"779 624 OFFCURVE",
"785 633 OFFCURVE",
"785 654 CURVE SMOOTH",
"785 670 LINE SMOOTH",
"785 691 OFFCURVE",
"779 700 OFFCURVE",
"766 700 CURVE SMOOTH",
"480 700 LINE SMOOTH",
"461 700 OFFCURVE",
"453 691 OFFCURVE",
"453 670 CURVE SMOOTH",
"453 586 LINE",
"471 606 LINE",
"428 678 OFFCURVE",
"369 706 OFFCURVE",
"291 706 CURVE SMOOTH",
"140 706 OFFCURVE",
"49 603 OFFCURVE",
"49 353 CURVE SMOOTH",
"49 101 OFFCURVE",
"141 -6 OFFCURVE",
"288 -6 CURVE SMOOTH"
);
},
{
closed = 1;
nodes = (
"195 70 OFFCURVE",
"142 157 OFFCURVE",
"142 352 CURVE SMOOTH",
"142 553 OFFCURVE",
"195 630 OFFCURVE",
"294 630 CURVE SMOOTH",
"397 630 OFFCURVE",
"452 553 OFFCURVE",
"452 352 CURVE SMOOTH",
"452 157 OFFCURVE",
"397 70 OFFCURVE",
"294 70 CURVE SMOOTH"
);
}
);
width = 831;
},
{
anchors = (
{
name = bottom;
position = "{416, 0}";
},
{
name = top;
position = "{416, 700}";
}
);
layerId = "6662946B-F990-402F-A6FD-22D24AB84B33";
paths = (
{
closed = 1;
nodes = (
"342 -8 OFFCURVE",
"390 10 OFFCURVE",
"441 62 CURVE",
"404 116 LINE",
"404 41 LINE",
"404 12 OFFCURVE",
"415 0 OFFCURVE",
"441 0 CURVE SMOOTH",
"764 0 LINE SMOOTH",
"783 0 OFFCURVE",
"792 15 OFFCURVE",
"792 50 CURVE SMOOTH",
"792 81 LINE SMOOTH",
"792 116 OFFCURVE",
"783 131 OFFCURVE",
"764 131 CURVE SMOOTH",
"560 131 LINE",
"560 293 LINE",
"742 293 LINE SMOOTH",
"763 293 OFFCURVE",
"771 308 OFFCURVE",
"771 343 CURVE SMOOTH",
"771 374 LINE SMOOTH",
"771 409 OFFCURVE",
"763 424 OFFCURVE",
"742 424 CURVE SMOOTH",
"560 424 LINE",
"560 569 LINE",
"763 569 LINE SMOOTH",
"783 569 OFFCURVE",
"791 584 OFFCURVE",
"791 619 CURVE SMOOTH",
"791 650 LINE SMOOTH",
"791 685 OFFCURVE",
"783 700 OFFCURVE",
"763 700 CURVE SMOOTH",
"441 700 LINE SMOOTH",
"415 700 OFFCURVE",
"404 688 OFFCURVE",
"404 662 CURVE SMOOTH",
"404 587 LINE",
"441 637 LINE",
"390 688 OFFCURVE",
"345 708 OFFCURVE",
"283 708 CURVE SMOOTH",
"130 708 OFFCURVE",
"37 599 OFFCURVE",
"37 350 CURVE SMOOTH",
"37 102 OFFCURVE",
"130 -8 OFFCURVE",
"283 -8 CURVE SMOOTH"
);
},
{
closed = 1;
nodes = (
"232 123 OFFCURVE",
"197 174 OFFCURVE",
"197 350 CURVE SMOOTH",
"197 526 OFFCURVE",
"232 576 OFFCURVE",
"301 576 CURVE SMOOTH",
"369 576 OFFCURVE",
"403 526 OFFCURVE",
"403 350 CURVE SMOOTH",
"403 174 OFFCURVE",
"369 123 OFFCURVE",
"301 123 CURVE SMOOTH"
);
}
);
width = 831;
}
);
leftKerningGroup = O;
rightKerningGroup = E;
unicode = 0152;
userData = {
RMXScaler = {
source = OE;
};
};
},
{
glyphname = P;
layers = (
{
anchors = (
{
name = bottom;
position = "{118, 0}";
},
{
name = top;
position = "{238, 700}";
}
);
layerId = "76F17502-367F-435E-B23E-ED9D928E777B";
paths = (
{
closed = 1;
nodes = (
"125 -2 LINE SMOOTH",
"152 -2 OFFCURVE",
"163 6 OFFCURVE",
"163 20 CURVE SMOOTH",
"163 298 LINE",
"273 298 LINE SMOOTH",
"315 298 OFFCURVE",
"447 321 OFFCURVE",
"447 504 CURVE SMOOTH",
"447 673 OFFCURVE",
"334 700 OFFCURVE",
"265 700 CURVE SMOOTH",
"100 700 LINE SMOOTH",
"81 700 OFFCURVE",
"73 691 OFFCURVE",
"73 670 CURVE SMOOTH",
"73 20 LINE SMOOTH",
"73 6 OFFCURVE",
"84 -2 OFFCURVE",
"111 -2 CURVE SMOOTH"
);
},
{
closed = 1;
nodes = (
"163 624 LINE",
"261 624 LINE SMOOTH",
"302 624 OFFCURVE",
"355 603 OFFCURVE",
"355 504 CURVE SMOOTH",
"355 395 OFFCURVE",
"300 374 OFFCURVE",
"268 374 CURVE SMOOTH",
"163 374 LINE"
);
}
);
width = 482;
},
{
anchors = (
{
name = bottom;
position = "{132, 0}";
},
{
name = top;
position = "{241, 700}";
}
);
layerId = "6662946B-F990-402F-A6FD-22D24AB84B33";
paths = (
{
closed = 1;
nodes = (
"149 -2 LINE SMOOTH",
"191 -2 OFFCURVE",
"209 9 OFFCURVE",
"209 30 CURVE SMOOTH",
"209 262 LINE",
"278 262 LINE SMOOTH",
"323 262 OFFCURVE",
"468 288 OFFCURVE",
"468 481 CURVE SMOOTH",
"468 674 OFFCURVE",
"343 700 OFFCURVE",
"268 700 CURVE SMOOTH",
"95 700 LINE SMOOTH",
"67 700 OFFCURVE",
"55 688 OFFCURVE",
"55 660 CURVE SMOOTH",
"55 30 LINE SMOOTH",
"55 9 OFFCURVE",
"73 -2 OFFCURVE",
"115 -2 CURVE SMOOTH"
);
},
{
closed = 1;
nodes = (
"208 569 LINE",
"261 569 LINE SMOOTH",
"286 569 OFFCURVE",
"318 553 OFFCURVE",
"318 481 CURVE SMOOTH",
"318 407 OFFCURVE",
"286 391 OFFCURVE",
"261 391 CURVE SMOOTH",
"208 391 LINE"
);
}
);
width = 482;
}
);
leftKerningGroup = H;
rightKerningGroup = P;
unicode = 0050;
userData = {
RMXScaler = {
source = P;
};
};
},
{
glyphname = Thorn;
layers = (
{
anchors = (
{
name = bottom;
position = "{118, 0}";
},
{
name = top;
position = "{118, 700}";
}
);
layerId = "76F17502-367F-435E-B23E-ED9D928E777B";
paths = (
{
closed = 1;
nodes = (
"125 -2 LINE SMOOTH",
"152 -2 OFFCURVE",
"163 6 OFFCURVE",
"163 20 CURVE SMOOTH",
"163 177 LINE",
"273 177 LINE SMOOTH",
"315 177 OFFCURVE",
"447 200 OFFCURVE",
"447 383 CURVE SMOOTH",
"447 552 OFFCURVE",
"334 579 OFFCURVE",
"265 579 CURVE SMOOTH",
"163 579 LINE",
"163 680 LINE SMOOTH",
"163 694 OFFCURVE",
"152 702 OFFCURVE",
"125 702 CURVE SMOOTH",
"111 702 LINE SMOOTH",
"84 702 OFFCURVE",
"73 694 OFFCURVE",
"73 680 CURVE SMOOTH",
"73 20 LINE SMOOTH",
"73 6 OFFCURVE",
"84 -2 OFFCURVE",
"111 -2 CURVE SMOOTH"
);
},
{
closed = 1;
nodes = (
"163 503 LINE",
"260 503 LINE SMOOTH",
"302 503 OFFCURVE",
"354 482 OFFCURVE",
"354 383 CURVE SMOOTH",
"354 274 OFFCURVE",
"299 253 OFFCURVE",
"268 253 CURVE SMOOTH",
"163 253 LINE"
);
}
);
width = 482;
},
{
anchors = (
{
name = bottom;
position = "{134, 0}";
},
{
name = top;
position = "{134, 700}";
}
);
layerId = "6662946B-F990-402F-A6FD-22D24AB84B33";
paths = (
{
closed = 1;
nodes = (
"153 -2 LINE SMOOTH",
"193 -2 OFFCURVE",
"211 9 OFFCURVE",
"211 30 CURVE SMOOTH",
"211 153 LINE",
"278 153 LINE SMOOTH",
"323 153 OFFCURVE",
"468 179 OFFCURVE",
"468 372 CURVE SMOOTH",
"468 565 OFFCURVE",
"343 591 OFFCURVE",
"268 591 CURVE SMOOTH",
"211 591 LINE",
"211 670 LINE SMOOTH",
"211 691 OFFCURVE",
"193 702 OFFCURVE",
"153 702 CURVE SMOOTH",
"113 702 LINE SMOOTH",
"72 702 OFFCURVE",
"55 691 OFFCURVE",
"55 670 CURVE SMOOTH",
"55 30 LINE SMOOTH",
"55 9 OFFCURVE",
"72 -2 OFFCURVE",
"113 -2 CURVE SMOOTH"
);
},
{
closed = 1;
nodes = (
"211 460 LINE",
"261 460 LINE SMOOTH",
"287 460 OFFCURVE",
"318 444 OFFCURVE",
"318 372 CURVE SMOOTH",
"318 298 OFFCURVE",
"287 282 OFFCURVE",
"261 282 CURVE SMOOTH",
"211 282 LINE"
);
}
);
width = 482;
}
);
leftKerningGroup = H;
leftMetricsKey = "=P";
rightKerningGroup = Thorn;
rightMetricsKey = "=P";
unicode = 00DE;
userData = {
RMXScaler = {
source = Thorn;
};
};
},
{
glyphname = Q;
layers = (
{
layerId = "76F17502-367F-435E-B23E-ED9D928E777B";
paths = (
{
closed = 1;
nodes = (
"565 -169 OFFCURVE",
"589 -114 OFFCURVE",
"591 -102 CURVE SMOOTH",
"591 -95 OFFCURVE",
"587 -90 OFFCURVE",
"579 -86 CURVE SMOOTH",
"385 3 LINE",
"385 6 LINE",
"492 40 OFFCURVE",
"550 153 OFFCURVE",
"550 350 CURVE SMOOTH",
"550 592 OFFCURVE",
"461 706 OFFCURVE",
"299 706 CURVE SMOOTH",
"138 706 OFFCURVE",
"49 593 OFFCURVE",
"49 350 CURVE SMOOTH",
"49 170 OFFCURVE",
"98 61 OFFCURVE",
"193 13 CURVE SMOOTH",
"257 -25 OFFCURVE",
"528 -169 OFFCURVE",
"542 -169 CURVE SMOOTH"
);
},
{
closed = 1;
nodes = (
"198 69 OFFCURVE",
"142 158 OFFCURVE",
"142 350 CURVE SMOOTH",
"142 542 OFFCURVE",
"198 630 OFFCURVE",
"300 630 CURVE SMOOTH",
"401 630 OFFCURVE",
"458 542 OFFCURVE",
"458 350 CURVE SMOOTH",
"458 159 OFFCURVE",
"401 69 OFFCURVE",
"300 69 CURVE SMOOTH"
);
}
);
width = 599;
},
{
layerId = "6662946B-F990-402F-A6FD-22D24AB84B33";
paths = (
{
closed = 1;
nodes = (
"549 -159 OFFCURVE",
"582 -80 OFFCURVE",
"584 -65 CURVE SMOOTH",
"584 -58 OFFCURVE",
"581 -51 OFFCURVE",
"572 -47 CURVE SMOOTH",
"433 22 LINE",
"433 26 LINE",
"516 74 OFFCURVE",
"561 178 OFFCURVE",
"561 350 CURVE SMOOTH",
"561 600 OFFCURVE",
"467 708 OFFCURVE",
"300 708 CURVE SMOOTH",
"134 708 OFFCURVE",
"38 601 OFFCURVE",
"38 350 CURVE SMOOTH",
"38 167 OFFCURVE",
"88 63 OFFCURVE",
"183 16 CURVE SMOOTH",
"471 -123 OFFCURVE",
"503 -159 OFFCURVE",
"517 -159 CURVE SMOOTH"
);
},
{
closed = 1;
nodes = (
"232 121 OFFCURVE",
"197 170 OFFCURVE",
"197 350 CURVE SMOOTH",
"197 528 OFFCURVE",
"232 576 OFFCURVE",
"301 576 CURVE SMOOTH",
"369 576 OFFCURVE",
"403 528 OFFCURVE",
"403 350 CURVE SMOOTH",
"403 170 OFFCURVE",
"369 121 OFFCURVE",
"301 121 CURVE SMOOTH"
);
}
);
width = 599;
}
);
leftKerningGroup = O;
rightKerningGroup = O;
unicode = 0051;
userData = {
RMXScaler = {
source = Q;
};
};
},
{
glyphname = R;
layers = (
{
anchors = (
{
name = bottom;
position = "{264, 0}";
},
{
name = top;
position = "{254, 700}";
}
);
layerId = "76F17502-367F-435E-B23E-ED9D928E777B";
paths = (
{
closed = 1;
nodes = (
"129 -2 LINE SMOOTH",
"156 -2 OFFCURVE",
"167 6 OFFCURVE",
"167 20 CURVE SMOOTH",
"167 308 LINE",
"230 308 LINE SMOOTH",
"288 308 OFFCURVE",
"313 287 OFFCURVE",
"337 210 CURVE SMOOTH",
"397 14 LINE SMOOTH",
"400 4 OFFCURVE",
"415 -2 OFFCURVE",
"434 -2 CURVE SMOOTH",
"451 -2 LINE SMOOTH",
"478 -2 OFFCURVE",
"490 4 OFFCURVE",
"490 14 CURVE SMOOTH",
"490 17 OFFCURVE",
"489 22 OFFCURVE",
"487 28 CURVE SMOOTH",
"424 225 LINE SMOOTH",
"402 290 OFFCURVE",
"384 336 OFFCURVE",
"355 350 CURVE",
"355 354 LINE",
"410 382 OFFCURVE",
"447 437 OFFCURVE",
"447 523 CURVE SMOOTH",
"447 649 OFFCURVE",
"382 700 OFFCURVE",
"252 700 CURVE SMOOTH",
"104 700 LINE SMOOTH",
"85 700 OFFCURVE",
"77 691 OFFCURVE",
"77 670 CURVE SMOOTH",
"77 20 LINE SMOOTH",
"77 6 OFFCURVE",
"88 -2 OFFCURVE",
"115 -2 CURVE SMOOTH"
);
},
{
closed = 1;
nodes = (
"166 624 LINE",
"261 624 LINE SMOOTH",
"317 624 OFFCURVE",
"354 588 OFFCURVE",
"354 507 CURVE SMOOTH",
"354 441 OFFCURVE",
"315 384 OFFCURVE",
"267 384 CURVE SMOOTH",
"166 384 LINE"
);
}
);
width = 513;
},
{
anchors = (
{
name = bottom;
position = "{272, 0}";
},
{
name = top;
position = "{251, 700}";
}
);
layerId = "6662946B-F990-402F-A6FD-22D24AB84B33";
paths = (
{
closed = 1;
nodes = (
"148 -2 LINE SMOOTH",
"190 -2 OFFCURVE",
"208 9 OFFCURVE",
"208 30 CURVE SMOOTH",
"208 256 LINE",
"232 256 LINE SMOOTH",
"267 256 OFFCURVE",
"278 244 OFFCURVE",
"289 216 CURVE",
"342 26 LINE SMOOTH",
"347 6 OFFCURVE",
"370 -1 OFFCURVE",
"402 -1 CURVE SMOOTH",
"437 -1 LINE SMOOTH",
"480 -1 OFFCURVE",
"499 9 OFFCURVE",
"499 26 CURVE SMOOTH",
"499 29 OFFCURVE",
"497 34 OFFCURVE",
"496 38 CURVE SMOOTH",
"437 230 LINE SMOOTH",
"425 271 OFFCURVE",
"400 313 OFFCURVE",
"370 330 CURVE",
"370 334 LINE",
"425 364 OFFCURVE",
"465 414 OFFCURVE",
"465 503 CURVE SMOOTH",
"465 654 OFFCURVE",
"372 700 OFFCURVE",
"261 700 CURVE SMOOTH",
"94 700 LINE SMOOTH",
"66 700 OFFCURVE",
"54 688 OFFCURVE",
"54 660 CURVE SMOOTH",
"54 30 LINE SMOOTH",
"54 9 OFFCURVE",
"72 -2 OFFCURVE",
"114 -2 CURVE SMOOTH"
);
},
{
closed = 1;
nodes = (
"208 569 LINE",
"261 569 LINE SMOOTH",
"292 569 OFFCURVE",
"317 548 OFFCURVE",
"317 488 CURVE SMOOTH",
"317 428 OFFCURVE",
"290 402 OFFCURVE",
"264 402 CURVE SMOOTH",
"208 402 LINE"
);
}
);
width = 513;
}
);
leftKerningGroup = H;
rightKerningGroup = R;
unicode = 0052;
userData = {
RMXScaler = {
source = R;
};
};
},
{
glyphname = S;
layers = (
{
anchors = (
{
name = bottom;
position = "{215, 0}";
},
{
name = top;
position = "{241, 700}";
}
);
background = {
paths = (
{
closed = 1;
nodes = (
"36 41 LINE",
"78 11 OFFCURVE",
"131 -5 OFFCURVE",
"193 -5 CURVE SMOOTH",
"314 -5 OFFCURVE",
"402 68 OFFCURVE",
"402 194 CURVE SMOOTH",
"402 311 OFFCURVE",
"327 353 OFFCURVE",
"247 394 CURVE SMOOTH",
"176 431 OFFCURVE",
"131 460 OFFCURVE",
"131 525 CURVE SMOOTH",
"131 595 OFFCURVE",
"184 629 OFFCURVE",
"243 629 CURVE SMOOTH",
"283 629 OFFCURVE",
"325 619 OFFCURVE",
"348 602 CURVE",
"369 680 LINE",
"335 700 OFFCURVE",
"292 711 OFFCURVE",
"246 711 CURVE SMOOTH",
"126 711 OFFCURVE",
"39 638 OFFCURVE",
"39 515 CURVE SMOOTH",
"39 398 OFFCURVE",
"119 356 OFFCURVE",
"207 312 CURVE SMOOTH",
"263 284 OFFCURVE",
"309 255 OFFCURVE",
"309 187 CURVE SMOOTH",
"309 117 OFFCURVE",
"260 77 OFFCURVE",
"195 77 CURVE SMOOTH",
"133 77 OFFCURVE",
"84 97 OFFCURVE",
"51 127 CURVE"
);
},
{
closed = 1;
nodes = (
"306 -5 OFFCURVE",
"393 57 OFFCURVE",
"393 177 CURVE SMOOTH",
"393 286 OFFCURVE",
"323 330 OFFCURVE",
"240 390 CURVE SMOOTH",
"178 435 OFFCURVE",
"130 463 OFFCURVE",
"130 528 CURVE SMOOTH",
"130 589 OFFCURVE",
"168 628 OFFCURVE",
"232 628 CURVE SMOOTH",
"291 628 OFFCURVE",
"332 594 OFFCURVE",
"343 594 CURVE SMOOTH",
"356 594 OFFCURVE",
"374 636 OFFCURVE",
"374 650 CURVE SMOOTH",
"374 677 OFFCURVE",
"288 705 OFFCURVE",
"231 705 CURVE SMOOTH",
"120 705 OFFCURVE",
"39 633 OFFCURVE",
"39 528 CURVE SMOOTH",
"39 427 OFFCURVE",
"102 375 OFFCURVE",
"180 322 CURVE SMOOTH",
"240 284 OFFCURVE",
"303 247 OFFCURVE",
"303 173 CURVE SMOOTH",
"303 111 OFFCURVE",
"260 72 OFFCURVE",
"199 72 CURVE SMOOTH",
"119 72 OFFCURVE",
"70 127 OFFCURVE",
"54 127 CURVE SMOOTH",
"40 127 OFFCURVE",
"17 82 OFFCURVE",
"17 68 CURVE SMOOTH",
"17 42 OFFCURVE",
"105 -5 OFFCURVE",
"197 -5 CURVE SMOOTH"
);
}
);
};
layerId = "76F17502-367F-435E-B23E-ED9D928E777B";
paths = (
{
closed = 1;
nodes = (
"319 -5 OFFCURVE",
"408 66 OFFCURVE",
"408 194 CURVE SMOOTH",
"408 311 OFFCURVE",
"331 353 OFFCURVE",
"252 393 CURVE SMOOTH",
"180 430 OFFCURVE",
"135 460 OFFCURVE",
"135 525 CURVE SMOOTH",
"135 598 OFFCURVE",
"190 632 OFFCURVE",
"249 632 CURVE SMOOTH",
"284 632 OFFCURVE",
"318 625 OFFCURVE",
"342 613 CURVE SMOOTH",
"346 611 OFFCURVE",
"351 608 OFFCURVE",
"355 608 CURVE SMOOTH",
"368 608 OFFCURVE",
"383 654 OFFCURVE",
"383 669 CURVE SMOOTH",
"383 672 OFFCURVE",
"383 677 OFFCURVE",
"376 681 CURVE SMOOTH",
"342 701 OFFCURVE",
"300 711 OFFCURVE",
"254 711 CURVE SMOOTH",
"134 711 OFFCURVE",
"47 638 OFFCURVE",
"47 515 CURVE SMOOTH",
"47 398 OFFCURVE",
"129 356 OFFCURVE",
"216 313 CURVE SMOOTH",
"272 285 OFFCURVE",
"319 256 OFFCURVE",
"319 187 CURVE SMOOTH",
"319 116 OFFCURVE",
"270 74 OFFCURVE",
"203 74 CURVE SMOOTH",
"144 74 OFFCURVE",
"97 91 OFFCURVE",
"64 117 CURVE SMOOTH",
"62 118 OFFCURVE",
"60 121 OFFCURVE",
"55 121 CURVE SMOOTH",
"40 121 OFFCURVE",
"32 84 OFFCURVE",
"32 64 CURVE SMOOTH",
"32 50 OFFCURVE",
"36 46 OFFCURVE",
"43 41 CURVE SMOOTH",
"85 11 OFFCURVE",
"138 -5 OFFCURVE",
"200 -5 CURVE SMOOTH"
);
}
);
width = 437;
},
{
anchors = (
{
name = bottom;
position = "{218, 0}";
},
{
name = top;
position = "{218, 700}";
}
);
background = {
paths = (
{
closed = 1;
nodes = (
"118 143 CURVE SMOOTH",
"94 156 OFFCURVE",
"78 167 OFFCURVE",
"67 167 CURVE SMOOTH",
"38 167 OFFCURVE",
"15 105 OFFCURVE",
"19 72 CURVE SMOOTH",
"26 28 OFFCURVE",
"110 -8 OFFCURVE",
"199 -8 CURVE SMOOTH",
"350 -8 OFFCURVE",
"417 93 OFFCURVE",
"417 201 CURVE SMOOTH",
"417 306 OFFCURVE",
"374 357 OFFCURVE",
"287 408 CURVE SMOOTH",
"234 439 OFFCURVE",
"183 456 OFFCURVE",
"183 520 CURVE SMOOTH",
"183 542 OFFCURVE",
"193 576 OFFCURVE",
"253 576 CURVE SMOOTH",
"267 576 OFFCURVE",
"284 574 OFFCURVE",
"318 561 CURVE SMOOTH",
"335 554 OFFCURVE",
"347 552 OFFCURVE",
"352 554 CURVE",
"374 559 OFFCURVE",
"392 624 OFFCURVE",
"385 651 CURVE SMOOTH",
"378 683 OFFCURVE",
"296 708 OFFCURVE",
"238 708 CURVE SMOOTH",
"114 708 OFFCURVE",
"28 638 OFFCURVE",
"28 516 CURVE SMOOTH",
"28 402 OFFCURVE",
"78 349 OFFCURVE",
"172 296 CURVE SMOOTH",
"221 269 OFFCURVE",
"264 247 OFFCURVE",
"264 189 CURVE SMOOTH",
"264 135 OFFCURVE",
"220 123 OFFCURVE",
"187 123 CURVE SMOOTH",
"168 123 OFFCURVE",
"145 129 OFFCURVE"
);
}
);
};
layerId = "6662946B-F990-402F-A6FD-22D24AB84B33";
paths = (
{
closed = 1;
nodes = (
"357 -8 OFFCURVE",
"424 93 OFFCURVE",
"424 201 CURVE SMOOTH",
"424 306 OFFCURVE",
"381 357 OFFCURVE",
"294 408 CURVE SMOOTH",
"239 439 OFFCURVE",
"187 453 OFFCURVE",
"187 517 CURVE SMOOTH",
"187 539 OFFCURVE",
"197 576 OFFCURVE",
"260 576 CURVE SMOOTH",
"274 576 OFFCURVE",
"291 574 OFFCURVE",
"325 561 CURVE SMOOTH",
"338 556 OFFCURVE",
"348 553 OFFCURVE",
"354 553 CURVE SMOOTH",
"378 553 OFFCURVE",
"394 607 OFFCURVE",
"394 637 CURVE SMOOTH",
"394 652 OFFCURVE",
"388 663 OFFCURVE",
"376 672 CURVE SMOOTH",
"348 693 OFFCURVE",
"290 708 OFFCURVE",
"245 708 CURVE SMOOTH",
"124 708 OFFCURVE",
"35 632 OFFCURVE",
"35 507 CURVE SMOOTH",
"35 399 OFFCURVE",
"88 348 OFFCURVE",
"179 296 CURVE SMOOTH",
"230 269 OFFCURVE",
"274 245 OFFCURVE",
"274 189 CURVE SMOOTH",
"274 135 OFFCURVE",
"228 123 OFFCURVE",
"194 123 CURVE SMOOTH",
"175 123 OFFCURVE",
"152 129 OFFCURVE",
"125 143 CURVE SMOOTH",
"101 156 OFFCURVE",
"85 167 OFFCURVE",
"74 167 CURVE SMOOTH",
"47 167 OFFCURVE",
"25 113 OFFCURVE",
"26 79 CURVE SMOOTH",
"26 67 OFFCURVE",
"31 56 OFFCURVE",
"39 46 CURVE SMOOTH",
"70 11 OFFCURVE",
"144 -8 OFFCURVE",
"206 -8 CURVE SMOOTH"
);
}
);
width = 437;
}
);
leftKerningGroup = S;
rightKerningGroup = S;
unicode = 0053;
userData = {
RMXScaler = {
source = S;
};
};
},
{
glyphname = Germandbls;
layers = (
{
layerId = "76F17502-367F-435E-B23E-ED9D928E777B";
paths = (
{
closed = 1;
nodes = (
"446 -6 OFFCURVE",
"554 47 OFFCURVE",
"554 206 CURVE SMOOTH",
"554 329 OFFCURVE",
"489 393 OFFCURVE",
"403 411 CURVE",
"521 606 LINE",
"523 609 OFFCURVE",
"524 613 OFFCURVE",
"524 618 CURVE SMOOTH",
"524 638 OFFCURVE",
"510 668 OFFCURVE",
"502 671 CURVE SMOOTH",
"457 686 OFFCURVE",
"384 704 OFFCURVE",
"306 705 CURVE SMOOTH",
"156 707 OFFCURVE",
"77 622 OFFCURVE",
"77 447 CURVE SMOOTH",
"77 20 LINE SMOOTH",
"77 6 OFFCURVE",
"89 -2 OFFCURVE",
"117 -2 CURVE SMOOTH",
"125 -2 LINE SMOOTH",
"153 -2 OFFCURVE",
"165 6 OFFCURVE",
"165 20 CURVE SMOOTH",
"165 446 LINE SMOOTH",
"165 577 OFFCURVE",
"210 630 OFFCURVE",
"311 630 CURVE SMOOTH",
"355 630 OFFCURVE",
"394 622 OFFCURVE",
"421 612 CURVE",
"296 401 LINE",
"294 398 OFFCURVE",
"293 394 OFFCURVE",
"293 389 CURVE SMOOTH",
"293 369 OFFCURVE",
"307 336 OFFCURVE",
"317 336 CURVE SMOOTH",
"352 336 LINE SMOOTH",
"420 336 OFFCURVE",
"467 306 OFFCURVE",
"467 207 CURVE SMOOTH",
"467 93 OFFCURVE",
"400 66 OFFCURVE",
"353 66 CURVE SMOOTH",
"298 66 OFFCURVE",
"279 101 OFFCURVE",
"254 101 CURVE SMOOTH",
"243 101 OFFCURVE",
"219 69 OFFCURVE",
"219 52 CURVE SMOOTH",
"219 29 OFFCURVE",
"281 -6 OFFCURVE",
"359 -6 CURVE SMOOTH"
);
}
);
width = 593;
},
{
layerId = "6662946B-F990-402F-A6FD-22D24AB84B33";
paths = (
{
closed = 1;
nodes = (
"497 -8 OFFCURVE",
"570 71 OFFCURVE",
"570 204 CURVE SMOOTH",
"570 334 OFFCURVE",
"510 380 OFFCURVE",
"452 410 CURVE",
"541 590 LINE",
"542 592 OFFCURVE",
"542 594 OFFCURVE",
"542 598 CURVE SMOOTH",
"542 624 OFFCURVE",
"521 688 OFFCURVE",
"505 690 CURVE SMOOTH",
"450 700 OFFCURVE",
"369 708 OFFCURVE",
"297 708 CURVE SMOOTH",
"133 708 OFFCURVE",
"47 614 OFFCURVE",
"47 432 CURVE SMOOTH",
"47 30 LINE SMOOTH",
"47 9 OFFCURVE",
"65 -2 OFFCURVE",
"107 -2 CURVE SMOOTH",
"142 -2 LINE SMOOTH",
"184 -2 OFFCURVE",
"202 9 OFFCURVE",
"202 30 CURVE SMOOTH",
"202 431 LINE SMOOTH",
"202 524 OFFCURVE",
"231 576 OFFCURVE",
"294 576 CURVE SMOOTH",
"324 576 OFFCURVE",
"349 574 OFFCURVE",
"371 571 CURVE",
"289 407 LINE",
"288 405 OFFCURVE",
"287 401 OFFCURVE",
"287 397 CURVE SMOOTH",
"287 370 OFFCURVE",
"309 308 OFFCURVE",
"326 308 CURVE SMOOTH",
"342 308 LINE SMOOTH",
"393 308 OFFCURVE",
"420 272 OFFCURVE",
"420 206 CURVE SMOOTH",
"420 144 OFFCURVE",
"400 109 OFFCURVE",
"359 109 CURVE SMOOTH",
"322 109 OFFCURVE",
"292 136 OFFCURVE",
"281 136 CURVE SMOOTH",
"258 136 OFFCURVE",
"232 79 OFFCURVE",
"232 60 CURVE SMOOTH",
"232 9 OFFCURVE",
"338 -8 OFFCURVE",
"378 -8 CURVE SMOOTH"
);
}
);
width = 593;
}
);
leftKerningGroup = H;
unicode = 1E9E;
userData = {
RMXScaler = {
source = Germandbls;
};
};
},
{
glyphname = Schwa;
layers = (
{
layerId = "76F17502-367F-435E-B23E-ED9D928E777B";
paths = (
{
closed = 1;
nodes = (
"414 -9 OFFCURVE",
"495 89 OFFCURVE",
"495 340 CURVE SMOOTH",
"495 605 OFFCURVE",
"415 706 OFFCURVE",
"268 706 CURVE SMOOTH",
"162 706 OFFCURVE",
"65 660 OFFCURVE",
"65 633 CURVE SMOOTH",
"65 622 OFFCURVE",
"85 583 OFFCURVE",
"97 583 CURVE SMOOTH",
"112 583 OFFCURVE",
"169 634 OFFCURVE",
"259 634 CURVE SMOOTH",
"350 634 OFFCURVE",
"400 568 OFFCURVE",
"405 363 CURVE",
"90 363 LINE SMOOTH",
"80 363 OFFCURVE",
"58 334 OFFCURVE",
"58 322 CURVE SMOOTH",
"58 86 OFFCURVE",
"123 -9 OFFCURVE",
"264 -9 CURVE SMOOTH"
);
},
{
closed = 1;
nodes = (
"183 63 OFFCURVE",
"146 126 OFFCURVE",
"146 291 CURVE",
"405 291 LINE",
"396 120 OFFCURVE",
"347 63 OFFCURVE",
"266 63 CURVE SMOOTH"
);
}
);
width = 560;
},
{
layerId = "6662946B-F990-402F-A6FD-22D24AB84B33";
paths = (
{
closed = 1;
nodes = (
"424 -1 OFFCURVE",
"516 94 OFFCURVE",
"516 331 CURVE SMOOTH",
"516 577 OFFCURVE",
"437 708 OFFCURVE",
"255 708 CURVE SMOOTH",
"178 708 OFFCURVE",
"50 677 OFFCURVE",
"50 623 CURVE SMOOTH",
"50 598 OFFCURVE",
"81 546 OFFCURVE",
"102 546 CURVE SMOOTH",
"120 546 OFFCURVE",
"170 585 OFFCURVE",
"248 585 CURVE SMOOTH",
"316 585 OFFCURVE",
"359 551 OFFCURVE",
"363 376 CURVE",
"90 376 LINE SMOOTH",
"77 376 OFFCURVE",
"39 334 OFFCURVE",
"39 317 CURVE SMOOTH",
"39 137 OFFCURVE",
"90 -1 OFFCURVE",
"271 -1 CURVE SMOOTH"
);
},
{
closed = 1;
nodes = (
"197 119 OFFCURVE",
"182 181 OFFCURVE",
"182 277 CURVE",
"364 277 LINE",
"353 158 OFFCURVE",
"327 119 OFFCURVE",
"269 119 CURVE SMOOTH"
);
}
);
width = 560;
}
);
leftKerningGroup = O;
rightKerningGroup = O;
unicode = 018F;
userData = {
RMXScaler = {
source = Schwa;
};
};
},
{
glyphname = T;
layers = (
{
anchors = (
{
name = bottom;
position = "{227, 0}";
},
{
name = center;
position = "{227, 350}";
},
{
name = top;
position = "{227, 700}";
}
);
layerId = "76F17502-367F-435E-B23E-ED9D928E777B";
paths = (
{
closed = 1;
nodes = (
"235 -2 LINE SMOOTH",
"262 -2 OFFCURVE",
"273 6 OFFCURVE",
"273 20 CURVE SMOOTH",
"273 624 LINE",
"415 624 LINE SMOOTH",
"429 624 OFFCURVE",
"435 633 OFFCURVE",
"435 654 CURVE SMOOTH",
"435 670 LINE SMOOTH",
"435 691 OFFCURVE",
"429 700 OFFCURVE",
"415 700 CURVE SMOOTH",
"39 700 LINE SMOOTH",
"26 700 OFFCURVE",
"20 691 OFFCURVE",
"20 670 CURVE SMOOTH",
"20 654 LINE SMOOTH",
"20 633 OFFCURVE",
"26 624 OFFCURVE",
"39 624 CURVE SMOOTH",
"183 624 LINE",
"183 20 LINE SMOOTH",
"183 6 OFFCURVE",
"194 -2 OFFCURVE",
"221 -2 CURVE SMOOTH"
);
}
);
width = 454;
},
{
anchors = (
{
name = bottom;
position = "{227, 0}";
},
{
name = center;
position = "{227, 350}";
},
{
name = top;
position = "{227, 700}";
}
);
layerId = "6662946B-F990-402F-A6FD-22D24AB84B33";
paths = (
{
closed = 1;
nodes = (
"247 -2 LINE SMOOTH",
"288 -2 OFFCURVE",
"305 9 OFFCURVE",
"305 30 CURVE SMOOTH",
"305 569 LINE",
"417 569 LINE SMOOTH",
"438 569 OFFCURVE",
"447 584 OFFCURVE",
"447 619 CURVE SMOOTH",
"447 650 LINE SMOOTH",
"447 685 OFFCURVE",
"438 700 OFFCURVE",
"417 700 CURVE SMOOTH",
"37 700 LINE SMOOTH",
"17 700 OFFCURVE",
"8 685 OFFCURVE",
"8 650 CURVE SMOOTH",
"8 619 LINE SMOOTH",
"8 584 OFFCURVE",
"17 569 OFFCURVE",
"37 569 CURVE SMOOTH",
"148 569 LINE",
"148 30 LINE SMOOTH",
"148 9 OFFCURVE",
"165 -2 OFFCURVE",
"206 -2 CURVE SMOOTH"
);
}
);
width = 454;
}
);
leftKerningGroup = T;
rightKerningGroup = T;
unicode = 0054;
userData = {
RMXScaler = {
source = T;
};
};
},
{
glyphname = Tbar;
layers = (
{
components = (
{
alignment = -1;
name = T;
},
{
name = baraccentmedium;
transform = "{1, 0, 0, 1, 53, 30}";
}
);
layerId = "76F17502-367F-435E-B23E-ED9D928E777B";
width = 454;
},
{
background = {
paths = (
{
closed = 1;
nodes = (
"361 303 LINE SMOOTH",
"382 303 OFFCURVE",
"390 315 OFFCURVE",
"390 343 CURVE SMOOTH",
"390 358 LINE SMOOTH",
"390 386 OFFCURVE",
"382 398 OFFCURVE",
"361 398 CURVE SMOOTH",
"81 398 LINE SMOOTH",
"61 398 OFFCURVE",
"52 386 OFFCURVE",
"52 358 CURVE SMOOTH",
"52 343 LINE SMOOTH",
"52 315 OFFCURVE",
"61 303 OFFCURVE",
"81 303 CURVE"
);
}
);
};
components = (
{
alignment = -1;
name = T;
},
{
name = baraccentmedium;
transform = "{1, 0, 0, 1, 54, 35}";
}
);
layerId = "6662946B-F990-402F-A6FD-22D24AB84B33";
width = 454;
}
);
leftKerningGroup = T;
rightKerningGroup = T;
unicode = 0166;
userData = {
RMXScaler = {
source = Tbar;
};
};
},
{
glyphname = U;
layers = (
{
anchors = (
{
name = bottom;
position = "{293, 0}";
},
{
name = horn;
position = "{469, 702}";
},
{
name = ogonek;
position = "{349, 0}";
},
{
name = top;
position = "{292, 700}";
}
);
layerId = "76F17502-367F-435E-B23E-ED9D928E777B";
paths = (
{
closed = 1;
nodes = (
"435 -6 OFFCURVE",
"515 69 OFFCURVE",
"515 195 CURVE SMOOTH",
"515 680 LINE SMOOTH",
"515 694 OFFCURVE",
"504 702 OFFCURVE",
"477 702 CURVE SMOOTH",
"463 702 LINE SMOOTH",
"437 702 OFFCURVE",
"425 694 OFFCURVE",
"425 680 CURVE SMOOTH",
"425 192 LINE SMOOTH",
"425 121 OFFCURVE",
"370 70 OFFCURVE",
"292 70 CURVE SMOOTH",
"214 70 OFFCURVE",
"158 120 OFFCURVE",
"158 192 CURVE SMOOTH",
"158 680 LINE SMOOTH",
"158 694 OFFCURVE",
"147 702 OFFCURVE",
"120 702 CURVE SMOOTH",
"106 702 LINE SMOOTH",
"79 702 OFFCURVE",
"68 694 OFFCURVE",
"68 680 CURVE SMOOTH",
"68 195 LINE SMOOTH",
"68 69 OFFCURVE",
"148 -6 OFFCURVE",
"292 -6 CURVE SMOOTH"
);
}
);
width = 583;
},
{
anchors = (
{
name = bottom;
position = "{292, 0}";
},
{
name = horn;
position = "{451, 702}";
},
{
name = ogonek;
position = "{349, 0}";
},
{
name = top;
position = "{292, 700}";
}
);
layerId = "6662946B-F990-402F-A6FD-22D24AB84B33";
paths = (
{
closed = 1;
nodes = (
"442 -8 OFFCURVE",
"532 70 OFFCURVE",
"532 205 CURVE SMOOTH",
"532 670 LINE SMOOTH",
"532 691 OFFCURVE",
"515 702 OFFCURVE",
"474 702 CURVE SMOOTH",
"435 702 LINE SMOOTH",
"395 702 OFFCURVE",
"377 691 OFFCURVE",
"377 670 CURVE SMOOTH",
"377 215 LINE SMOOTH",
"377 162 OFFCURVE",
"344 123 OFFCURVE",
"292 123 CURVE SMOOTH",
"239 123 OFFCURVE",
"207 162 OFFCURVE",
"207 215 CURVE SMOOTH",
"207 670 LINE SMOOTH",
"207 691 OFFCURVE",
"190 702 OFFCURVE",
"149 702 CURVE SMOOTH",
"109 702 LINE SMOOTH",
"68 702 OFFCURVE",
"51 691 OFFCURVE",
"51 670 CURVE SMOOTH",
"51 205 LINE SMOOTH",
"51 70 OFFCURVE",
"142 -8 OFFCURVE",
"292 -8 CURVE SMOOTH"
);
}
);
width = 583;
}
);
leftKerningGroup = U;
rightKerningGroup = U;
unicode = 0055;
userData = {
RMXScaler = {
source = U;
};
};
},
{
glyphname = Uhorn;
layers = (
{
anchors = (
{
name = bottom;
position = "{286, 0}";
},
{
name = ogonek;
position = "{411, 22}";
},
{
name = top;
position = "{291, 700}";
}
);
layerId = "76F17502-367F-435E-B23E-ED9D928E777B";
paths = (
{
closed = 1;
nodes = (
"596 788 OFFCURVE",
"576 833 OFFCURVE",
"553 833 CURVE SMOOTH",
"549 833 OFFCURVE",
"545 832 OFFCURVE",
"541 829 CURVE",
"517 813 LINE SMOOTH",
"511 809 OFFCURVE",
"508 803 OFFCURVE",
"508 797 CURVE SMOOTH",
"508 785 OFFCURVE",
"535 765 OFFCURVE",
"535 735 CURVE SMOOTH",
"535 720 OFFCURVE",
"526 702 OFFCURVE",
"492 702 CURVE SMOOTH",
"463 702 LINE SMOOTH",
"437 702 OFFCURVE",
"425 694 OFFCURVE",
"425 680 CURVE SMOOTH",
"425 192 LINE SMOOTH",
"425 121 OFFCURVE",
"370 70 OFFCURVE",
"292 70 CURVE SMOOTH",
"214 70 OFFCURVE",
"158 120 OFFCURVE",
"158 192 CURVE SMOOTH",
"158 680 LINE SMOOTH",
"158 694 OFFCURVE",
"147 702 OFFCURVE",
"120 702 CURVE SMOOTH",
"106 702 LINE SMOOTH",
"79 702 OFFCURVE",
"68 694 OFFCURVE",
"68 680 CURVE SMOOTH",
"68 195 LINE SMOOTH",
"68 69 OFFCURVE",
"148 -6 OFFCURVE",
"292 -6 CURVE SMOOTH",
"435 -6 OFFCURVE",
"515 69 OFFCURVE",
"515 195 CURVE SMOOTH",
"515 671 LINE",
"571 677 OFFCURVE",
"596 711 OFFCURVE",
"596 759 CURVE SMOOTH"
);
}
);
width = 583;
},
{
anchors = (
{
name = bottom;
position = "{285, 0}";
},
{
name = ogonek;
position = "{431, 27}";
},
{
name = top;
position = "{290, 700}";
}
);
layerId = "6662946B-F990-402F-A6FD-22D24AB84B33";
paths = (
{
closed = 1;
nodes = (
"608 783 OFFCURVE",
"587 836 OFFCURVE",
"561 836 CURVE SMOOTH",
"555 836 OFFCURVE",
"550 835 OFFCURVE",
"545 831 CURVE",
"513 809 LINE",
"505 804 OFFCURVE",
"502 797 OFFCURVE",
"502 790 CURVE SMOOTH",
"502 777 OFFCURVE",
"529 760 OFFCURVE",
"529 735 CURVE SMOOTH",
"529 715 OFFCURVE",
"513 702 OFFCURVE",
"486 702 CURVE SMOOTH",
"435 702 LINE SMOOTH",
"395 702 OFFCURVE",
"377 691 OFFCURVE",
"377 670 CURVE SMOOTH",
"377 215 LINE SMOOTH",
"377 162 OFFCURVE",
"344 123 OFFCURVE",
"292 123 CURVE SMOOTH",
"239 123 OFFCURVE",
"207 162 OFFCURVE",
"207 215 CURVE SMOOTH",
"207 670 LINE SMOOTH",
"207 691 OFFCURVE",
"190 702 OFFCURVE",
"149 702 CURVE SMOOTH",
"109 702 LINE SMOOTH",
"68 702 OFFCURVE",
"51 691 OFFCURVE",
"51 670 CURVE SMOOTH",
"51 205 LINE SMOOTH",
"51 70 OFFCURVE",
"142 -8 OFFCURVE",
"292 -8 CURVE SMOOTH",
"442 -8 OFFCURVE",
"532 70 OFFCURVE",
"532 205 CURVE SMOOTH",
"532 664 LINE",
"584 675 OFFCURVE",
"608 708 OFFCURVE",
"608 753 CURVE SMOOTH"
);
}
);
width = 583;
}
);
leftKerningGroup = U;
rightKerningGroup = U;
unicode = 01AF;
userData = {
RMXScaler = {
source = Uhorn;
};
};
},
{
glyphname = V;
layers = (
{
background = {
anchors = (
{
name = bottom;
position = "{245, 0}";
},
{
name = ogonek;
position = "{47, 686}";
},
{
name = top;
position = "{244, 700}";
}
);
paths = (
{
closed = 1;
nodes = (
"432 702 LINE SMOOTH",
"414 702 OFFCURVE",
"399 698 OFFCURVE",
"396 686 CURVE SMOOTH",
"354 522 LINE",
"139 522 LINE",
"96 686 LINE SMOOTH",
"93 698 OFFCURVE",
"79 702 OFFCURVE",
"60 702 CURVE SMOOTH",
"43 702 LINE SMOOTH",
"18 702 OFFCURVE",
"6 695 OFFCURVE",
"6 685 CURVE SMOOTH",
"6 681 OFFCURVE",
"7 677 OFFCURVE",
"9 672 CURVE SMOOTH",
"190 17 LINE SMOOTH",
"193 4 OFFCURVE",
"206 -2 OFFCURVE",
"230 -2 CURVE SMOOTH",
"262 -2 LINE SMOOTH",
"285 -2 OFFCURVE",
"298 4 OFFCURVE",
"302 17 CURVE SMOOTH",
"483 672 LINE SMOOTH",
"484 677 OFFCURVE",
"485 681 OFFCURVE",
"485 685 CURVE SMOOTH",
"485 695 OFFCURVE",
"474 702 OFFCURVE",
"448 702 CURVE SMOOTH"
);
},
{
closed = 1;
nodes = (
"260 172 LINE SMOOTH",
"255 153 OFFCURVE",
"252 130 OFFCURVE",
"248 111 CURVE",
"243 111 LINE",
"240 130 OFFCURVE",
"237 153 OFFCURVE",
"232 172 CURVE SMOOTH",
"161 446 LINE",
"331 446 LINE"
);
}
);
};
layerId = "76F17502-367F-435E-B23E-ED9D928E777B";
paths = (
{
closed = 1;
nodes = (
"275 -2 LINE SMOOTH",
"294 -2 OFFCURVE",
"309 2 OFFCURVE",
"312 14 CURVE SMOOTH",
"486 671 LINE SMOOTH",
"488 677 OFFCURVE",
"489 681 OFFCURVE",
"489 685 CURVE SMOOTH",
"489 696 OFFCURVE",
"476 702 OFFCURVE",
"449 702 CURVE SMOOTH",
"437 702 LINE SMOOTH",
"418 702 OFFCURVE",
"403 698 OFFCURVE",
"400 686 CURVE SMOOTH",
"277 191 LINE SMOOTH",
"269 158 OFFCURVE",
"260 120 OFFCURVE",
"257 102 CURVE",
"254 102 LINE",
"249 129 OFFCURVE",
"241 168 OFFCURVE",
"235 191 CURVE SMOOTH",
"111 686 LINE SMOOTH",
"108 698 OFFCURVE",
"93 702 OFFCURVE",
"74 702 CURVE SMOOTH",
"60 702 LINE SMOOTH",
"32 702 OFFCURVE",
"20 695 OFFCURVE",
"20 685 CURVE SMOOTH",
"20 681 OFFCURVE",
"22 677 OFFCURVE",
"23 672 CURVE SMOOTH",
"197 14 LINE SMOOTH",
"200 2 OFFCURVE",
"214 -2 OFFCURVE",
"233 -2 CURVE SMOOTH"
);
}
);
width = 508;
},
{
background = {
paths = (
{
closed = 1;
nodes = (
"295 -2 LINE SMOOTH",
"323 -2 OFFCURVE",
"344 3 OFFCURVE",
"348 19 CURVE SMOOTH",
"500 662 LINE SMOOTH",
"502 669 OFFCURVE",
"503 675 OFFCURVE",
"503 680 CURVE SMOOTH",
"503 694 OFFCURVE",
"485 702 OFFCURVE",
"446 702 CURVE SMOOTH",
"409 702 LINE SMOOTH",
"381 702 OFFCURVE",
"358 695 OFFCURVE",
"354 673 CURVE SMOOTH",
"264 221 LINE",
"255 152 LINE",
"251 152 LINE",
"242 221 LINE",
"157 673 LINE SMOOTH",
"153 695 OFFCURVE",
"130 702 OFFCURVE",
"102 702 CURVE SMOOTH",
"64 702 LINE SMOOTH",
"25 702 OFFCURVE",
"6 694 OFFCURVE",
"6 680 CURVE SMOOTH",
"6 675 OFFCURVE",
"8 669 OFFCURVE",
"10 662 CURVE SMOOTH",
"162 19 LINE SMOOTH",
"166 3 OFFCURVE",
"187 -2 OFFCURVE",
"215 -2 CURVE SMOOTH"
);
}
);
};
layerId = "6662946B-F990-402F-A6FD-22D24AB84B33";
paths = (
{
closed = 1;
nodes = (
"295 -2 LINE SMOOTH",
"323 -2 OFFCURVE",
"344 3 OFFCURVE",
"348 19 CURVE SMOOTH",
"500 662 LINE SMOOTH",
"502 669 OFFCURVE",
"503 675 OFFCURVE",
"503 680 CURVE SMOOTH",
"503 694 OFFCURVE",
"485 702 OFFCURVE",
"446 702 CURVE SMOOTH",
"409 702 LINE SMOOTH",
"381 702 OFFCURVE",
"358 695 OFFCURVE",
"354 673 CURVE SMOOTH",
"274 261 LINE SMOOTH",
"270 238 OFFCURVE",
"262 187 OFFCURVE",
"257 142 CURVE",
"253 142 LINE",
"248 181 OFFCURVE",
"242 232 OFFCURVE",
"236 261 CURVE SMOOTH",
"157 673 LINE SMOOTH",
"153 695 OFFCURVE",
"130 702 OFFCURVE",
"102 702 CURVE SMOOTH",
"64 702 LINE SMOOTH",
"25 702 OFFCURVE",
"6 694 OFFCURVE",
"6 680 CURVE SMOOTH",
"6 675 OFFCURVE",
"8 669 OFFCURVE",
"10 662 CURVE SMOOTH",
"162 19 LINE SMOOTH",
"166 3 OFFCURVE",
"187 -2 OFFCURVE",
"215 -2 CURVE SMOOTH"
);
}
);
width = 508;
}
);
leftKerningGroup = V;
rightKerningGroup = V;
unicode = 0056;
userData = {
RMXScaler = {
source = V;
};
};
},
{
glyphname = W;
layers = (
{
anchors = (
{
name = top;
position = "{377, 700}";
}
);
layerId = "76F17502-367F-435E-B23E-ED9D928E777B";
paths = (
{
closed = 1;
nodes = (
"236 -2 LINE SMOOTH",
"255 -2 OFFCURVE",
"270 2 OFFCURVE",
"272 14 CURVE SMOOTH",
"360 435 LINE",
"365 477 OFFCURVE",
"369 518 OFFCURVE",
"374 560 CURVE",
"378 560 LINE",
"383 518 OFFCURVE",
"387 477 OFFCURVE",
"392 435 CURVE",
"480 14 LINE SMOOTH",
"482 2 OFFCURVE",
"497 -2 OFFCURVE",
"516 -2 CURVE SMOOTH",
"556 -2 LINE SMOOTH",
"575 -2 OFFCURVE",
"590 2 OFFCURVE",
"592 14 CURVE SMOOTH",
"732 671 LINE SMOOTH",
"733 676 OFFCURVE",
"734 681 OFFCURVE",
"734 683 CURVE SMOOTH",
"734 695 OFFCURVE",
"723 702 OFFCURVE",
"694 702 CURVE SMOOTH",
"683 702 LINE SMOOTH",
"661 702 OFFCURVE",
"645 698 OFFCURVE",
"643 686 CURVE SMOOTH",
"554 203 LINE",
"548 166 OFFCURVE",
"543 129 OFFCURVE",
"537 92 CURVE",
"533 92 LINE",
"528 129 OFFCURVE",
"523 167 OFFCURVE",
"518 204 CURVE",
"424 685 LINE SMOOTH",
"421 698 OFFCURVE",
"407 702 OFFCURVE",
"388 702 CURVE SMOOTH",
"368 702 LINE SMOOTH",
"349 702 OFFCURVE",
"335 698 OFFCURVE",
"332 685 CURVE SMOOTH",
"239 206 LINE",
"233 168 OFFCURVE",
"227 130 OFFCURVE",
"221 92 CURVE",
"217 92 LINE",
"212 129 OFFCURVE",
"208 166 OFFCURVE",
"203 203 CURVE",
"111 686 LINE SMOOTH",
"109 698 OFFCURVE",
"94 702 OFFCURVE",
"72 702 CURVE SMOOTH",
"59 702 LINE SMOOTH",
"30 702 OFFCURVE",
"19 695 OFFCURVE",
"19 683 CURVE SMOOTH",
"19 680 OFFCURVE",
"20 676 OFFCURVE",
"21 671 CURVE SMOOTH",
"160 14 LINE SMOOTH",
"162 2 OFFCURVE",
"177 -2 OFFCURVE",
"196 -2 CURVE SMOOTH"
);
}
);
width = 752;
},
{
anchors = (
{
name = top;
position = "{378, 700}";
}
);
layerId = "6662946B-F990-402F-A6FD-22D24AB84B33";
paths = (
{
closed = 1;
nodes = (
"250 -2 LINE SMOOTH",
"276 -2 OFFCURVE",
"292 5 OFFCURVE",
"295 19 CURVE SMOOTH",
"356 332 LINE SMOOTH",
"364 371 OFFCURVE",
"372 443 OFFCURVE",
"374 499 CURVE",
"378 499 LINE",
"379 447 OFFCURVE",
"386 376 OFFCURVE",
"395 332 CURVE SMOOTH",
"455 19 LINE SMOOTH",
"458 5 OFFCURVE",
"474 -2 OFFCURVE",
"500 -2 CURVE SMOOTH",
"566 -2 LINE SMOOTH",
"596 -2 OFFCURVE",
"610 5 OFFCURVE",
"613 19 CURVE SMOOTH",
"746 661 LINE SMOOTH",
"747 667 OFFCURVE",
"747 672 OFFCURVE",
"747 676 CURVE SMOOTH",
"747 692 OFFCURVE",
"729 702 OFFCURVE",
"688 702 CURVE SMOOTH",
"665 702 LINE SMOOTH",
"625 702 OFFCURVE",
"604 692 OFFCURVE",
"601 671 CURVE SMOOTH",
"553 302 LINE SMOOTH",
"545 244 OFFCURVE",
"537 178 OFFCURVE",
"535 149 CURVE",
"531 149 LINE",
"527 188 OFFCURVE",
"519 254 OFFCURVE",
"511 302 CURVE SMOOTH",
"451 681 LINE SMOOTH",
"448 697 OFFCURVE",
"436 702 OFFCURVE",
"404 702 CURVE SMOOTH",
"354 702 LINE SMOOTH",
"322 702 OFFCURVE",
"310 697 OFFCURVE",
"307 681 CURVE SMOOTH",
"246 302 LINE SMOOTH",
"237 245 OFFCURVE",
"228 180 OFFCURVE",
"225 152 CURVE",
"221 152 LINE",
"220 171 OFFCURVE",
"213 236 OFFCURVE",
"205 302 CURVE SMOOTH",
"158 671 LINE SMOOTH",
"155 692 OFFCURVE",
"134 702 OFFCURVE",
"94 702 CURVE SMOOTH",
"65 702 LINE SMOOTH",
"24 702 OFFCURVE",
"6 692 OFFCURVE",
"6 676 CURVE SMOOTH",
"6 672 OFFCURVE",
"5 667 OFFCURVE",
"6 661 CURVE SMOOTH",
"137 19 LINE SMOOTH",
"140 5 OFFCURVE",
"153 -2 OFFCURVE",
"184 -2 CURVE SMOOTH"
);
}
);
width = 752;
}
);
leftKerningGroup = V;
rightKerningGroup = V;
unicode = 0057;
userData = {
RMXScaler = {
source = W;
};
};
},
{
glyphname = X;
layers = (
{
layerId = "76F17502-367F-435E-B23E-ED9D928E777B";
paths = (
{
closed = 1;
nodes = (
"78 -2 LINE SMOOTH",
"96 -2 OFFCURVE",
"111 0 OFFCURVE",
"117 12 CURVE SMOOTH",
"253 298 LINE",
"385 13 LINE SMOOTH",
"391 1 OFFCURVE",
"405 -2 OFFCURVE",
"424 -2 CURVE SMOOTH",
"444 -2 LINE SMOOTH",
"474 -2 OFFCURVE",
"486 4 OFFCURVE",
"486 15 CURVE SMOOTH",
"486 20 OFFCURVE",
"483 25 OFFCURVE",
"479 33 CURVE SMOOTH",
"311 370 LINE",
"463 667 LINE SMOOTH",
"467 675 OFFCURVE",
"470 680 OFFCURVE",
"470 685 CURVE SMOOTH",
"470 697 OFFCURVE",
"457 702 OFFCURVE",
"428 702 CURVE SMOOTH",
"414 702 LINE SMOOTH",
"396 702 OFFCURVE",
"381 700 OFFCURVE",
"375 688 CURVE SMOOTH",
"255 436 LINE",
"140 687 LINE SMOOTH",
"134 700 OFFCURVE",
"120 702 OFFCURVE",
"102 702 CURVE SMOOTH",
"82 702 LINE SMOOTH",
"52 702 OFFCURVE",
"40 696 OFFCURVE",
"40 685 CURVE SMOOTH",
"40 680 OFFCURVE",
"43 674 OFFCURVE",
"47 667 CURVE SMOOTH",
"196 365 LINE",
"28 33 LINE SMOOTH",
"24 25 OFFCURVE",
"21 20 OFFCURVE",
"21 15 CURVE SMOOTH",
"21 3 OFFCURVE",
"33 -2 OFFCURVE",
"63 -2 CURVE SMOOTH"
);
}
);
width = 506;
},
{
layerId = "6662946B-F990-402F-A6FD-22D24AB84B33";
paths = (
{
closed = 1;
nodes = (
"113 -2 LINE SMOOTH",
"142 -2 OFFCURVE",
"161 -2 OFFCURVE",
"168 18 CURVE SMOOTH",
"258 272 LINE",
"340 17 LINE SMOOTH",
"345 2 OFFCURVE",
"368 -2 OFFCURVE",
"395 -2 CURVE SMOOTH",
"438 -2 LINE SMOOTH",
"478 -2 OFFCURVE",
"497 5 OFFCURVE",
"497 17 CURVE SMOOTH",
"497 24 OFFCURVE",
"494 31 OFFCURVE",
"489 42 CURVE SMOOTH",
"352 363 LINE",
"488 658 LINE SMOOTH",
"493 669 OFFCURVE",
"496 677 OFFCURVE",
"496 683 CURVE SMOOTH",
"496 695 OFFCURVE",
"476 702 OFFCURVE",
"437 702 CURVE SMOOTH",
"390 702 LINE SMOOTH",
"361 702 OFFCURVE",
"340 700 OFFCURVE",
"334 682 CURVE SMOOTH",
"258 447 LINE",
"188 683 LINE SMOOTH",
"183 699 OFFCURVE",
"160 702 OFFCURVE",
"134 702 CURVE SMOOTH",
"87 702 LINE SMOOTH",
"47 702 OFFCURVE",
"27 694 OFFCURVE",
"27 683 CURVE SMOOTH",
"27 676 OFFCURVE",
"32 668 OFFCURVE",
"36 658 CURVE SMOOTH",
"162 365 LINE",
"17 42 LINE SMOOTH",
"12 30 OFFCURVE",
"9 23 OFFCURVE",
"9 17 CURVE SMOOTH",
"9 5 OFFCURVE",
"27 -2 OFFCURVE",
"68 -2 CURVE SMOOTH"
);
}
);
width = 506;
}
);
leftKerningGroup = X;
rightKerningGroup = X;
unicode = 0058;
userData = {
RMXScaler = {
source = X;
};
};
},
{
glyphname = Y;
layers = (
{
anchors = (
{
name = bottom;
position = "{242, 0}";
},
{
name = top;
position = "{242, 700}";
}
);
layerId = "76F17502-367F-435E-B23E-ED9D928E777B";
paths = (
{
closed = 1;
nodes = (
"249 -2 LINE SMOOTH",
"276 -2 OFFCURVE",
"287 6 OFFCURVE",
"287 20 CURVE SMOOTH",
"287 314 LINE",
"458 667 LINE SMOOTH",
"462 674 OFFCURVE",
"464 680 OFFCURVE",
"464 685 CURVE SMOOTH",
"464 696 OFFCURVE",
"453 701 OFFCURVE",
"426 702 CURVE",
"412 702 LINE",
"393 702 OFFCURVE",
"377 700 OFFCURVE",
"372 688 CURVE SMOOTH",
"245 405 LINE",
"119 687 LINE SMOOTH",
"113 700 OFFCURVE",
"100 702 OFFCURVE",
"80 702 CURVE SMOOTH",
"62 702 LINE SMOOTH",
"32 702 OFFCURVE",
"20 696 OFFCURVE",
"20 685 CURVE SMOOTH",
"20 680 OFFCURVE",
"23 674 OFFCURVE",
"27 667 CURVE SMOOTH",
"197 317 LINE",
"197 20 LINE SMOOTH",
"197 6 OFFCURVE",
"208 -2 OFFCURVE",
"235 -2 CURVE SMOOTH"
);
}
);
width = 484;
},
{
anchors = (
{
name = bottom;
position = "{244, 0}";
},
{
name = top;
position = "{242, 700}";
}
);
layerId = "6662946B-F990-402F-A6FD-22D24AB84B33";
paths = (
{
closed = 1;
nodes = (
"263 -2 LINE SMOOTH",
"304 -2 OFFCURVE",
"322 9 OFFCURVE",
"322 30 CURVE SMOOTH",
"322 299 LINE",
"476 657 LINE SMOOTH",
"481 668 OFFCURVE",
"483 676 OFFCURVE",
"483 682 CURVE SMOOTH",
"483 694 OFFCURVE",
"464 702 OFFCURVE",
"420 702 CURVE SMOOTH",
"378 702 LINE SMOOTH",
"350 702 OFFCURVE",
"328 699 OFFCURVE",
"323 683 CURVE SMOOTH",
"246 437 LINE",
"168 683 LINE SMOOTH",
"163 698 OFFCURVE",
"140 702 OFFCURVE",
"113 702 CURVE SMOOTH",
"62 702 LINE SMOOTH",
"22 702 OFFCURVE",
"2 694 OFFCURVE",
"2 682 CURVE SMOOTH",
"2 676 OFFCURVE",
"7 667 OFFCURVE",
"11 657 CURVE SMOOTH",
"165 302 LINE",
"165 30 LINE SMOOTH",
"165 9 OFFCURVE",
"183 -2 OFFCURVE",
"224 -2 CURVE SMOOTH"
);
}
);
width = 484;
}
);
leftKerningGroup = Y;
rightKerningGroup = Y;
unicode = 0059;
userData = {
RMXScaler = {
source = Y;
};
};
},
{
glyphname = Z;
layers = (
{
anchors = (
{
name = bottom;
position = "{262, 0}";
},
{
name = top;
position = "{257, 700}";
}
);
layerId = "76F17502-367F-435E-B23E-ED9D928E777B";
paths = (
{
closed = 1;
nodes = (
"447 0 LINE SMOOTH",
"460 0 OFFCURVE",
"466 10 OFFCURVE",
"466 34 CURVE SMOOTH",
"466 42 LINE SMOOTH",
"466 66 OFFCURVE",
"460 76 OFFCURVE",
"447 76 CURVE SMOOTH",
"146 76 LINE",
"465 635 LINE SMOOTH",
"466 638 OFFCURVE",
"466 642 OFFCURVE",
"466 647 CURVE SMOOTH",
"466 668 OFFCURVE",
"453 700 OFFCURVE",
"444 700 CURVE SMOOTH",
"78 700 LINE SMOOTH",
"65 700 OFFCURVE",
"60 690 OFFCURVE",
"60 666 CURVE SMOOTH",
"60 658 LINE SMOOTH",
"60 634 OFFCURVE",
"65 624 OFFCURVE",
"78 624 CURVE SMOOTH",
"357 624 LINE",
"36 65 LINE SMOOTH",
"35 62 OFFCURVE",
"34 58 OFFCURVE",
"34 53 CURVE SMOOTH",
"34 33 OFFCURVE",
"47 0 OFFCURVE",
"58 0 CURVE"
);
}
);
width = 507;
},
{
anchors = (
{
name = bottom;
position = "{252, 0}";
},
{
name = top;
position = "{256, 700}";
}
);
layerId = "6662946B-F990-402F-A6FD-22D24AB84B33";
paths = (
{
closed = 1;
nodes = (
"448 0 LINE SMOOTH",
"468 0 OFFCURVE",
"477 15 OFFCURVE",
"477 50 CURVE SMOOTH",
"477 81 LINE SMOOTH",
"477 116 OFFCURVE",
"468 131 OFFCURVE",
"448 131 CURVE SMOOTH",
"223 131 LINE",
"472 592 LINE SMOOTH",
"475 598 OFFCURVE",
"475 604 OFFCURVE",
"475 608 CURVE SMOOTH",
"475 634 OFFCURVE",
"456 700 OFFCURVE",
"438 700 CURVE SMOOTH",
"73 700 LINE SMOOTH",
"53 700 OFFCURVE",
"45 685 OFFCURVE",
"45 650 CURVE SMOOTH",
"45 619 LINE SMOOTH",
"45 584 OFFCURVE",
"53 569 OFFCURVE",
"73 569 CURVE SMOOTH",
"278 569 LINE",
"24 99 LINE SMOOTH",
"23 97 OFFCURVE",
"23 93 OFFCURVE",
"23 89 CURVE SMOOTH",
"23 62 OFFCURVE",
"44 0 OFFCURVE",
"62 0 CURVE"
);
}
);
width = 507;
}
);
leftKerningGroup = Z;
rightKerningGroup = Z;
unicode = 005A;
userData = {
RMXScaler = {
source = Z;
};
};
},
{
glyphname = Y.loclGUA;
layers = (
{
anchors = (
{
name = bottom;
position = "{245, 0}";
},
{
name = top;
position = "{249, 700}";
}
);
layerId = "76F17502-367F-435E-B23E-ED9D928E777B";
paths = (
{
closed = 1;
nodes = (
"378 -8 OFFCURVE",
"436 57 OFFCURVE",
"436 274 CURVE SMOOTH",
"436 680 LINE SMOOTH",
"436 694 OFFCURVE",
"424 702 OFFCURVE",
"396 702 CURVE SMOOTH",
"392 702 LINE SMOOTH",
"364 702 OFFCURVE",
"352 694 OFFCURVE",
"352 680 CURVE SMOOTH",
"352 354 LINE",
"322 312 OFFCURVE",
"281 284 OFFCURVE",
"238 284 CURVE SMOOTH",
"181 284 OFFCURVE",
"147 316 OFFCURVE",
"147 370 CURVE SMOOTH",
"147 680 LINE SMOOTH",
"147 694 OFFCURVE",
"135 702 OFFCURVE",
"107 702 CURVE SMOOTH",
"103 702 LINE SMOOTH",
"75 702 OFFCURVE",
"63 694 OFFCURVE",
"63 680 CURVE SMOOTH",
"63 362 LINE SMOOTH",
"63 267 OFFCURVE",
"120 211 OFFCURVE",
"215 211 CURVE SMOOTH",
"272 211 OFFCURVE",
"329 238 OFFCURVE",
"370 298 CURVE",
"352 323 LINE",
"352 278 LINE",
"353 118 OFFCURVE",
"323 64 OFFCURVE",
"232 64 CURVE SMOOTH",
"142 64 OFFCURVE",
"86 97 OFFCURVE",
"75 97 CURVE SMOOTH",
"72 97 OFFCURVE",
"66 91 OFFCURVE",
"66 67 CURVE SMOOTH",
"66 63 OFFCURVE",
"66 49 OFFCURVE",
"67 42 CURVE SMOOTH",
"70 21 OFFCURVE",
"144 -8 OFFCURVE",
"244 -8 CURVE SMOOTH"
);
}
);
width = 498;
},
{
anchors = (
{
name = bottom;
position = "{236, 0}";
},
{
name = top;
position = "{244, 700}";
}
);
layerId = "6662946B-F990-402F-A6FD-22D24AB84B33";
paths = (
{
closed = 1;
nodes = (
"390 -9 OFFCURVE",
"452 83 OFFCURVE",
"452 273 CURVE SMOOTH",
"452 669 LINE SMOOTH",
"452 690 OFFCURVE",
"434 701 OFFCURVE",
"392 701 CURVE SMOOTH",
"364 701 LINE SMOOTH",
"322 701 OFFCURVE",
"304 690 OFFCURVE",
"304 669 CURVE SMOOTH",
"304 388 LINE",
"294 361 OFFCURVE",
"278 330 OFFCURVE",
"244 330 CURVE SMOOTH",
"207 330 OFFCURVE",
"190 350 OFFCURVE",
"190 386 CURVE SMOOTH",
"190 669 LINE SMOOTH",
"190 690 OFFCURVE",
"172 701 OFFCURVE",
"130 701 CURVE SMOOTH",
"102 701 LINE SMOOTH",
"60 701 OFFCURVE",
"42 690 OFFCURVE",
"42 669 CURVE SMOOTH",
"42 364 LINE SMOOTH",
"42 260 OFFCURVE",
"88 208 OFFCURVE",
"186 208 CURVE SMOOTH",
"256 208 OFFCURVE",
"304 249 OFFCURVE",
"324 303 CURVE",
"304 341 LINE",
"304 219 LINE SMOOTH",
"304 145 OFFCURVE",
"271 108 OFFCURVE",
"203 108 CURVE SMOOTH",
"126 108 OFFCURVE",
"76 148 OFFCURVE",
"64 148 CURVE SMOOTH",
"55 148 OFFCURVE",
"45 137 OFFCURVE",
"45 110 CURVE SMOOTH",
"45 99 OFFCURVE",
"46 79 OFFCURVE",
"48 62 CURVE SMOOTH",
"55 19 OFFCURVE",
"144 -9 OFFCURVE",
"241 -9 CURVE SMOOTH"
);
}
);
width = 498;
}
);
leftKerningGroup = Y.loclGUA;
rightKerningGroup = Y.loclGUA;
userData = {
RMXScaler = {
source = Y;
};
};
},
{
glyphname = a;
layers = (
{
anchors = (
{
name = bottom;
position = "{234, 0}";
},
{
name = ogonek;
position = "{409, 0}";
},
{
name = top;
position = "{244, 523}";
}
);
layerId = "76F17502-367F-435E-B23E-ED9D928E777B";
paths = (
{
closed = 1;
nodes = (
"253 -6 OFFCURVE",
"294 18 OFFCURVE",
"327 58 CURVE",
"333 31 OFFCURVE",
"340 -1 OFFCURVE",
"362 -1 CURVE SMOOTH",
"375 -1 OFFCURVE",
"416 3 OFFCURVE",
"416 22 CURVE SMOOTH",
"416 27 OFFCURVE",
"404 66 OFFCURVE",
"404 148 CURVE SMOOTH",
"404 378 LINE SMOOTH",
"404 473 OFFCURVE",
"341 529 OFFCURVE",
"234 529 CURVE SMOOTH",
"148 529 OFFCURVE",
"69 496 OFFCURVE",
"69 470 CURVE SMOOTH",
"69 459 OFFCURVE",
"90 421 OFFCURVE",
"104 421 CURVE SMOOTH",
"115 421 OFFCURVE",
"158 457 OFFCURVE",
"233 457 CURVE SMOOTH",
"298 457 OFFCURVE",
"320 420 OFFCURVE",
"320 379 CURVE SMOOTH",
"320 332 LINE",
"198 330 OFFCURVE",
"51 311 OFFCURVE",
"51 149 CURVE SMOOTH",
"51 48 OFFCURVE",
"109 -6 OFFCURVE",
"197 -6 CURVE SMOOTH"
);
},
{
closed = 1;
nodes = (
"163 73 OFFCURVE",
"139 100 OFFCURVE",
"139 150 CURVE SMOOTH",
"139 252 OFFCURVE",
"236 257 OFFCURVE",
"320 259 CURVE",
"320 130 LINE",
"294 94 OFFCURVE",
"258 73 OFFCURVE",
"214 73 CURVE SMOOTH"
);
}
);
width = 481;
},
{
anchors = (
{
name = bottom;
position = "{235, 0}";
},
{
name = ogonek;
position = "{387, 0}";
},
{
name = top;
position = "{235, 523}";
}
);
layerId = "6662946B-F990-402F-A6FD-22D24AB84B33";
paths = (
{
closed = 1;
nodes = (
"233 -8 OFFCURVE",
"269 27 OFFCURVE",
"283 50 CURVE",
"290 21 OFFCURVE",
"295 -1 OFFCURVE",
"319 -1 CURVE SMOOTH",
"344 -1 OFFCURVE",
"431 7 OFFCURVE",
"431 31 CURVE SMOOTH",
"431 52 OFFCURVE",
"419 73 OFFCURVE",
"419 176 CURVE SMOOTH",
"419 358 LINE SMOOTH",
"419 459 OFFCURVE",
"367 531 OFFCURVE",
"221 531 CURVE SMOOTH",
"142 531 OFFCURVE",
"60 500 OFFCURVE",
"60 465 CURVE SMOOTH",
"60 444 OFFCURVE",
"91 385 OFFCURVE",
"112 385 CURVE SMOOTH",
"126 385 OFFCURVE",
"158 414 OFFCURVE",
"210 414 CURVE SMOOTH",
"253 414 OFFCURVE",
"271 393 OFFCURVE",
"271 351 CURVE SMOOTH",
"271 335 LINE",
"65 336 OFFCURVE",
"38 225 OFFCURVE",
"38 149 CURVE SMOOTH",
"38 54 OFFCURVE",
"85 -8 OFFCURVE",
"175 -8 CURVE SMOOTH"
);
},
{
closed = 1;
nodes = (
"188 99 OFFCURVE",
"171 124 OFFCURVE",
"171 160 CURVE SMOOTH",
"171 212 OFFCURVE",
"197 249 OFFCURVE",
"271 249 CURVE",
"271 132 LINE",
"261 112 OFFCURVE",
"241 99 OFFCURVE",
"220 99 CURVE SMOOTH"
);
}
);
width = 481;
}
);
leftKerningGroup = a;
rightKerningGroup = a;
unicode = 0061;
userData = {
RMXScaler = {
source = a;
};
};
},
{
glyphname = acircumflextilde;
layers = (
{
background = {
paths = (
{
closed = 1;
nodes = (
"119 751 OFFCURVE",
"122 750 OFFCURVE",
"125 750 CURVE SMOOTH",
"131 750 OFFCURVE",
"135 754 OFFCURVE",
"141 764 CURVE SMOOTH",
"152 784 OFFCURVE",
"160 791 OFFCURVE",
"173 791 CURVE SMOOTH",
"205 791 OFFCURVE",
"251 751 OFFCURVE",
"292 751 CURVE SMOOTH",
"324 751 OFFCURVE",
"348 769 OFFCURVE",
"366 819 CURVE SMOOTH",
"369 825 OFFCURVE",
"370 829 OFFCURVE",
"370 833 CURVE SMOOTH",
"370 839 OFFCURVE",
"367 841 OFFCURVE",
"359 845 CURVE SMOOTH",
"353 848 LINE SMOOTH",
"349 850 OFFCURVE",
"346 851 OFFCURVE",
"343 851 CURVE SMOOTH",
"337 851 OFFCURVE",
"331 847 OFFCURVE",
"325 836 CURVE SMOOTH",
"313 816 OFFCURVE",
"304 810 OFFCURVE",
"290 810 CURVE SMOOTH",
"259 810 OFFCURVE",
"213 850 OFFCURVE",
"175 850 CURVE SMOOTH",
"142 850 OFFCURVE",
"118 832 OFFCURVE",
"100 781 CURVE SMOOTH",
"98 776 OFFCURVE",
"97 772 OFFCURVE",
"97 768 CURVE SMOOTH",
"97 763 OFFCURVE",
"100 759 OFFCURVE",
"106 756 CURVE SMOOTH",
"115 752 LINE SMOOTH"
);
},
{
closed = 1;
nodes = (
"158 576 LINE SMOOTH",
"171 576 OFFCURVE",
"180 581 OFFCURVE",
"185 589 CURVE SMOOTH",
"223 647 LINE",
"262 589 LINE SMOOTH",
"268 581 OFFCURVE",
"276 576 OFFCURVE",
"288 576 CURVE SMOOTH",
"307 576 LINE SMOOTH",
"319 576 OFFCURVE",
"326 582 OFFCURVE",
"326 590 CURVE SMOOTH",
"326 594 OFFCURVE",
"324 600 OFFCURVE",
"319 608 CURVE SMOOTH",
"274 674 LINE SMOOTH",
"264 688 OFFCURVE",
"250 696 OFFCURVE",
"231 696 CURVE SMOOTH",
"215 696 LINE SMOOTH",
"196 696 OFFCURVE",
"184 688 OFFCURVE",
"173 674 CURVE SMOOTH",
"128 608 LINE SMOOTH",
"123 600 OFFCURVE",
"120 594 OFFCURVE",
"120 590 CURVE SMOOTH",
"120 581 OFFCURVE",
"127 576 OFFCURVE",
"139 576 CURVE SMOOTH"
);
}
);
};
components = (
{
name = a;
},
{
name = circumflexcomb;
transform = "{1, 0, 0, 1, 135, 0}";
},
{
name = tildecomb;
transform = "{1, 0, 0, 1, 94, 177}";
}
);
layerId = "76F17502-367F-435E-B23E-ED9D928E777B";
width = 481;
},
{
background = {
paths = (
{
closed = 1;
nodes = (
"131 739 OFFCURVE",
"135 738 OFFCURVE",
"140 738 CURVE SMOOTH",
"150 738 OFFCURVE",
"157 744 OFFCURVE",
"164 755 CURVE SMOOTH",
"174 770 OFFCURVE",
"182 771 OFFCURVE",
"188 771 CURVE SMOOTH",
"212 770 OFFCURVE",
"263 742 OFFCURVE",
"293 742 CURVE SMOOTH",
"333 742 OFFCURVE",
"363 775 OFFCURVE",
"376 812 CURVE SMOOTH",
"377 816 OFFCURVE",
"378 820 OFFCURVE",
"378 827 CURVE SMOOTH",
"378 838 OFFCURVE",
"373 848 OFFCURVE",
"358 853 CURVE SMOOTH",
"348 856 LINE SMOOTH",
"344 857 OFFCURVE",
"340 858 OFFCURVE",
"336 858 CURVE SMOOTH",
"324 858 OFFCURVE",
"317 851 OFFCURVE",
"311 841 CURVE SMOOTH",
"300 826 OFFCURVE",
"293 825 OFFCURVE",
"288 825 CURVE SMOOTH",
"263 826 OFFCURVE",
"213 854 OFFCURVE",
"182 854 CURVE SMOOTH",
"141 854 OFFCURVE",
"113 823 OFFCURVE",
"100 785 CURVE SMOOTH",
"97 778 OFFCURVE",
"96 773 OFFCURVE",
"96 769 CURVE SMOOTH",
"96 760 OFFCURVE",
"101 748 OFFCURVE",
"117 743 CURVE SMOOTH",
"127 740 LINE SMOOTH"
);
},
{
closed = 1;
nodes = (
"147 572 LINE SMOOTH",
"175 572 OFFCURVE",
"182 577 OFFCURVE",
"195 591 CURVE SMOOTH",
"218 630 LINE",
"238 590 LINE SMOOTH",
"250 577 OFFCURVE",
"259 572 OFFCURVE",
"288 572 CURVE SMOOTH",
"316 572 LINE SMOOTH",
"329 572 OFFCURVE",
"336 576 OFFCURVE",
"336 582 CURVE SMOOTH",
"336 585 OFFCURVE",
"331 596 OFFCURVE",
"327 603 CURVE SMOOTH",
"276 677 LINE SMOOTH",
"265 692 OFFCURVE",
"250 696 OFFCURVE",
"219 696 CURVE SMOOTH",
"217 696 LINE SMOOTH",
"184 696 OFFCURVE",
"170 692 OFFCURVE",
"159 677 CURVE SMOOTH",
"108 603 LINE SMOOTH",
"103 596 OFFCURVE",
"99 585 OFFCURVE",
"99 582 CURVE SMOOTH",
"99 574 OFFCURVE",
"104 572 OFFCURVE",
"120 572 CURVE SMOOTH"
);
}
);
};
components = (
{
name = a;
},
{
name = circumflexcomb;
transform = "{1, 0, 0, 1, 110, 0}";
},
{
name = tildecomb;
transform = "{1, 0, 0, 1, 79, 177}";
}
);
layerId = "6662946B-F990-402F-A6FD-22D24AB84B33";
width = 481;
}
);
leftKerningGroup = a;
rightKerningGroup = a;
unicode = 1EAB;
},
{
glyphname = ae;
layers = (
{
anchors = (
{
name = top;
position = "{362, 523}";
}
);
layerId = "76F17502-367F-435E-B23E-ED9D928E777B";
paths = (
{
closed = 1;
nodes = (
"259 -6 OFFCURVE",
"308 17 OFFCURVE",
"341 53 CURVE",
"374 13 OFFCURVE",
"424 -6 OFFCURVE",
"491 -6 CURVE SMOOTH",
"576 -6 OFFCURVE",
"642 34 OFFCURVE",
"642 58 CURVE SMOOTH",
"642 69 OFFCURVE",
"621 108 OFFCURVE",
"607 108 CURVE SMOOTH",
"597 108 OFFCURVE",
"565 66 OFFCURVE",
"490 66 CURVE SMOOTH",
"412 66 OFFCURVE",
"381 118 OFFCURVE",
"375 233 CURVE",
"620 233 LINE SMOOTH",
"632 233 OFFCURVE",
"653 262 OFFCURVE",
"653 274 CURVE SMOOTH",
"653 440 OFFCURVE",
"594 529 OFFCURVE",
"479 529 CURVE SMOOTH",
"428 529 OFFCURVE",
"388 514 OFFCURVE",
"357 485 CURVE",
"329 513 OFFCURVE",
"286 529 OFFCURVE",
"232 529 CURVE SMOOTH",
"149 529 OFFCURVE",
"73 497 OFFCURVE",
"73 471 CURVE SMOOTH",
"73 460 OFFCURVE",
"93 423 OFFCURVE",
"107 423 CURVE SMOOTH",
"118 423 OFFCURVE",
"159 457 OFFCURVE",
"231 457 CURVE SMOOTH",
"277 457 OFFCURVE",
"299 434 OFFCURVE",
"307 404 CURVE",
"298 381 OFFCURVE",
"292 355 OFFCURVE",
"289 325 CURVE",
"174 320 OFFCURVE",
"51 293 OFFCURVE",
"51 150 CURVE SMOOTH",
"51 48 OFFCURVE",
"112 -6 OFFCURVE",
"200 -6 CURVE SMOOTH"
);
},
{
closed = 1;
nodes = (
"162 73 OFFCURVE",
"139 101 OFFCURVE",
"139 152 CURVE SMOOTH",
"139 233 OFFCURVE",
"213 249 OFFCURVE",
"285 252 CURVE",
"286 199 OFFCURVE",
"292 153 OFFCURVE",
"306 116 CURVE",
"281 88 OFFCURVE",
"248 73 OFFCURVE",
"209 73 CURVE SMOOTH"
);
},
{
closed = 1;
nodes = (
"380 406 OFFCURVE",
"413 457 OFFCURVE",
"476 457 CURVE SMOOTH",
"534 457 OFFCURVE",
"564 406 OFFCURVE",
"564 305 CURVE",
"375 305 LINE"
);
}
);
width = 688;
},
{
anchors = (
{
name = top;
position = "{362, 523}";
}
);
layerId = "6662946B-F990-402F-A6FD-22D24AB84B33";
paths = (
{
closed = 1;
nodes = (
"252 -8 OFFCURVE",
"306 19 OFFCURVE",
"329 51 CURVE",
"366 14 OFFCURVE",
"420 -8 OFFCURVE",
"489 -8 CURVE SMOOTH",
"551 -8 OFFCURVE",
"649 17 OFFCURVE",
"649 61 CURVE SMOOTH",
"649 85 OFFCURVE",
"617 138 OFFCURVE",
"598 138 CURVE SMOOTH",
"585 138 OFFCURVE",
"550 109 OFFCURVE",
"501 109 CURVE SMOOTH",
"459 109 OFFCURVE",
"422 132 OFFCURVE",
"422 207 CURVE",
"611 207 LINE SMOOTH",
"624 207 OFFCURVE",
"662 249 OFFCURVE",
"662 266 CURVE SMOOTH",
"662 435 OFFCURVE",
"611 531 OFFCURVE",
"474 531 CURVE SMOOTH",
"430 531 OFFCURVE",
"389 522 OFFCURVE",
"357 500 CURVE",
"328 519 OFFCURVE",
"280 531 OFFCURVE",
"225 531 CURVE SMOOTH",
"140 531 OFFCURVE",
"60 500 OFFCURVE",
"60 465 CURVE SMOOTH",
"60 444 OFFCURVE",
"90 385 OFFCURVE",
"112 385 CURVE SMOOTH",
"128 385 OFFCURVE",
"162 414 OFFCURVE",
"212 414 CURVE SMOOTH",
"245 414 OFFCURVE",
"271 403 OFFCURVE",
"281 378 CURVE",
"277 365 OFFCURVE",
"274 351 OFFCURVE",
"272 335 CURVE",
"65 336 OFFCURVE",
"38 225 OFFCURVE",
"38 149 CURVE SMOOTH",
"38 54 OFFCURVE",
"90 -8 OFFCURVE",
"188 -8 CURVE SMOOTH"
);
},
{
closed = 1;
nodes = (
"193 109 OFFCURVE",
"179 130 OFFCURVE",
"179 160 CURVE SMOOTH",
"179 206 OFFCURVE",
"202 238 OFFCURVE",
"268 238 CURVE",
"269 202 OFFCURVE",
"273 170 OFFCURVE",
"281 142 CURVE",
"267 120 OFFCURVE",
"243 109 OFFCURVE",
"220 109 CURVE SMOOTH"
);
},
{
closed = 1;
nodes = (
"424 394 OFFCURVE",
"446 414 OFFCURVE",
"475 414 CURVE SMOOTH",
"506 414 OFFCURVE",
"520 386 OFFCURVE",
"520 306 CURVE",
"419 306 LINE"
);
}
);
width = 688;
}
);
leftKerningGroup = a;
leftMetricsKey = a;
rightKerningGroup = e;
rightMetricsKey = e;
unicode = 00E6;
},
{
glyphname = b;
layers = (
{
layerId = "76F17502-367F-435E-B23E-ED9D928E777B";
paths = (
{
closed = 1;
nodes = (
"373 -6 OFFCURVE",
"435 103 OFFCURVE",
"435 265 CURVE SMOOTH",
"435 434 OFFCURVE",
"368 529 OFFCURVE",
"270 529 CURVE SMOOTH",
"220 529 OFFCURVE",
"190 507 OFFCURVE",
"164 478 CURVE",
"164 730 LINE SMOOTH",
"164 744 OFFCURVE",
"153 752 OFFCURVE",
"127 752 CURVE SMOOTH",
"116 752 LINE SMOOTH",
"89 752 OFFCURVE",
"78 744 OFFCURVE",
"78 730 CURVE SMOOTH",
"78 20 LINE SMOOTH",
"78 6 OFFCURVE",
"88 -2 OFFCURVE",
"111 -2 CURVE SMOOTH",
"117 -2 LINE SMOOTH",
"133 -2 OFFCURVE",
"143 1 OFFCURVE",
"149 20 CURVE SMOOTH",
"154 36 OFFCURVE",
"157 53 OFFCURVE",
"158 69 CURVE",
"190 18 OFFCURVE",
"233 -6 OFFCURVE",
"278 -6 CURVE SMOOTH"
);
},
{
closed = 1;
nodes = (
"224 67 OFFCURVE",
"190 92 OFFCURVE",
"164 136 CURVE",
"164 410 LINE",
"187 440 OFFCURVE",
"217 455 OFFCURVE",
"249 455 CURVE SMOOTH",
"314 455 OFFCURVE",
"345 388 OFFCURVE",
"345 266 CURVE SMOOTH",
"345 141 OFFCURVE",
"315 67 OFFCURVE",
"257 67 CURVE SMOOTH"
);
}
);
width = 482;
},
{
layerId = "6662946B-F990-402F-A6FD-22D24AB84B33";
paths = (
{
closed = 1;
nodes = (
"385 -8 OFFCURVE",
"447 88 OFFCURVE",
"447 260 CURVE SMOOTH",
"447 436 OFFCURVE",
"386 531 OFFCURVE",
"281 531 CURVE SMOOTH",
"242 531 OFFCURVE",
"215 516 OFFCURVE",
"198 501 CURVE",
"198 722 LINE SMOOTH",
"198 743 OFFCURVE",
"180 754 OFFCURVE",
"138 754 CURVE SMOOTH",
"110 754 LINE SMOOTH",
"68 754 OFFCURVE",
"50 743 OFFCURVE",
"50 722 CURVE SMOOTH",
"50 30 LINE SMOOTH",
"50 9 OFFCURVE",
"68 -2 OFFCURVE",
"110 -2 CURVE SMOOTH",
"122 -2 LINE SMOOTH",
"152 -2 OFFCURVE",
"166 2 OFFCURVE",
"174 24 CURVE SMOOTH",
"179 37 OFFCURVE",
"182 49 OFFCURVE",
"185 62 CURVE",
"206 22 OFFCURVE",
"248 -8 OFFCURVE",
"295 -8 CURVE SMOOTH"
);
},
{
closed = 1;
nodes = (
"225 113 OFFCURVE",
"210 128 OFFCURVE",
"198 147 CURVE",
"198 399 LINE",
"208 407 OFFCURVE",
"222 414 OFFCURVE",
"240 414 CURVE SMOOTH",
"278 414 OFFCURVE",
"297 381 OFFCURVE",
"297 261 CURVE SMOOTH",
"297 151 OFFCURVE",
"281 113 OFFCURVE",
"246 113 CURVE SMOOTH"
);
}
);
width = 482;
}
);
leftKerningGroup = h;
rightKerningGroup = o;
unicode = 0062;
userData = {
RMXScaler = {
source = b;
};
};
},
{
glyphname = c;
layers = (
{
anchors = (
{
name = bottom;
position = "{247, 0}";
},
{
name = top;
position = "{238, 523}";
}
);
layerId = "76F17502-367F-435E-B23E-ED9D928E777B";
paths = (
{
closed = 1;
nodes = (
"310 -6 OFFCURVE",
"387 22 OFFCURVE",
"387 45 CURVE SMOOTH",
"387 59 OFFCURVE",
"368 96 OFFCURVE",
"354 96 CURVE SMOOTH",
"352 96 OFFCURVE",
"347 91 OFFCURVE",
"341 88 CURVE",
"324 78 OFFCURVE",
"300 66 OFFCURVE",
"258 66 CURVE SMOOTH",
"170 66 OFFCURVE",
"137 126 OFFCURVE",
"137 266 CURVE SMOOTH",
"137 405 OFFCURVE",
"178 457 OFFCURVE",
"255 457 CURVE SMOOTH",
"294 457 OFFCURVE",
"322 441 OFFCURVE",
"336 433 CURVE SMOOTH",
"341 431 OFFCURVE",
"344 429 OFFCURVE",
"347 429 CURVE SMOOTH",
"358 429 OFFCURVE",
"378 467 OFFCURVE",
"378 483 CURVE SMOOTH",
"378 507 OFFCURVE",
"313 529 OFFCURVE",
"253 529 CURVE SMOOTH",
"135 529 OFFCURVE",
"46 473 OFFCURVE",
"46 264 CURVE SMOOTH",
"46 71 OFFCURVE",
"116 -6 OFFCURVE",
"256 -6 CURVE SMOOTH"
);
}
);
width = 408;
},
{
anchors = (
{
name = bottom;
position = "{245, 0}";
},
{
name = top;
position = "{228, 523}";
}
);
background = {
anchors = (
{
name = bottom;
position = "{245, 0}";
},
{
name = top;
position = "{228, 523}";
}
);
paths = (
{
closed = 1;
nodes = (
"301 -8 OFFCURVE",
"396 20 OFFCURVE",
"396 61 CURVE SMOOTH",
"396 83 OFFCURVE",
"374 137 OFFCURVE",
"352 137 CURVE SMOOTH",
"348 137 OFFCURVE",
"342 134 OFFCURVE",
"334 130 CURVE SMOOTH",
"319 123 OFFCURVE",
"295 109 OFFCURVE",
"263 109 CURVE SMOOTH",
"212 109 OFFCURVE",
"185 149 OFFCURVE",
"185 262 CURVE SMOOTH",
"185 374 OFFCURVE",
"213 414 OFFCURVE",
"266 414 CURVE SMOOTH",
"295 414 OFFCURVE",
"316 402 OFFCURVE",
"331 394 CURVE SMOOTH",
"339 389 OFFCURVE",
"345 386 OFFCURVE",
"350 386 CURVE SMOOTH",
"370 386 OFFCURVE",
"395 441 OFFCURVE",
"395 462 CURVE SMOOTH",
"395 499 OFFCURVE",
"323 531 OFFCURVE",
"250 531 CURVE SMOOTH",
"102 531 OFFCURVE",
"34 437 OFFCURVE",
"34 260 CURVE SMOOTH",
"34 78 OFFCURVE",
"107 -8 OFFCURVE",
"246 -8 CURVE SMOOTH"
);
}
);
};
layerId = "6662946B-F990-402F-A6FD-22D24AB84B33";
paths = (
{
closed = 1;
nodes = (
"301 -8 OFFCURVE",
"396 20 OFFCURVE",
"396 61 CURVE SMOOTH",
"396 83 OFFCURVE",
"374 137 OFFCURVE",
"352 137 CURVE SMOOTH",
"348 137 OFFCURVE",
"342 134 OFFCURVE",
"334 130 CURVE SMOOTH",
"319 123 OFFCURVE",
"295 109 OFFCURVE",
"263 109 CURVE SMOOTH",
"212 109 OFFCURVE",
"185 149 OFFCURVE",
"185 262 CURVE SMOOTH",
"185 374 OFFCURVE",
"213 414 OFFCURVE",
"266 414 CURVE SMOOTH",
"295 414 OFFCURVE",
"316 402 OFFCURVE",
"331 394 CURVE SMOOTH",
"339 389 OFFCURVE",
"345 386 OFFCURVE",
"350 386 CURVE SMOOTH",
"370 386 OFFCURVE",
"395 441 OFFCURVE",
"395 462 CURVE SMOOTH",
"395 499 OFFCURVE",
"323 531 OFFCURVE",
"250 531 CURVE SMOOTH",
"102 531 OFFCURVE",
"34 437 OFFCURVE",
"34 260 CURVE SMOOTH",
"34 78 OFFCURVE",
"107 -8 OFFCURVE",
"246 -8 CURVE SMOOTH"
);
}
);
width = 408;
}
);
leftKerningGroup = o;
rightKerningGroup = c;
unicode = 0063;
userData = {
RMXScaler = {
source = c;
};
};
},
{
glyphname = d;
layers = (
{
anchors = (
{
name = bottom;
position = "{232, 0}";
},
{
name = center;
position = "{353, 630}";
},
{
name = top;
position = "{241, 755}";
},
{
name = topright;
position = "{461, 750}";
}
);
layerId = "76F17502-367F-435E-B23E-ED9D928E777B";
paths = (
{
closed = 1;
nodes = (
"249 -6 OFFCURVE",
"292 18 OFFCURVE",
"323 69 CURVE",
"329 34 OFFCURVE",
"331 -1 OFFCURVE",
"356 -1 CURVE SMOOTH",
"367 -1 OFFCURVE",
"414 4 OFFCURVE",
"414 21 CURVE SMOOTH",
"414 28 OFFCURVE",
"404 66 OFFCURVE",
"404 148 CURVE SMOOTH",
"404 730 LINE SMOOTH",
"404 744 OFFCURVE",
"392 752 OFFCURVE",
"366 752 CURVE SMOOTH",
"355 752 LINE SMOOTH",
"329 752 OFFCURVE",
"318 744 OFFCURVE",
"318 730 CURVE SMOOTH",
"318 478 LINE",
"292 507 OFFCURVE",
"262 529 OFFCURVE",
"212 529 CURVE SMOOTH",
"114 529 OFFCURVE",
"47 433 OFFCURVE",
"47 264 CURVE SMOOTH",
"47 104 OFFCURVE",
"108 -6 OFFCURVE",
"204 -6 CURVE SMOOTH"
);
},
{
closed = 1;
nodes = (
"166 67 OFFCURVE",
"136 141 OFFCURVE",
"136 265 CURVE SMOOTH",
"136 389 OFFCURVE",
"168 455 OFFCURVE",
"234 455 CURVE SMOOTH",
"266 455 OFFCURVE",
"295 440 OFFCURVE",
"318 410 CURVE",
"318 136 LINE",
"292 92 OFFCURVE",
"258 67 OFFCURVE",
"225 67 CURVE SMOOTH"
);
}
);
width = 481;
},
{
anchors = (
{
name = bottom;
position = "{243, 0}";
},
{
name = center;
position = "{353, 630}";
},
{
name = top;
position = "{241, 755}";
},
{
name = topright;
position = "{451, 750}";
}
);
layerId = "6662946B-F990-402F-A6FD-22D24AB84B33";
paths = (
{
closed = 1;
nodes = (
"234 -8 OFFCURVE",
"272 22 OFFCURVE",
"291 62 CURVE",
"296 36 OFFCURVE",
"302 -1 OFFCURVE",
"332 -1 CURVE SMOOTH",
"357 -1 OFFCURVE",
"444 7 OFFCURVE",
"444 31 CURVE SMOOTH",
"444 52 OFFCURVE",
"432 73 OFFCURVE",
"432 176 CURVE SMOOTH",
"432 722 LINE SMOOTH",
"432 743 OFFCURVE",
"414 754 OFFCURVE",
"372 754 CURVE SMOOTH",
"344 754 LINE SMOOTH",
"302 754 OFFCURVE",
"284 743 OFFCURVE",
"284 722 CURVE SMOOTH",
"284 502 LINE",
"266 518 OFFCURVE",
"239 531 OFFCURVE",
"202 531 CURVE SMOOTH",
"97 531 OFFCURVE",
"35 436 OFFCURVE",
"35 264 CURVE SMOOTH",
"35 87 OFFCURVE",
"99 -8 OFFCURVE",
"185 -8 CURVE SMOOTH"
);
},
{
closed = 1;
nodes = (
"201 113 OFFCURVE",
"185 155 OFFCURVE",
"185 261 CURVE SMOOTH",
"185 373 OFFCURVE",
"204 414 OFFCURVE",
"243 414 CURVE SMOOTH",
"261 414 OFFCURVE",
"274 407 OFFCURVE",
"284 400 CURVE",
"284 153 LINE",
"273 131 OFFCURVE",
"257 113 OFFCURVE",
"235 113 CURVE SMOOTH"
);
}
);
width = 481;
}
);
leftKerningGroup = o;
rightKerningGroup = d;
unicode = 0064;
userData = {
RMXScaler = {
source = d;
};
};
},
{
glyphname = eth;
layers = (
{
layerId = "76F17502-367F-435E-B23E-ED9D928E777B";
paths = (
{
closed = 1;
nodes = (
"365 -6 OFFCURVE",
"430 87 OFFCURVE",
"430 260 CURVE SMOOTH",
"430 388 OFFCURVE",
"394 500 OFFCURVE",
"327 618 CURVE",
"387 626 LINE SMOOTH",
"397 627 OFFCURVE",
"402 632 OFFCURVE",
"402 639 CURVE SMOOTH",
"402 644 OFFCURVE",
"396 671 OFFCURVE",
"377 671 CURVE SMOOTH",
"373 671 OFFCURVE",
"326 664 OFFCURVE",
"299 660 CURVE",
"286 678 OFFCURVE",
"276 690 OFFCURVE",
"266 702 CURVE SMOOTH",
"260 709 OFFCURVE",
"252 714 OFFCURVE",
"240 714 CURVE SMOOTH",
"229 714 OFFCURVE",
"220 713 OFFCURVE",
"213 712 CURVE SMOOTH",
"202 710 OFFCURVE",
"197 705 OFFCURVE",
"197 698 CURVE SMOOTH",
"197 688 OFFCURVE",
"208 672 OFFCURVE",
"223 650 CURVE",
"151 640 LINE SMOOTH",
"141 638 OFFCURVE",
"136 634 OFFCURVE",
"136 627 CURVE SMOOTH",
"136 613 OFFCURVE",
"148 595 OFFCURVE",
"162 595 CURVE SMOOTH",
"164 595 OFFCURVE",
"166 596 OFFCURVE",
"248 607 CURVE",
"269 573 OFFCURVE",
"290 534 OFFCURVE",
"300 497 CURVE",
"316 510 LINE",
"292 521 OFFCURVE",
"267 526 OFFCURVE",
"240 526 CURVE SMOOTH",
"115 526 OFFCURVE",
"47 430 OFFCURVE",
"47 259 CURVE SMOOTH",
"47 87 OFFCURVE",
"114 -6 OFFCURVE",
"240 -6 CURVE SMOOTH"
);
},
{
closed = 1;
nodes = (
"167 66 OFFCURVE",
"135 128 OFFCURVE",
"135 261 CURVE SMOOTH",
"135 393 OFFCURVE",
"167 454 OFFCURVE",
"238 454 CURVE SMOOTH",
"309 454 OFFCURVE",
"342 392 OFFCURVE",
"342 261 CURVE SMOOTH",
"342 128 OFFCURVE",
"309 66 OFFCURVE",
"238 66 CURVE SMOOTH"
);
}
);
width = 477;
},
{
layerId = "6662946B-F990-402F-A6FD-22D24AB84B33";
paths = (
{
closed = 1;
nodes = (
"373 -8 OFFCURVE",
"443 88 OFFCURVE",
"443 262 CURVE SMOOTH",
"443 397 OFFCURVE",
"395 529 OFFCURVE",
"346 606 CURVE",
"392 612 LINE SMOOTH",
"406 614 OFFCURVE",
"413 619 OFFCURVE",
"413 628 CURVE SMOOTH",
"413 648 OFFCURVE",
"393 670 OFFCURVE",
"376 670 CURVE SMOOTH",
"373 670 OFFCURVE",
"345 666 OFFCURVE",
"308 661 CURVE",
"294 679 OFFCURVE",
"282 694 OFFCURVE",
"268 704 CURVE SMOOTH",
"257 711 OFFCURVE",
"245 715 OFFCURVE",
"230 715 CURVE",
"209 713 OFFCURVE",
"189 710 OFFCURVE",
"168 708 CURVE SMOOTH",
"155 706 OFFCURVE",
"149 702 OFFCURVE",
"149 696 CURVE SMOOTH",
"149 688 OFFCURVE",
"174 662 OFFCURVE",
"187 645 CURVE",
"144 639 LINE SMOOTH",
"129 637 OFFCURVE",
"123 632 OFFCURVE",
"123 623 CURVE SMOOTH",
"123 602 OFFCURVE",
"142 581 OFFCURVE",
"162 581 CURVE SMOOTH",
"165 581 OFFCURVE",
"168 581 OFFCURVE",
"223 589 CURVE",
"246 548 OFFCURVE",
"263 511 OFFCURVE",
"275 467 CURVE",
"333 506 LINE",
"303 520 OFFCURVE",
"267 526 OFFCURVE",
"238 526 CURVE SMOOTH",
"103 526 OFFCURVE",
"34 433 OFFCURVE",
"34 262 CURVE SMOOTH",
"34 88 OFFCURVE",
"104 -8 OFFCURVE",
"238 -8 CURVE SMOOTH"
);
},
{
closed = 1;
nodes = (
"199 109 OFFCURVE",
"184 149 OFFCURVE",
"184 262 CURVE SMOOTH",
"184 371 OFFCURVE",
"199 409 OFFCURVE",
"239 409 CURVE SMOOTH",
"278 409 OFFCURVE",
"293 371 OFFCURVE",
"293 262 CURVE SMOOTH",
"293 149 OFFCURVE",
"278 109 OFFCURVE",
"239 109 CURVE SMOOTH"
);
}
);
width = 477;
}
);
leftKerningGroup = o;
rightKerningGroup = o;
unicode = 00F0;
userData = {
RMXScaler = {
source = eth;
};
};
},
{
glyphname = dcroat;
layers = (
{
components = (
{
alignment = -1;
name = d;
}
);
layerId = "76F17502-367F-435E-B23E-ED9D928E777B";
paths = (
{
closed = 1;
nodes = (
"460 595 LINE SMOOTH",
"475 595 OFFCURVE",
"481 604 OFFCURVE",
"481 625 CURVE SMOOTH",
"481 635 LINE SMOOTH",
"481 656 OFFCURVE",
"475 665 OFFCURVE",
"460 665 CURVE SMOOTH",
"168 665 LINE SMOOTH",
"154 665 OFFCURVE",
"147 656 OFFCURVE",
"147 635 CURVE SMOOTH",
"147 625 LINE SMOOTH",
"147 604 OFFCURVE",
"154 595 OFFCURVE",
"168 595 CURVE"
);
}
);
width = 481;
},
{
components = (
{
alignment = -1;
name = d;
}
);
layerId = "6662946B-F990-402F-A6FD-22D24AB84B33";
paths = (
{
closed = 1;
nodes = (
"446 585 LINE SMOOTH",
"471 585 OFFCURVE",
"481 597 OFFCURVE",
"481 625 CURVE SMOOTH",
"481 640 LINE SMOOTH",
"481 668 OFFCURVE",
"471 680 OFFCURVE",
"446 680 CURVE SMOOTH",
"162 680 LINE SMOOTH",
"137 680 OFFCURVE",
"126 668 OFFCURVE",
"126 640 CURVE SMOOTH",
"126 625 LINE SMOOTH",
"126 597 OFFCURVE",
"137 585 OFFCURVE",
"162 585 CURVE"
);
}
);
width = 481;
}
);
leftKerningGroup = o;
rightKerningGroup = d;
unicode = 0111;
},
{
glyphname = e;
layers = (
{
anchors = (
{
name = bottom;
position = "{231, 0}";
},
{
name = ogonek;
position = "{347, 0}";
},
{
name = top;
position = "{231, 523}";
}
);
layerId = "76F17502-367F-435E-B23E-ED9D928E777B";
paths = (
{
closed = 1;
nodes = (
"341 -6 OFFCURVE",
"407 34 OFFCURVE",
"407 58 CURVE SMOOTH",
"407 69 OFFCURVE",
"386 108 OFFCURVE",
"372 108 CURVE SMOOTH",
"362 108 OFFCURVE",
"331 66 OFFCURVE",
"255 66 CURVE SMOOTH",
"175 66 OFFCURVE",
"143 116 OFFCURVE",
"137 227 CURVE",
"386 227 LINE SMOOTH",
"398 227 OFFCURVE",
"419 256 OFFCURVE",
"419 268 CURVE SMOOTH",
"419 438 OFFCURVE",
"360 529 OFFCURVE",
"244 529 CURVE SMOOTH",
"114 529 OFFCURVE",
"47 435 OFFCURVE",
"47 258 CURVE SMOOTH",
"47 79 OFFCURVE",
"115 -6 OFFCURVE",
"256 -6 CURVE SMOOTH"
);
},
{
closed = 1;
nodes = (
"142 404 OFFCURVE",
"176 457 OFFCURVE",
"241 457 CURVE SMOOTH",
"300 457 OFFCURVE",
"330 404 OFFCURVE",
"330 299 CURVE",
"137 299 LINE"
);
}
);
width = 454;
},
{
anchors = (
{
name = bottom;
position = "{231, 0}";
},
{
name = ogonek;
position = "{347, 0}";
},
{
name = top;
position = "{237, 523}";
}
);
layerId = "6662946B-F990-402F-A6FD-22D24AB84B33";
paths = (
{
closed = 1;
nodes = (
"308 -8 OFFCURVE",
"415 13 OFFCURVE",
"415 62 CURVE SMOOTH",
"415 82 OFFCURVE",
"385 138 OFFCURVE",
"363 138 CURVE SMOOTH",
"352 138 OFFCURVE",
"316 109 OFFCURVE",
"267 109 CURVE SMOOTH",
"222 109 OFFCURVE",
"190 131 OFFCURVE",
"187 203 CURVE",
"377 203 LINE SMOOTH",
"390 203 OFFCURVE",
"428 245 OFFCURVE",
"428 262 CURVE SMOOTH",
"428 430 OFFCURVE",
"377 531 OFFCURVE",
"242 531 CURVE SMOOTH",
"120 531 OFFCURVE",
"34 466 OFFCURVE",
"34 258 CURVE SMOOTH",
"34 86 OFFCURVE",
"103 -8 OFFCURVE",
"260 -8 CURVE SMOOTH"
);
},
{
closed = 1;
nodes = (
"186 396 OFFCURVE",
"207 424 OFFCURVE",
"241 424 CURVE SMOOTH",
"279 424 OFFCURVE",
"293 386 OFFCURVE",
"293 292 CURVE",
"181 292 LINE"
);
}
);
width = 454;
}
);
leftKerningGroup = o;
rightKerningGroup = e;
unicode = 0065;
userData = {
RMXScaler = {
source = e;
};
};
},
{
glyphname = ecircumflexgrave;
layers = (
{
background = {
paths = (
{
closed = 1;
nodes = (
"159 576 LINE",
"169 576 OFFCURVE",
"178 577 OFFCURVE",
"185 589 CURVE",
"223 663 LINE",
"263 589 LINE SMOOTH",
"268 580 OFFCURVE",
"279 576 OFFCURVE",
"288 576 CURVE",
"308 576 LINE",
"320 576 OFFCURVE",
"327 582 OFFCURVE",
"327 591 CURVE SMOOTH",
"327 596 OFFCURVE",
"324 602 OFFCURVE",
"320 608 CURVE SMOOTH",
"273 696 LINE SMOOTH",
"264 711 OFFCURVE",
"251 718 OFFCURVE",
"232 718 CURVE SMOOTH",
"216 718 LINE SMOOTH",
"198 718 OFFCURVE",
"183 711 OFFCURVE",
"174 696 CURVE SMOOTH",
"126 608 LINE SMOOTH",
"124 602 OFFCURVE",
"121 594 OFFCURVE",
"121 589 CURVE SMOOTH",
"121 582 OFFCURVE",
"128 576 OFFCURVE",
"140 576 CURVE"
);
}
);
};
components = (
{
name = e;
},
{
name = circumflexcomb_gravecomb;
transform = "{1, 0, 0, 1, 122, 0}";
}
);
layerId = "76F17502-367F-435E-B23E-ED9D928E777B";
width = 454;
},
{
background = {
paths = (
{
closed = 1;
nodes = (
"153 572 LINE SMOOTH",
"173 572 OFFCURVE",
"194 574 OFFCURVE",
"203 591 CURVE SMOOTH",
"223 636 LINE",
"243 590 LINE SMOOTH",
"249 578 OFFCURVE",
"267 572 OFFCURVE",
"294 572 CURVE SMOOTH",
"322 572 LINE SMOOTH",
"334 572 OFFCURVE",
"342 575 OFFCURVE",
"342 582 CURVE SMOOTH",
"342 586 OFFCURVE",
"340 591 OFFCURVE",
"336 597 CURVE SMOOTH",
"281 699 LINE SMOOTH",
"271 717 OFFCURVE",
"251 718 OFFCURVE",
"224 718 CURVE SMOOTH",
"222 718 LINE SMOOTH",
"196 718 OFFCURVE",
"175 717 OFFCURVE",
"165 699 CURVE SMOOTH",
"110 597 LINE SMOOTH",
"107 591 OFFCURVE",
"105 587 OFFCURVE",
"105 582 CURVE SMOOTH",
"105 574 OFFCURVE",
"109 572 OFFCURVE",
"126 572 CURVE"
);
}
);
};
components = (
{
name = e;
},
{
name = circumflexcomb_gravecomb;
transform = "{1, 0, 0, 1, 112, 0}";
}
);
layerId = "6662946B-F990-402F-A6FD-22D24AB84B33";
width = 454;
}
);
leftKerningGroup = o;
rightKerningGroup = e;
unicode = 1EC1;
},
{
glyphname = ecircumflexhookabove;
layers = (
{
background = {
paths = (
{
closed = 1;
nodes = (
"159 576 LINE",
"169 576 OFFCURVE",
"178 577 OFFCURVE",
"185 589 CURVE",
"223 663 LINE",
"263 589 LINE SMOOTH",
"268 580 OFFCURVE",
"279 576 OFFCURVE",
"288 576 CURVE",
"308 576 LINE",
"320 576 OFFCURVE",
"327 582 OFFCURVE",
"327 591 CURVE SMOOTH",
"327 596 OFFCURVE",
"324 602 OFFCURVE",
"320 608 CURVE SMOOTH",
"273 696 LINE SMOOTH",
"264 711 OFFCURVE",
"251 718 OFFCURVE",
"232 718 CURVE SMOOTH",
"216 718 LINE SMOOTH",
"198 718 OFFCURVE",
"183 711 OFFCURVE",
"174 696 CURVE SMOOTH",
"126 608 LINE SMOOTH",
"124 602 OFFCURVE",
"121 594 OFFCURVE",
"121 589 CURVE SMOOTH",
"121 582 OFFCURVE",
"128 576 OFFCURVE",
"140 576 CURVE"
);
}
);
};
components = (
{
name = e;
},
{
name = circumflexcomb_hookabovecomb;
transform = "{1, 0, 0, 1, 122, 0}";
}
);
layerId = "76F17502-367F-435E-B23E-ED9D928E777B";
width = 454;
},
{
background = {
paths = (
{
closed = 1;
nodes = (
"153 572 LINE SMOOTH",
"173 572 OFFCURVE",
"194 574 OFFCURVE",
"203 591 CURVE SMOOTH",
"223 636 LINE",
"243 590 LINE SMOOTH",
"249 578 OFFCURVE",
"267 572 OFFCURVE",
"294 572 CURVE SMOOTH",
"322 572 LINE SMOOTH",
"334 572 OFFCURVE",
"342 575 OFFCURVE",
"342 582 CURVE SMOOTH",
"342 586 OFFCURVE",
"340 591 OFFCURVE",
"336 597 CURVE SMOOTH",
"281 699 LINE SMOOTH",
"271 717 OFFCURVE",
"251 718 OFFCURVE",
"224 718 CURVE SMOOTH",
"222 718 LINE SMOOTH",
"196 718 OFFCURVE",
"175 717 OFFCURVE",
"165 699 CURVE SMOOTH",
"110 597 LINE SMOOTH",
"107 591 OFFCURVE",
"105 587 OFFCURVE",
"105 582 CURVE SMOOTH",
"105 574 OFFCURVE",
"109 572 OFFCURVE",
"126 572 CURVE"
);
}
);
};
components = (
{
name = e;
},
{
name = circumflexcomb_hookabovecomb;
transform = "{1, 0, 0, 1, 112, 0}";
}
);
layerId = "6662946B-F990-402F-A6FD-22D24AB84B33";
width = 454;
}
);
leftKerningGroup = o;
rightKerningGroup = e;
unicode = 1EC3;
},
{
glyphname = ecircumflextilde;
layers = (
{
background = {
paths = (
{
closed = 1;
nodes = (
"122 751 OFFCURVE",
"125 750 OFFCURVE",
"128 750 CURVE SMOOTH",
"134 750 OFFCURVE",
"138 754 OFFCURVE",
"144 764 CURVE SMOOTH",
"155 784 OFFCURVE",
"163 791 OFFCURVE",
"176 791 CURVE SMOOTH",
"208 791 OFFCURVE",
"254 751 OFFCURVE",
"295 751 CURVE SMOOTH",
"327 751 OFFCURVE",
"350 769 OFFCURVE",
"369 819 CURVE SMOOTH",
"372 825 OFFCURVE",
"373 829 OFFCURVE",
"373 833 CURVE SMOOTH",
"373 839 OFFCURVE",
"370 841 OFFCURVE",
"362 845 CURVE SMOOTH",
"356 848 LINE SMOOTH",
"352 850 OFFCURVE",
"349 851 OFFCURVE",
"346 851 CURVE SMOOTH",
"340 851 OFFCURVE",
"334 847 OFFCURVE",
"328 836 CURVE SMOOTH",
"316 816 OFFCURVE",
"307 810 OFFCURVE",
"293 810 CURVE SMOOTH",
"262 810 OFFCURVE",
"216 850 OFFCURVE",
"178 850 CURVE SMOOTH",
"145 850 OFFCURVE",
"120 832 OFFCURVE",
"103 781 CURVE SMOOTH",
"101 776 OFFCURVE",
"100 772 OFFCURVE",
"100 768 CURVE SMOOTH",
"100 763 OFFCURVE",
"103 759 OFFCURVE",
"109 756 CURVE SMOOTH",
"118 752 LINE SMOOTH"
);
},
{
closed = 1;
nodes = (
"159 576 LINE SMOOTH",
"172 576 OFFCURVE",
"181 581 OFFCURVE",
"186 589 CURVE SMOOTH",
"224 647 LINE",
"263 589 LINE SMOOTH",
"269 581 OFFCURVE",
"277 576 OFFCURVE",
"289 576 CURVE SMOOTH",
"308 576 LINE SMOOTH",
"320 576 OFFCURVE",
"328 582 OFFCURVE",
"328 590 CURVE SMOOTH",
"328 594 OFFCURVE",
"325 600 OFFCURVE",
"320 608 CURVE SMOOTH",
"275 674 LINE SMOOTH",
"265 688 OFFCURVE",
"251 696 OFFCURVE",
"232 696 CURVE SMOOTH",
"216 696 LINE SMOOTH",
"197 696 OFFCURVE",
"185 688 OFFCURVE",
"174 674 CURVE SMOOTH",
"129 608 LINE SMOOTH",
"124 600 OFFCURVE",
"122 594 OFFCURVE",
"122 590 CURVE SMOOTH",
"122 581 OFFCURVE",
"128 576 OFFCURVE",
"141 576 CURVE SMOOTH"
);
}
);
};
components = (
{
name = e;
},
{
name = circumflexcomb_tildecomb;
transform = "{1, 0, 0, 1, 81, 0}";
}
);
layerId = "76F17502-367F-435E-B23E-ED9D928E777B";
width = 454;
},
{
background = {
anchors = (
{
name = _top;
position = "{226, 683}";
},
{
name = tilde;
position = "{222, 734}";
}
);
components = (
{
name = e;
}
);
paths = (
{
closed = 1;
nodes = (
"120 739 OFFCURVE",
"124 738 OFFCURVE",
"128 738 CURVE SMOOTH",
"138 738 OFFCURVE",
"145 744 OFFCURVE",
"153 755 CURVE SMOOTH",
"163 770 OFFCURVE",
"170 771 OFFCURVE",
"176 771 CURVE SMOOTH",
"201 770 OFFCURVE",
"251 742 OFFCURVE",
"282 742 CURVE SMOOTH",
"322 742 OFFCURVE",
"352 775 OFFCURVE",
"364 812 CURVE SMOOTH",
"365 816 OFFCURVE",
"367 820 OFFCURVE",
"367 827 CURVE SMOOTH",
"367 838 OFFCURVE",
"361 848 OFFCURVE",
"346 853 CURVE SMOOTH",
"337 856 LINE SMOOTH",
"333 857 OFFCURVE",
"329 858 OFFCURVE",
"324 858 CURVE SMOOTH",
"313 858 OFFCURVE",
"306 851 OFFCURVE",
"299 841 CURVE SMOOTH",
"289 826 OFFCURVE",
"282 825 OFFCURVE",
"276 825 CURVE SMOOTH",
"251 826 OFFCURVE",
"201 854 OFFCURVE",
"170 854 CURVE SMOOTH",
"130 854 OFFCURVE",
"101 823 OFFCURVE",
"88 785 CURVE SMOOTH",
"86 778 OFFCURVE",
"85 773 OFFCURVE",
"85 769 CURVE SMOOTH",
"85 760 OFFCURVE",
"90 748 OFFCURVE",
"106 743 CURVE SMOOTH",
"116 740 LINE SMOOTH"
);
},
{
closed = 1;
nodes = (
"153 572 LINE SMOOTH",
"181 572 OFFCURVE",
"188 577 OFFCURVE",
"202 591 CURVE SMOOTH",
"224 630 LINE",
"244 590 LINE SMOOTH",
"256 577 OFFCURVE",
"265 572 OFFCURVE",
"294 572 CURVE SMOOTH",
"322 572 LINE SMOOTH",
"335 572 OFFCURVE",
"342 576 OFFCURVE",
"342 582 CURVE SMOOTH",
"342 585 OFFCURVE",
"338 596 OFFCURVE",
"333 603 CURVE SMOOTH",
"282 677 LINE SMOOTH",
"271 692 OFFCURVE",
"257 696 OFFCURVE",
"225 696 CURVE SMOOTH",
"223 696 LINE SMOOTH",
"190 696 OFFCURVE",
"176 692 OFFCURVE",
"165 677 CURVE SMOOTH",
"114 603 LINE SMOOTH",
"109 596 OFFCURVE",
"105 585 OFFCURVE",
"105 582 CURVE SMOOTH",
"105 574 OFFCURVE",
"111 572 OFFCURVE",
"126 572 CURVE SMOOTH"
);
}
);
};
components = (
{
name = e;
},
{
name = circumflexcomb_tildecomb;
transform = "{1, 0, 0, 1, 81, 0}";
}
);
layerId = "6662946B-F990-402F-A6FD-22D24AB84B33";
width = 454;
}
);
leftKerningGroup = o;
rightKerningGroup = e;
unicode = 1EC5;
},
{
glyphname = f;
layers = (
{
layerId = "76F17502-367F-435E-B23E-ED9D928E777B";
paths = (
{
closed = 1;
nodes = (
"141 -2 LINE SMOOTH",
"169 -2 OFFCURVE",
"181 6 OFFCURVE",
"181 20 CURVE SMOOTH",
"181 451 LINE",
"248 451 LINE SMOOTH",
"262 451 OFFCURVE",
"268 460 OFFCURVE",
"268 481 CURVE SMOOTH",
"268 493 LINE SMOOTH",
"268 514 OFFCURVE",
"262 523 OFFCURVE",
"248 523 CURVE SMOOTH",
"181 523 LINE",
"181 621 LINE SMOOTH",
"181 677 OFFCURVE",
"200 684 OFFCURVE",
"222 684 CURVE SMOOTH",
"244 684 OFFCURVE",
"250 678 OFFCURVE",
"258 678 CURVE SMOOTH",
"273 678 OFFCURVE",
"280 717 OFFCURVE",
"280 725 CURVE SMOOTH",
"280 746 OFFCURVE",
"241 756 OFFCURVE",
"211 756 CURVE SMOOTH",
"169 756 OFFCURVE",
"97 739 OFFCURVE",
"97 629 CURVE SMOOTH",
"97 523 LINE",
"68 523 LINE SMOOTH",
"54 523 OFFCURVE",
"48 514 OFFCURVE",
"48 493 CURVE SMOOTH",
"48 481 LINE SMOOTH",
"48 460 OFFCURVE",
"54 451 OFFCURVE",
"68 451 CURVE SMOOTH",
"97 451 LINE",
"97 20 LINE SMOOTH",
"97 6 OFFCURVE",
"109 -2 OFFCURVE",
"137 -2 CURVE SMOOTH"
);
}
);
width = 286;
},
{
layerId = "6662946B-F990-402F-A6FD-22D24AB84B33";
paths = (
{
closed = 1;
nodes = (
"153 -2 LINE SMOOTH",
"195 -2 OFFCURVE",
"213 9 OFFCURVE",
"213 30 CURVE SMOOTH",
"213 406 LINE",
"246 406 LINE SMOOTH",
"267 406 OFFCURVE",
"276 421 OFFCURVE",
"276 456 CURVE SMOOTH",
"276 473 LINE SMOOTH",
"276 508 OFFCURVE",
"267 523 OFFCURVE",
"246 523 CURVE SMOOTH",
"213 523 LINE",
"213 600 LINE SMOOTH",
"213 630 OFFCURVE",
"222 643 OFFCURVE",
"244 643 CURVE SMOOTH",
"252 643 OFFCURVE",
"265 638 OFFCURVE",
"272 638 CURVE SMOOTH",
"292 638 OFFCURVE",
"303 702 OFFCURVE",
"303 710 CURVE SMOOTH",
"303 750 OFFCURVE",
"236 760 OFFCURVE",
"206 760 CURVE SMOOTH",
"115 760 OFFCURVE",
"65 709 OFFCURVE",
"65 598 CURVE SMOOTH",
"65 523 LINE",
"53 523 LINE SMOOTH",
"32 523 OFFCURVE",
"23 508 OFFCURVE",
"23 473 CURVE SMOOTH",
"23 456 LINE SMOOTH",
"23 421 OFFCURVE",
"32 406 OFFCURVE",
"53 406 CURVE SMOOTH",
"65 406 LINE",
"65 30 LINE SMOOTH",
"65 9 OFFCURVE",
"83 -2 OFFCURVE",
"125 -2 CURVE SMOOTH"
);
}
);
width = 286;
}
);
leftKerningGroup = f;
rightKerningGroup = f;
unicode = 0066;
},
{
glyphname = g;
layers = (
{
anchors = (
{
name = top;
position = "{231, 523}";
}
);
background = {
paths = (
{
closed = 1;
nodes = (
"351 -212 OFFCURVE",
"418 -159 OFFCURVE",
"418 -64 CURVE SMOOTH",
"418 18 OFFCURVE",
"359 54 OFFCURVE",
"281 65 CURVE SMOOTH",
"223 74 OFFCURVE",
"164 75 OFFCURVE",
"164 128 CURVE SMOOTH",
"164 171 OFFCURVE",
"194 189 OFFCURVE",
"236 191 CURVE SMOOTH",
"336 195 OFFCURVE",
"391 265 OFFCURVE",
"391 358 CURVE SMOOTH",
"391 394 OFFCURVE",
"383 427 OFFCURVE",
"368 454 CURVE",
"370 456 LINE",
"385 454 OFFCURVE",
"400 454 OFFCURVE",
"425 454 CURVE SMOOTH",
"439 454 OFFCURVE",
"445 462 OFFCURVE",
"445 482 CURVE SMOOTH",
"445 494 LINE SMOOTH",
"445 514 OFFCURVE",
"439 523 OFFCURVE",
"425 523 CURVE SMOOTH",
"275 523 LINE",
"260 527 OFFCURVE",
"245 529 OFFCURVE",
"228 529 CURVE SMOOTH",
"119 529 OFFCURVE",
"63 458 OFFCURVE",
"63 357 CURVE SMOOTH",
"63 294 OFFCURVE",
"83 239 OFFCURVE",
"137 212 CURVE",
"107 191 OFFCURVE",
"90 162 OFFCURVE",
"90 120 CURVE SMOOTH",
"90 89 OFFCURVE",
"102 63 OFFCURVE",
"122 47 CURVE",
"122 45 LINE",
"73 20 OFFCURVE",
"42 -26 OFFCURVE",
"42 -88 CURVE SMOOTH",
"42 -180 OFFCURVE",
"118 -212 OFFCURVE",
"220 -212 CURVE SMOOTH"
);
},
{
closed = 1;
nodes = (
"180 -145 OFFCURVE",
"120 -134 OFFCURVE",
"120 -72 CURVE SMOOTH",
"120 -29 OFFCURVE",
"141 0 OFFCURVE",
"167 15 CURVE",
"231 -6 OFFCURVE",
"340 12 OFFCURVE",
"340 -73 CURVE SMOOTH",
"340 -121 OFFCURVE",
"304 -145 OFFCURVE",
"227 -145 CURVE SMOOTH"
);
},
{
closed = 1;
nodes = (
"179 259 OFFCURVE",
"140 277 OFFCURVE",
"140 356 CURVE SMOOTH",
"140 443 OFFCURVE",
"179 462 OFFCURVE",
"227 462 CURVE SMOOTH",
"274 462 OFFCURVE",
"315 443 OFFCURVE",
"315 356 CURVE SMOOTH",
"315 277 OFFCURVE",
"274 259 OFFCURVE",
"227 259 CURVE SMOOTH"
);
}
);
};
layerId = "76F17502-367F-435E-B23E-ED9D928E777B";
paths = (
{
closed = 1;
nodes = (
"351 -212 OFFCURVE",
"418 -159 OFFCURVE",
"418 -64 CURVE SMOOTH",
"418 19 OFFCURVE",
"359 56 OFFCURVE",
"281 67 CURVE SMOOTH",
"223 76 OFFCURVE",
"164 77 OFFCURVE",
"164 128 CURVE SMOOTH",
"164 170 OFFCURVE",
"194 187 OFFCURVE",
"236 189 CURVE SMOOTH",
"337 193 OFFCURVE",
"392 264 OFFCURVE",
"392 358 CURVE SMOOTH",
"392 394 OFFCURVE",
"382 427 OFFCURVE",
"365 454 CURVE",
"367 456 LINE",
"382 454 OFFCURVE",
"399 454 OFFCURVE",
"425 454 CURVE SMOOTH",
"439 454 OFFCURVE",
"445 462 OFFCURVE",
"445 482 CURVE SMOOTH",
"445 494 LINE SMOOTH",
"445 514 OFFCURVE",
"439 523 OFFCURVE",
"425 523 CURVE SMOOTH",
"275 523 LINE",
"260 527 OFFCURVE",
"245 529 OFFCURVE",
"228 529 CURVE SMOOTH",
"118 529 OFFCURVE",
"62 458 OFFCURVE",
"62 357 CURVE SMOOTH",
"62 294 OFFCURVE",
"82 239 OFFCURVE",
"137 212 CURVE",
"107 191 OFFCURVE",
"90 162 OFFCURVE",
"90 120 CURVE SMOOTH",
"90 89 OFFCURVE",
"102 63 OFFCURVE",
"122 47 CURVE",
"122 45 LINE",
"73 20 OFFCURVE",
"42 -26 OFFCURVE",
"42 -83 CURVE SMOOTH",
"42 -170 OFFCURVE",
"103 -212 OFFCURVE",
"220 -212 CURVE SMOOTH"
);
},
{
closed = 1;
nodes = (
"156 -145 OFFCURVE",
"120 -120 OFFCURVE",
"120 -70 CURVE SMOOTH",
"120 -29 OFFCURVE",
"141 0 OFFCURVE",
"167 15 CURVE",
"231 -6 OFFCURVE",
"340 12 OFFCURVE",
"340 -73 CURVE SMOOTH",
"340 -121 OFFCURVE",
"304 -145 OFFCURVE",
"227 -145 CURVE SMOOTH"
);
},
{
closed = 1;
nodes = (
"179 259 OFFCURVE",
"140 277 OFFCURVE",
"140 356 CURVE SMOOTH",
"140 443 OFFCURVE",
"179 462 OFFCURVE",
"227 462 CURVE SMOOTH",
"274 462 OFFCURVE",
"315 443 OFFCURVE",
"315 356 CURVE SMOOTH",
"315 277 OFFCURVE",
"274 259 OFFCURVE",
"227 259 CURVE SMOOTH"
);
}
);
width = 471;
},
{
anchors = (
{
name = top;
position = "{229, 523}";
}
);
layerId = "6662946B-F990-402F-A6FD-22D24AB84B33";
paths = (
{
closed = 1;
nodes = (
"356 -212 OFFCURVE",
"436 -150 OFFCURVE",
"436 -45 CURVE SMOOTH",
"436 46 OFFCURVE",
"376 76 OFFCURVE",
"312 91 CURVE SMOOTH",
"251 105 OFFCURVE",
"195 105 OFFCURVE",
"195 148 CURVE SMOOTH",
"195 170 OFFCURVE",
"207 186 OFFCURVE",
"245 187 CURVE SMOOTH",
"340 189 OFFCURVE",
"408 243 OFFCURVE",
"408 349 CURVE SMOOTH",
"408 378 OFFCURVE",
"401 404 OFFCURVE",
"391 419 CURVE",
"393 423 LINE",
"401 421 OFFCURVE",
"418 419 OFFCURVE",
"427 419 CURVE SMOOTH",
"443 419 OFFCURVE",
"450 432 OFFCURVE",
"450 462 CURVE SMOOTH",
"450 478 LINE SMOOTH",
"450 509 OFFCURVE",
"442 523 OFFCURVE",
"423 523 CURVE SMOOTH",
"293 523 LINE",
"272 528 OFFCURVE",
"250 531 OFFCURVE",
"228 531 CURVE SMOOTH",
"123 531 OFFCURVE",
"46 477 OFFCURVE",
"46 352 CURVE SMOOTH",
"46 283 OFFCURVE",
"73 237 OFFCURVE",
"118 211 CURVE",
"88 188 OFFCURVE",
"70 157 OFFCURVE",
"70 118 CURVE SMOOTH",
"70 86 OFFCURVE",
"83 58 OFFCURVE",
"111 42 CURVE",
"111 39 LINE",
"62 15 OFFCURVE",
"35 -24 OFFCURVE",
"35 -79 CURVE SMOOTH",
"35 -168 OFFCURVE",
"103 -212 OFFCURVE",
"226 -212 CURVE SMOOTH"
);
},
{
closed = 1;
nodes = (
"192 -106 OFFCURVE",
"162 -90 OFFCURVE",
"162 -56 CURVE SMOOTH",
"162 -32 OFFCURVE",
"176 -10 OFFCURVE",
"199 3 CURVE",
"270 -8 OFFCURVE",
"313 -13 OFFCURVE",
"313 -54 CURVE SMOOTH",
"313 -86 OFFCURVE",
"289 -106 OFFCURVE",
"239 -106 CURVE SMOOTH"
);
},
{
closed = 1;
nodes = (
"196 284 OFFCURVE",
"170 300 OFFCURVE",
"170 358 CURVE SMOOTH",
"170 418 OFFCURVE",
"196 433 OFFCURVE",
"226 433 CURVE SMOOTH",
"257 433 OFFCURVE",
"283 418 OFFCURVE",
"283 358 CURVE SMOOTH",
"283 298 OFFCURVE",
"257 284 OFFCURVE",
"226 284 CURVE SMOOTH"
);
}
);
width = 471;
},
{
anchors = (
{
name = top;
position = "{231, 523}";
}
);
associatedMasterId = "76F17502-367F-435E-B23E-ED9D928E777B";
layerId = "77916105-EB9E-4BBC-ABD1-57409B9641A6";
name = "Feb 24 18, 16:36";
paths = (
{
closed = 1;
nodes = (
"348 -212 OFFCURVE",
"413 -159 OFFCURVE",
"413 -64 CURVE SMOOTH",
"413 20 OFFCURVE",
"356 46 OFFCURVE",
"281 58 CURVE SMOOTH",
"220 68 OFFCURVE",
"157 68 OFFCURVE",
"157 121 CURVE SMOOTH",
"157 164 OFFCURVE",
"190 184 OFFCURVE",
"236 186 CURVE SMOOTH",
"336 190 OFFCURVE",
"391 260 OFFCURVE",
"391 358 CURVE SMOOTH",
"391 394 OFFCURVE",
"383 427 OFFCURVE",
"368 454 CURVE",
"370 456 LINE",
"385 454 OFFCURVE",
"400 454 OFFCURVE",
"425 454 CURVE SMOOTH",
"439 454 OFFCURVE",
"445 462 OFFCURVE",
"445 482 CURVE SMOOTH",
"445 494 LINE SMOOTH",
"445 514 OFFCURVE",
"439 523 OFFCURVE",
"425 523 CURVE SMOOTH",
"275 523 LINE",
"260 527 OFFCURVE",
"245 529 OFFCURVE",
"228 529 CURVE SMOOTH",
"119 529 OFFCURVE",
"63 458 OFFCURVE",
"63 357 CURVE SMOOTH",
"63 289 OFFCURVE",
"89 235 OFFCURVE",
"137 207 CURVE",
"107 184 OFFCURVE",
"90 153 OFFCURVE",
"90 113 CURVE SMOOTH",
"90 82 OFFCURVE",
"102 56 OFFCURVE",
"122 40 CURVE",
"122 38 LINE",
"74 13 OFFCURVE",
"44 -29 OFFCURVE",
"44 -88 CURVE SMOOTH",
"44 -180 OFFCURVE",
"119 -212 OFFCURVE",
"220 -212 CURVE SMOOTH"
);
},
{
closed = 1;
nodes = (
"178 -147 OFFCURVE",
"115 -136 OFFCURVE",
"115 -72 CURVE SMOOTH",
"115 -32 OFFCURVE",
"138 -7 OFFCURVE",
"167 8 CURVE",
"230 -13 OFFCURVE",
"337 5 OFFCURVE",
"337 -73 CURVE SMOOTH",
"337 -122 OFFCURVE",
"302 -147 OFFCURVE",
"227 -147 CURVE SMOOTH"
);
},
{
closed = 1;
nodes = (
"177 250 OFFCURVE",
"137 269 OFFCURVE",
"137 356 CURVE SMOOTH",
"137 445 OFFCURVE",
"177 464 OFFCURVE",
"227 464 CURVE SMOOTH",
"276 464 OFFCURVE",
"318 445 OFFCURVE",
"318 356 CURVE SMOOTH",
"318 269 OFFCURVE",
"276 250 OFFCURVE",
"227 250 CURVE SMOOTH"
);
}
);
width = 471;
},
{
anchors = (
{
name = top;
position = "{229, 523}";
}
);
associatedMasterId = "6662946B-F990-402F-A6FD-22D24AB84B33";
layerId = "AD2E1ACC-5086-4612-B158-40BE75537E89";
name = "Feb 24 18, 16:36";
paths = (
{
closed = 1;
nodes = (
"356 -212 OFFCURVE",
"436 -150 OFFCURVE",
"436 -45 CURVE SMOOTH",
"436 46 OFFCURVE",
"376 76 OFFCURVE",
"312 91 CURVE SMOOTH",
"252 105 OFFCURVE",
"197 105 OFFCURVE",
"197 144 CURVE SMOOTH",
"197 167 OFFCURVE",
"215 178 OFFCURVE",
"245 179 CURVE SMOOTH",
"340 182 OFFCURVE",
"408 238 OFFCURVE",
"408 349 CURVE SMOOTH",
"408 378 OFFCURVE",
"401 404 OFFCURVE",
"391 419 CURVE",
"393 423 LINE",
"401 421 OFFCURVE",
"418 419 OFFCURVE",
"427 419 CURVE SMOOTH",
"443 419 OFFCURVE",
"450 432 OFFCURVE",
"450 462 CURVE SMOOTH",
"450 478 LINE SMOOTH",
"450 509 OFFCURVE",
"442 523 OFFCURVE",
"423 523 CURVE SMOOTH",
"293 523 LINE",
"272 528 OFFCURVE",
"250 531 OFFCURVE",
"228 531 CURVE SMOOTH",
"123 531 OFFCURVE",
"46 477 OFFCURVE",
"46 352 CURVE SMOOTH",
"46 279 OFFCURVE",
"73 230 OFFCURVE",
"118 203 CURVE",
"88 182 OFFCURVE",
"70 154 OFFCURVE",
"70 118 CURVE SMOOTH",
"70 86 OFFCURVE",
"83 58 OFFCURVE",
"111 42 CURVE",
"111 39 LINE",
"62 15 OFFCURVE",
"35 -24 OFFCURVE",
"35 -79 CURVE SMOOTH",
"35 -168 OFFCURVE",
"103 -212 OFFCURVE",
"226 -212 CURVE SMOOTH"
);
},
{
closed = 1;
nodes = (
"192 -106 OFFCURVE",
"162 -90 OFFCURVE",
"162 -56 CURVE SMOOTH",
"162 -32 OFFCURVE",
"176 -10 OFFCURVE",
"199 3 CURVE",
"270 -8 OFFCURVE",
"313 -13 OFFCURVE",
"313 -54 CURVE SMOOTH",
"313 -86 OFFCURVE",
"289 -106 OFFCURVE",
"239 -106 CURVE SMOOTH"
);
},
{
closed = 1;
nodes = (
"196 276 OFFCURVE",
"170 291 OFFCURVE",
"170 354 CURVE SMOOTH",
"170 417 OFFCURVE",
"196 433 OFFCURVE",
"226 433 CURVE SMOOTH",
"257 433 OFFCURVE",
"283 417 OFFCURVE",
"283 354 CURVE SMOOTH",
"283 291 OFFCURVE",
"257 276 OFFCURVE",
"226 276 CURVE SMOOTH"
);
}
);
width = 471;
}
);
leftKerningGroup = g;
rightKerningGroup = g;
unicode = 0067;
userData = {
RMXScaler = {
source = g;
};
};
},
{
glyphname = h;
layers = (
{
anchors = (
{
name = bottom;
position = "{246, 0}";
},
{
name = center;
position = "{140, 630}";
},
{
name = top;
position = "{125, 725}";
}
);
layerId = "76F17502-367F-435E-B23E-ED9D928E777B";
paths = (
{
closed = 1;
nodes = (
"129 -2 LINE SMOOTH",
"156 -2 OFFCURVE",
"167 6 OFFCURVE",
"167 20 CURVE SMOOTH",
"167 386 LINE",
"174 409 OFFCURVE",
"209 456 OFFCURVE",
"260 456 CURVE SMOOTH",
"308 456 OFFCURVE",
"331 422 OFFCURVE",
"331 365 CURVE SMOOTH",
"331 20 LINE SMOOTH",
"331 6 OFFCURVE",
"342 -2 OFFCURVE",
"369 -2 CURVE SMOOTH",
"379 -2 LINE SMOOTH",
"406 -2 OFFCURVE",
"417 6 OFFCURVE",
"417 20 CURVE SMOOTH",
"417 373 LINE SMOOTH",
"417 485 OFFCURVE",
"356 529 OFFCURVE",
"289 529 CURVE SMOOTH",
"237 529 OFFCURVE",
"194 501 OFFCURVE",
"167 462 CURVE",
"167 730 LINE SMOOTH",
"167 744 OFFCURVE",
"156 752 OFFCURVE",
"130 752 CURVE SMOOTH",
"119 752 LINE SMOOTH",
"92 752 OFFCURVE",
"81 744 OFFCURVE",
"81 730 CURVE SMOOTH",
"81 20 LINE SMOOTH",
"81 6 OFFCURVE",
"92 -2 OFFCURVE",
"119 -2 CURVE SMOOTH"
);
}
);
width = 485;
},
{
anchors = (
{
name = bottom;
position = "{243, 0}";
},
{
name = center;
position = "{138, 630}";
},
{
name = top;
position = "{127, 735}";
}
);
layerId = "6662946B-F990-402F-A6FD-22D24AB84B33";
paths = (
{
closed = 1;
nodes = (
"143 -2 LINE SMOOTH",
"182 -2 OFFCURVE",
"201 8 OFFCURVE",
"201 30 CURVE SMOOTH",
"201 377 LINE",
"211 392 OFFCURVE",
"228 409 OFFCURVE",
"250 409 CURVE SMOOTH",
"279 409 OFFCURVE",
"289 391 OFFCURVE",
"289 358 CURVE SMOOTH",
"289 30 LINE SMOOTH",
"289 9 OFFCURVE",
"306 -2 OFFCURVE",
"347 -2 CURVE SMOOTH",
"381 -2 LINE SMOOTH",
"422 -2 OFFCURVE",
"439 9 OFFCURVE",
"439 30 CURVE SMOOTH",
"439 392 LINE SMOOTH",
"439 483 OFFCURVE",
"399 531 OFFCURVE",
"326 531 CURVE SMOOTH",
"269 531 OFFCURVE",
"227 499 OFFCURVE",
"201 463 CURVE",
"201 722 LINE SMOOTH",
"201 743 OFFCURVE",
"183 754 OFFCURVE",
"143 754 CURVE SMOOTH",
"109 754 LINE SMOOTH",
"68 754 OFFCURVE",
"51 743 OFFCURVE",
"51 722 CURVE SMOOTH",
"51 30 LINE SMOOTH",
"51 9 OFFCURVE",
"68 -2 OFFCURVE",
"109 -2 CURVE SMOOTH"
);
}
);
width = 485;
}
);
leftKerningGroup = h;
rightKerningGroup = n;
unicode = 0068;
userData = {
RMXScaler = {
source = h;
};
};
},
{
glyphname = hbar;
layers = (
{
components = (
{
alignment = -1;
name = h;
}
);
layerId = "76F17502-367F-435E-B23E-ED9D928E777B";
paths = (
{
closed = 1;
nodes = (
"314 595 LINE SMOOTH",
"329 595 OFFCURVE",
"335 604 OFFCURVE",
"335 625 CURVE SMOOTH",
"335 635 LINE SMOOTH",
"335 656 OFFCURVE",
"329 665 OFFCURVE",
"314 665 CURVE SMOOTH",
"22 665 LINE SMOOTH",
"8 665 OFFCURVE",
"1 656 OFFCURVE",
"1 635 CURVE SMOOTH",
"1 625 LINE SMOOTH",
"1 604 OFFCURVE",
"8 595 OFFCURVE",
"22 595 CURVE"
);
}
);
width = 485;
},
{
components = (
{
alignment = -1;
name = h;
}
);
layerId = "6662946B-F990-402F-A6FD-22D24AB84B33";
paths = (
{
closed = 1;
nodes = (
"301 585 LINE SMOOTH",
"326 585 OFFCURVE",
"336 597 OFFCURVE",
"336 625 CURVE SMOOTH",
"336 640 LINE SMOOTH",
"336 668 OFFCURVE",
"326 680 OFFCURVE",
"301 680 CURVE SMOOTH",
"36 680 LINE SMOOTH",
"11 680 OFFCURVE",
"0 668 OFFCURVE",
"0 640 CURVE SMOOTH",
"0 625 LINE SMOOTH",
"0 597 OFFCURVE",
"11 585 OFFCURVE",
"36 585 CURVE"
);
}
);
width = 485;
}
);
leftKerningGroup = h;
rightKerningGroup = n;
rightMetricsKey = h;
unicode = 0127;
userData = {
RMXScaler = {
source = hbar;
};
};
},
{
glyphname = idotless;
layers = (
{
anchors = (
{
name = bottom;
position = "{127, 0}";
},
{
name = ogonek;
position = "{165, 0}";
},
{
name = top;
position = "{127, 523}";
}
);
layerId = "76F17502-367F-435E-B23E-ED9D928E777B";
paths = (
{
closed = 1;
nodes = (
"129 -2 LINE SMOOTH",
"157 -2 OFFCURVE",
"169 6 OFFCURVE",
"169 20 CURVE SMOOTH",
"169 503 LINE SMOOTH",
"169 517 OFFCURVE",
"157 525 OFFCURVE",
"129 525 CURVE SMOOTH",
"125 525 LINE SMOOTH",
"97 525 OFFCURVE",
"85 517 OFFCURVE",
"85 503 CURVE SMOOTH",
"85 20 LINE SMOOTH",
"85 6 OFFCURVE",
"97 -2 OFFCURVE",
"125 -2 CURVE SMOOTH"
);
}
);
width = 254;
},
{
anchors = (
{
name = bottom;
position = "{127, 0}";
},
{
name = ogonek;
position = "{163, 0}";
},
{
name = top;
position = "{128, 523}";
}
);
layerId = "6662946B-F990-402F-A6FD-22D24AB84B33";
paths = (
{
closed = 1;
nodes = (
"141 -2 LINE SMOOTH",
"183 -2 OFFCURVE",
"201 9 OFFCURVE",
"201 30 CURVE SMOOTH",
"201 493 LINE SMOOTH",
"201 514 OFFCURVE",
"183 525 OFFCURVE",
"141 525 CURVE SMOOTH",
"113 525 LINE SMOOTH",
"71 525 OFFCURVE",
"53 514 OFFCURVE",
"53 493 CURVE SMOOTH",
"53 30 LINE SMOOTH",
"53 9 OFFCURVE",
"71 -2 OFFCURVE",
"113 -2 CURVE SMOOTH"
);
}
);
width = 254;
}
);
leftKerningGroup = i;
rightKerningGroup = i;
unicode = 0131;
userData = {
RMXScaler = {
source = idotless;
};
};
},
{
glyphname = itilde;
layers = (
{
background = {
paths = (
{
closed = 1;
nodes = (
"3 591 OFFCURVE",
"6 590 OFFCURVE",
"9 590 CURVE SMOOTH",
"15 590 OFFCURVE",
"19 594 OFFCURVE",
"25 604 CURVE SMOOTH",
"37 624 OFFCURVE",
"45 631 OFFCURVE",
"58 631 CURVE SMOOTH",
"89 631 OFFCURVE",
"135 591 OFFCURVE",
"176 591 CURVE SMOOTH",
"208 591 OFFCURVE",
"232 609 OFFCURVE",
"251 659 CURVE SMOOTH",
"253 665 OFFCURVE",
"254 669 OFFCURVE",
"254 673 CURVE SMOOTH",
"254 679 OFFCURVE",
"251 681 OFFCURVE",
"243 685 CURVE SMOOTH",
"237 688 LINE SMOOTH",
"233 690 OFFCURVE",
"230 691 OFFCURVE",
"227 691 CURVE SMOOTH",
"221 691 OFFCURVE",
"215 687 OFFCURVE",
"209 676 CURVE SMOOTH",
"198 656 OFFCURVE",
"189 650 OFFCURVE",
"175 650 CURVE SMOOTH",
"143 650 OFFCURVE",
"98 690 OFFCURVE",
"59 690 CURVE SMOOTH",
"26 690 OFFCURVE",
"2 672 OFFCURVE",
"-16 621 CURVE SMOOTH",
"-18 616 OFFCURVE",
"-19 612 OFFCURVE",
"-19 608 CURVE SMOOTH",
"-19 603 OFFCURVE",
"-16 599 OFFCURVE",
"-10 596 CURVE SMOOTH",
"-1 592 LINE SMOOTH"
);
}
);
};
components = (
{
name = idotless;
},
{
name = tildecomb;
transform = "{1, 0, 0, 1, -23, 0}";
}
);
layerId = "76F17502-367F-435E-B23E-ED9D928E777B";
width = 254;
},
{
background = {
paths = (
{
closed = 1;
nodes = (
"12 579 OFFCURVE",
"16 578 OFFCURVE",
"20 578 CURVE SMOOTH",
"30 578 OFFCURVE",
"37 584 OFFCURVE",
"45 595 CURVE SMOOTH",
"55 610 OFFCURVE",
"62 611 OFFCURVE",
"68 611 CURVE SMOOTH",
"93 610 OFFCURVE",
"143 582 OFFCURVE",
"174 582 CURVE SMOOTH",
"214 582 OFFCURVE",
"244 615 OFFCURVE",
"256 652 CURVE SMOOTH",
"257 656 OFFCURVE",
"259 660 OFFCURVE",
"259 667 CURVE SMOOTH",
"259 678 OFFCURVE",
"253 688 OFFCURVE",
"238 693 CURVE SMOOTH",
"229 696 LINE SMOOTH",
"225 697 OFFCURVE",
"221 698 OFFCURVE",
"216 698 CURVE SMOOTH",
"205 698 OFFCURVE",
"198 691 OFFCURVE",
"191 681 CURVE SMOOTH",
"181 666 OFFCURVE",
"174 665 OFFCURVE",
"168 665 CURVE SMOOTH",
"143 666 OFFCURVE",
"93 694 OFFCURVE",
"62 694 CURVE SMOOTH",
"22 694 OFFCURVE",
"-7 663 OFFCURVE",
"-20 625 CURVE SMOOTH",
"-22 618 OFFCURVE",
"-23 613 OFFCURVE",
"-23 609 CURVE SMOOTH",
"-23 600 OFFCURVE",
"-18 588 OFFCURVE",
"-2 583 CURVE SMOOTH",
"8 580 LINE SMOOTH"
);
}
);
};
components = (
{
name = idotless;
},
{
name = tildecomb;
transform = "{1, 0, 0, 1, -28, 0}";
}
);
layerId = "6662946B-F990-402F-A6FD-22D24AB84B33";
width = 254;
}
);
leftKerningGroup = i;
rightKerningGroup = i;
unicode = 0129;
},
{
glyphname = jdotless;
layers = (
{
anchors = (
{
name = top;
position = "{127, 523}";
}
);
layerId = "76F17502-367F-435E-B23E-ED9D928E777B";
paths = (
{
closed = 1;
nodes = (
"102 -212 OFFCURVE",
"169 -191 OFFCURVE",
"169 -80 CURVE SMOOTH",
"169 503 LINE SMOOTH",
"169 517 OFFCURVE",
"157 525 OFFCURVE",
"129 525 CURVE SMOOTH",
"125 525 LINE SMOOTH",
"97 525 OFFCURVE",
"85 517 OFFCURVE",
"85 503 CURVE SMOOTH",
"85 -72 LINE SMOOTH",
"85 -127 OFFCURVE",
"67 -140 OFFCURVE",
"47 -140 CURVE SMOOTH",
"23 -140 OFFCURVE",
"18 -135 OFFCURVE",
"11 -135 CURVE SMOOTH",
"-3 -135 OFFCURVE",
"-10 -174 OFFCURVE",
"-10 -182 CURVE SMOOTH",
"-10 -209 OFFCURVE",
"34 -212 OFFCURVE",
"60 -212 CURVE SMOOTH"
);
}
);
width = 249;
},
{
anchors = (
{
name = top;
position = "{128, 523}";
}
);
layerId = "6662946B-F990-402F-A6FD-22D24AB84B33";
paths = (
{
closed = 1;
nodes = (
"143 -212 OFFCURVE",
"201 -159 OFFCURVE",
"201 -50 CURVE SMOOTH",
"201 493 LINE SMOOTH",
"201 514 OFFCURVE",
"183 525 OFFCURVE",
"141 525 CURVE SMOOTH",
"113 525 LINE SMOOTH",
"71 525 OFFCURVE",
"53 514 OFFCURVE",
"53 493 CURVE SMOOTH",
"53 -52 LINE SMOOTH",
"53 -82 OFFCURVE",
"47 -95 OFFCURVE",
"29 -95 CURVE SMOOTH",
"18 -95 OFFCURVE",
"5 -91 OFFCURVE",
"-1 -91 CURVE SMOOTH",
"-22 -91 OFFCURVE",
"-32 -138 OFFCURVE",
"-32 -161 CURVE SMOOTH",
"-32 -200 OFFCURVE",
"4 -212 OFFCURVE",
"67 -212 CURVE SMOOTH"
);
}
);
width = 249;
}
);
leftKerningGroup = j;
rightKerningGroup = j;
unicode = 0237;
userData = {
RMXScaler = {
source = jdotless;
};
};
},
{
glyphname = k;
layers = (
{
anchors = (
{
name = bottom;
position = "{238, 0}";
}
);
layerId = "76F17502-367F-435E-B23E-ED9D928E777B";
paths = (
{
closed = 1;
nodes = (
"135 -2 LINE SMOOTH",
"161 -2 OFFCURVE",
"172 6 OFFCURVE",
"172 20 CURVE SMOOTH",
"172 258 LINE",
"178 258 LINE",
"334 11 LINE SMOOTH",
"342 -2 OFFCURVE",
"348 -2 OFFCURVE",
"368 -2 CURVE SMOOTH",
"388 -2 LINE SMOOTH",
"415 -2 OFFCURVE",
"427 1 OFFCURVE",
"427 12 CURVE SMOOTH",
"427 16 OFFCURVE",
"425 20 OFFCURVE",
"420 28 CURVE SMOOTH",
"244 304 LINE",
"244 240 LINE",
"410 491 LINE SMOOTH",
"415 499 OFFCURVE",
"418 506 OFFCURVE",
"418 512 CURVE SMOOTH",
"418 519 OFFCURVE",
"408 525 OFFCURVE",
"385 525 CURVE SMOOTH",
"365 525 LINE SMOOTH",
"346 525 OFFCURVE",
"329 523 OFFCURVE",
"322 511 CURVE SMOOTH",
"177 283 LINE",
"172 283 LINE",
"172 730 LINE SMOOTH",
"172 744 OFFCURVE",
"161 752 OFFCURVE",
"135 752 CURVE SMOOTH",
"124 752 LINE SMOOTH",
"97 752 OFFCURVE",
"86 744 OFFCURVE",
"86 730 CURVE SMOOTH",
"86 20 LINE SMOOTH",
"86 6 OFFCURVE",
"97 -2 OFFCURVE",
"124 -2 CURVE SMOOTH"
);
}
);
width = 452;
},
{
anchors = (
{
name = bottom;
position = "{232, 0}";
}
);
layerId = "6662946B-F990-402F-A6FD-22D24AB84B33";
paths = (
{
closed = 1;
nodes = (
"142 -2 LINE SMOOTH",
"183 -2 OFFCURVE",
"200 9 OFFCURVE",
"200 30 CURVE SMOOTH",
"200 246 LINE",
"211 246 LINE",
"300 17 LINE SMOOTH",
"306 2 OFFCURVE",
"313 -2 OFFCURVE",
"339 -2 CURVE SMOOTH",
"395 -2 LINE SMOOTH",
"432 -2 OFFCURVE",
"447 4 OFFCURVE",
"447 14 CURVE SMOOTH",
"447 18 OFFCURVE",
"445 25 OFFCURVE",
"441 34 CURVE SMOOTH",
"298 353 LINE",
"315 232 LINE",
"428 487 LINE SMOOTH",
"433 498 OFFCURVE",
"435 504 OFFCURVE",
"435 508 CURVE SMOOTH",
"435 519 OFFCURVE",
"420 525 OFFCURVE",
"381 525 CURVE SMOOTH",
"329 525 LINE SMOOTH",
"303 525 OFFCURVE",
"298 524 OFFCURVE",
"290 506 CURVE SMOOTH",
"205 306 LINE",
"200 306 LINE",
"200 722 LINE SMOOTH",
"200 743 OFFCURVE",
"183 754 OFFCURVE",
"142 754 CURVE SMOOTH",
"110 754 LINE SMOOTH",
"69 754 OFFCURVE",
"52 743 OFFCURVE",
"52 722 CURVE SMOOTH",
"52 30 LINE SMOOTH",
"52 9 OFFCURVE",
"69 -2 OFFCURVE",
"110 -2 CURVE SMOOTH"
);
}
);
width = 452;
}
);
leftKerningGroup = h;
rightKerningGroup = k;
unicode = 006B;
userData = {
RMXScaler = {
source = k;
};
};
},
{
glyphname = kgreenlandic;
layers = (
{
layerId = "76F17502-367F-435E-B23E-ED9D928E777B";
paths = (
{
closed = 1;
nodes = (
"135 -2 LINE SMOOTH",
"161 -2 OFFCURVE",
"172 6 OFFCURVE",
"172 20 CURVE SMOOTH",
"172 248 LINE",
"178 248 LINE",
"329 11 LINE SMOOTH",
"337 -2 OFFCURVE",
"353 -2 OFFCURVE",
"373 -2 CURVE SMOOTH",
"388 -2 LINE SMOOTH",
"415 -2 OFFCURVE",
"427 1 OFFCURVE",
"427 12 CURVE SMOOTH",
"427 16 OFFCURVE",
"425 20 OFFCURVE",
"420 28 CURVE SMOOTH",
"259 272 LINE",
"402 487 LINE",
"410 500 OFFCURVE",
"412 507 OFFCURVE",
"412 512 CURVE SMOOTH",
"412 519 OFFCURVE",
"402 525 OFFCURVE",
"379 525 CURVE SMOOTH",
"365 525 LINE SMOOTH",
"346 525 OFFCURVE",
"329 523 OFFCURVE",
"322 511 CURVE",
"177 283 LINE",
"172 283 LINE",
"172 503 LINE SMOOTH",
"172 517 OFFCURVE",
"161 525 OFFCURVE",
"135 525 CURVE SMOOTH",
"124 525 LINE SMOOTH",
"97 525 OFFCURVE",
"86 517 OFFCURVE",
"86 503 CURVE SMOOTH",
"86 20 LINE SMOOTH",
"86 6 OFFCURVE",
"97 -2 OFFCURVE",
"124 -2 CURVE SMOOTH"
);
}
);
width = 452;
},
{
layerId = "6662946B-F990-402F-A6FD-22D24AB84B33";
paths = (
{
closed = 1;
nodes = (
"142 -2 LINE SMOOTH",
"183 -2 OFFCURVE",
"200 9 OFFCURVE",
"200 30 CURVE SMOOTH",
"200 246 LINE",
"205 246 LINE",
"293 17 LINE SMOOTH",
"298 2 OFFCURVE",
"316 -2 OFFCURVE",
"342 -2 CURVE SMOOTH",
"395 -2 LINE SMOOTH",
"432 -2 OFFCURVE",
"447 4 OFFCURVE",
"447 14 CURVE SMOOTH",
"447 18 OFFCURVE",
"446 25 OFFCURVE",
"441 34 CURVE SMOOTH",
"325 292 LINE",
"423 487 LINE SMOOTH",
"429 498 OFFCURVE",
"430 504 OFFCURVE",
"430 508 CURVE SMOOTH",
"430 519 OFFCURVE",
"415 525 OFFCURVE",
"376 525 CURVE SMOOTH",
"329 525 LINE SMOOTH",
"303 525 OFFCURVE",
"287 524 OFFCURVE",
"280 506 CURVE SMOOTH",
"205 326 LINE",
"200 326 LINE",
"200 493 LINE SMOOTH",
"200 514 OFFCURVE",
"183 525 OFFCURVE",
"142 525 CURVE SMOOTH",
"110 525 LINE SMOOTH",
"69 525 OFFCURVE",
"52 514 OFFCURVE",
"52 493 CURVE SMOOTH",
"52 30 LINE SMOOTH",
"52 9 OFFCURVE",
"69 -2 OFFCURVE",
"110 -2 CURVE SMOOTH"
);
}
);
width = 452;
}
);
leftKerningGroup = i;
rightKerningGroup = k;
unicode = 0138;
userData = {
RMXScaler = {
source = kgreenlandic;
};
};
},
{
glyphname = l;
layers = (
{
anchors = (
{
name = bottom;
position = "{155, 0}";
},
{
name = center;
position = "{260, 365}";
},
{
name = top;
position = "{119, 720}";
},
{
name = topright;
position = "{232, 752}";
}
);
layerId = "76F17502-367F-435E-B23E-ED9D928E777B";
paths = (
{
closed = 1;
nodes = (
"207 -6 OFFCURVE",
"250 2 OFFCURVE",
"250 24 CURVE SMOOTH",
"250 32 OFFCURVE",
"243 71 OFFCURVE",
"229 71 CURVE SMOOTH",
"222 71 OFFCURVE",
"216 66 OFFCURVE",
"197 66 CURVE SMOOTH",
"177 66 OFFCURVE",
"160 77 OFFCURVE",
"160 123 CURVE SMOOTH",
"160 730 LINE SMOOTH",
"160 744 OFFCURVE",
"148 752 OFFCURVE",
"120 752 CURVE SMOOTH",
"116 752 LINE SMOOTH",
"88 752 OFFCURVE",
"76 744 OFFCURVE",
"76 730 CURVE SMOOTH",
"76 115 LINE SMOOTH",
"76 13 OFFCURVE",
"141 -6 OFFCURVE",
"182 -6 CURVE SMOOTH"
);
}
);
width = 270;
},
{
anchors = (
{
name = bottom;
position = "{155, 0}";
},
{
name = center;
position = "{267, 375}";
},
{
name = top;
position = "{124, 720}";
},
{
name = topright;
position = "{231, 750}";
}
);
layerId = "6662946B-F990-402F-A6FD-22D24AB84B33";
paths = (
{
closed = 1;
nodes = (
"217 -8 OFFCURVE",
"273 3 OFFCURVE",
"273 39 CURVE SMOOTH",
"273 60 OFFCURVE",
"263 113 OFFCURVE",
"244 113 CURVE SMOOTH",
"239 113 OFFCURVE",
"229 109 OFFCURVE",
"222 109 CURVE SMOOTH",
"205 109 OFFCURVE",
"198 119 OFFCURVE",
"198 142 CURVE SMOOTH",
"198 722 LINE SMOOTH",
"198 743 OFFCURVE",
"180 754 OFFCURVE",
"138 754 CURVE SMOOTH",
"110 754 LINE SMOOTH",
"68 754 OFFCURVE",
"50 743 OFFCURVE",
"50 722 CURVE SMOOTH",
"50 144 LINE SMOOTH",
"50 40 OFFCURVE",
"96 -8 OFFCURVE",
"179 -8 CURVE SMOOTH"
);
}
);
width = 270;
}
);
leftKerningGroup = l;
rightKerningGroup = l;
unicode = 006C;
userData = {
RMXScaler = {
source = l;
};
};
},
{
glyphname = lslash;
layers = (
{
components = (
{
name = l;
transform = "{1, 0, 0, 1, 6, 0}";
}
);
layerId = "76F17502-367F-435E-B23E-ED9D928E777B";
paths = (
{
closed = 1;
nodes = (
"209 419 LINE",
"221 426 OFFCURVE",
"228 435 OFFCURVE",
"228 449 CURVE SMOOTH",
"228 455 LINE SMOOTH",
"228 464 OFFCURVE",
"224 469 OFFCURVE",
"219 469 CURVE SMOOTH",
"216 469 OFFCURVE",
"213 467 OFFCURVE",
"209 465 CURVE",
"55 374 LINE",
"43 367 OFFCURVE",
"36 358 OFFCURVE",
"36 344 CURVE SMOOTH",
"36 338 LINE SMOOTH",
"36 329 OFFCURVE",
"40 324 OFFCURVE",
"45 324 CURVE SMOOTH",
"47 324 OFFCURVE",
"51 326 OFFCURVE",
"55 328 CURVE"
);
}
);
width = 270;
},
{
components = (
{
name = l;
transform = "{1, 0, 0, 1, 6, 0}";
}
);
layerId = "6662946B-F990-402F-A6FD-22D24AB84B33";
paths = (
{
closed = 1;
nodes = (
"233 427 LINE",
"251 438 OFFCURVE",
"259 450 OFFCURVE",
"259 472 CURVE SMOOTH",
"259 492 LINE SMOOTH",
"259 506 OFFCURVE",
"255 512 OFFCURVE",
"248 512 CURVE SMOOTH",
"244 512 OFFCURVE",
"239 511 OFFCURVE",
"233 507 CURVE",
"39 390 LINE",
"21 379 OFFCURVE",
"13 365 OFFCURVE",
"13 344 CURVE SMOOTH",
"13 324 LINE SMOOTH",
"13 310 OFFCURVE",
"16 304 OFFCURVE",
"23 304 CURVE SMOOTH",
"27 304 OFFCURVE",
"32 306 OFFCURVE",
"39 310 CURVE"
);
}
);
width = 270;
}
);
leftKerningGroup = l;
rightKerningGroup = l;
unicode = 0142;
userData = {
RMXScaler = {
source = lslash;
};
};
},
